<?xml version="1.0" encoding="utf-8"?>
<!-- Generator: Adobe Illustrator 24.1.1, SVG Export Plug-In . SVG Version: 6.00 Build 0)  -->
<svg version="1.1" id="Calque_1" xmlns="http://www.w3.org/2000/svg" xmlns:xlink="http://www.w3.org/1999/xlink" x="0px" y="0px"
	 viewBox="0 0 100 100" style="enable-background:new 0 0 100 100;" xml:space="preserve">
<style type="text/css">
	.st0{fill:url(#SVGID_1_);}
	.st1{fill:url(#SVGID_2_);}
</style>
<radialGradient id="SVGID_1_" cx="-3.0213" cy="46.7907" r="259.9009" gradientTransform="matrix(1.0196 1.900000e-03 -1.900000e-03 1.016 -21.0775 -14.5585)" gradientUnits="userSpaceOnUse">
	<stop  offset="0.1211" style="stop-color:#B88D40"/>
	<stop  offset="0.3428" style="stop-color:#EDDD8B"/>
	<stop  offset="0.4408" style="stop-color:#A98B39"/>
	<stop  offset="0.5042" style="stop-color:#876418"/>
	<stop  offset="0.5448" style="stop-color:#735213"/>
	<stop  offset="0.5696" style="stop-color:#6A4A11"/>
	<stop  offset="0.8447" style="stop-color:#815F21"/>
	<stop  offset="1" style="stop-color:#896728"/>
</radialGradient>
<path class="st0" d="M50.1,0.6C22.8,0.6,0.6,22.6,0.6,49.8C0.5,77,22.7,99.2,49.9,99.2s49.5-22,49.6-49.2S77.4,0.7,50.1,0.6z
	 M49.9,97.1c-26.1,0-47.3-21.3-47.3-47.3c0-26,21.3-47.2,47.5-47.1C76.3,2.7,97.5,24,97.4,50C97.4,76,76.1,97.2,49.9,97.1z"/>
<radialGradient id="SVGID_2_" cx="-3.0213" cy="46.7906" r="259.9012" gradientTransform="matrix(1.0196 1.900000e-03 -1.900000e-03 1.016 -21.0775 -14.5585)" gradientUnits="userSpaceOnUse">
	<stop  offset="0.1211" style="stop-color:#B88D40"/>
	<stop  offset="0.3428" style="stop-color:#EDDD8B"/>
	<stop  offset="0.4408" style="stop-color:#A98B39"/>
	<stop  offset="0.5042" style="stop-color:#876418"/>
	<stop  offset="0.5448" style="stop-color:#735213"/>
	<stop  offset="0.5696" style="stop-color:#6A4A11"/>
	<stop  offset="0.8447" style="stop-color:#815F21"/>
	<stop  offset="1" style="stop-color:#896728"/>
</radialGradient>
<path class="st1" d="M93.1,65.4c1.8-4.9,2.7-10.1,2.7-15.4l-0.4,0c0,3.5-0.4,6.8-1.2,10.2l-5.4-1.3c0.3-1.2,0.5-2.5,0.7-3.8l1,0.1
	l-0.1,0.5c0,0.2-0.1,0.5-0.1,0.7L90,58.1l3.6,0.7l0.3-1.8c0.1-0.3,0.1-0.5,0.1-0.8l0.1-1L91.8,55l0,0.2c0,0.2,0,0.3-0.1,0.5
	c0,0.3-0.1,0.6-0.1,0.9l0,0.2l1.1,0.2l0.1-0.4L92,56.5c0-0.2,0.1-0.5,0.1-0.7c0-0.1,0-0.2,0-0.3l1.6,0.2l-0.1,0.6
	c0,0.3-0.1,0.5-0.1,0.8l-0.2,1.4l-2.8-0.6l0.2-1.3c0.1-0.3,0.1-0.5,0.1-0.7l0.1-0.9l-1.4-0.2c0-0.3,0.1-0.6,0.1-0.9l1.4,0.1l0.1-1.7
	c0-0.3,0-0.6,0-1c0-0.1,0-0.2,0-0.3l2.9,0.1c0,0.1,0,0.2,0,0.3c0,0.4,0,0.7,0,1.1l-0.1,1.4l-1.6-0.1l0.1-1l0.7,0l0-0.4L92,52.1
	l-0.1,1.8l2.4,0.2l0.1-1.8c0-0.4,0-0.7,0-1.1c0-0.2,0-0.4,0-0.5l0-0.2l-3.7-0.1l0,0.2c0,0.2,0,0.4,0,0.5c0,0.3,0,0.6,0,1l-0.1,1.3
	l-1-0.1c0.1-1.1,0.2-2.2,0.2-3.4l-0.4,0c0,4.8-0.9,9.5-2.6,13.9l0,0c-1.6,4.2-3.9,8.1-6.9,11.6l0,0c-3,3.4-6.5,6.3-10.4,8.6l0,0
	c-1.9,1.1-3.9,2-5.8,2.7c-2.2,0.8-4.5,1.4-6.9,1.8l0,0c-4.4,0.8-9,0.8-13.5,0l0,0c-4.5-0.8-8.7-2.3-12.7-4.6l-0.2,0.4
	c0.1,0.1,0.3,0.2,0.4,0.2L28,89.4c-0.2-0.1-0.3-0.2-0.5-0.3l-0.2,0.4c4.8,2.8,10.1,4.6,15.6,5.5l0,0c2.4,0.4,4.8,0.6,7.2,0.6
	c2.9,0,5.7-0.3,8.5-0.8l0,0c2.5-0.5,4.9-1.1,7.2-2c2.5-0.9,5.1-2.1,7.5-3.5l0,0c4.6-2.7,8.6-6.1,12-10.2l0,0
	C88.6,75,91.3,70.4,93.1,65.4L93.1,65.4z M85.1,78.6l-2-1.6l0.6-0.8c0.2,0.1,0.3,0.1,0.5,0.1c0.1,0,0.2,0,0.2,0
	c0.3,0,0.5-0.2,0.7-0.4l1.3,1C86,77.5,85.5,78,85.1,78.6z M83.8,75.8c-0.2-0.1-0.2-0.3-0.3-0.5c0-0.2,0.1-0.4,0.2-0.6
	c0.3-0.4,0.8-0.5,1.1-0.3c0.1,0.1,0.2,0.3,0.3,0.4c0,0.2,0,0.5-0.2,0.7c-0.1,0.2-0.3,0.3-0.6,0.4C84.1,75.9,83.9,75.9,83.8,75.8z
	 M84.8,73.9c-0.4-0.2-1-0.1-1.4,0.3l-1.3-1c0.4-0.5,0.7-1,1.1-1.5l2.2,1.4l-0.3,0.4L84.8,73.9z M83.2,74.6c-0.1,0.2-0.2,0.5-0.2,0.7
	c0,0.3,0.1,0.5,0.3,0.7l-0.6,0.7l-2-1.7c0.4-0.5,0.8-1,1.1-1.5L83.2,74.6z M85.3,75.6c0.1-0.3,0.2-0.6,0.1-0.8
	c0-0.2-0.1-0.4-0.3-0.6l0.3-0.4l0.3-0.4l2.2,1.4c-0.4,0.6-0.8,1.2-1.2,1.8L85.3,75.6z M83.4,71.4c0.7-1.1,1.3-2.2,1.9-3.3l0.9,0.5
	l-0.4,0.8l-1,1.8L88,73l1.1-1.9l0.6-1.3l-2.2-1.1l-0.1,0.2c-0.1,0.2-0.2,0.3-0.2,0.5c-0.1,0.3-0.3,0.6-0.4,0.8l-0.1,0.2l0.9,0.5
	l0.2-0.4l-0.6-0.3c0.1-0.2,0.2-0.4,0.3-0.7c0-0.1,0.1-0.2,0.1-0.3l1.4,0.7l-0.5,0.9l-0.9,1.6L85.4,71l0.8-1.4l0.6-1.2l-1.3-0.6
	c0.1-0.3,0.3-0.5,0.4-0.8l1.3,0.6l0.7-1.6l0.5-1.2l2.7,1L90.6,67L90,68.3l-1.4-0.7l0.4-1l0.6,0.3l0.2-0.4l-1-0.4l-0.8,1.7l2.2,1
	l0.8-1.7l0.7-1.7l-3.5-1.3l-0.6,1.6L87,66.9l-0.9-0.4c0.4-1,0.9-1.9,1.2-2.9l5.3,1.9c-0.1,0.2-0.1,0.4-0.2,0.5l0,0
	c-1.1,3-2.6,5.8-4.3,8.4L83.4,71.4z M90.2,63.2l-0.3,0.9l-2.4-0.9c0.2-0.6,0.4-1.2,0.6-1.8l1.6,0.5C89.6,62.4,89.8,62.9,90.2,63.2z
	 M91.1,61.2c0.2,0,0.3,0.2,0.4,0.3c0.1,0.2,0.1,0.5,0.1,0.7c-0.1,0.2-0.2,0.4-0.4,0.5c-0.2,0.1-0.4,0.1-0.5,0.1
	c-0.4-0.1-0.6-0.6-0.5-1C90.2,61.4,90.6,61.1,91.1,61.2z M91.9,62.6l1.6,0.5c-0.2,0.7-0.4,1.4-0.7,2.1l-2.4-0.9l0.3-0.9
	c0,0,0.1,0,0.1,0c0.2,0,0.4,0,0.5-0.1C91.5,63,91.7,62.8,91.9,62.6z M93.5,62.6L92,62.2c0-0.3,0-0.6-0.1-0.8
	c-0.1-0.2-0.3-0.3-0.5-0.4c0.1-0.3,0.1-0.5,0.2-0.8c0,0,0-0.1,0-0.1l2.5,0.6C93.9,61.2,93.8,61.9,93.5,62.6z M91.2,59.9
	c0,0,0,0.1,0,0.1c-0.1,0.3-0.1,0.5-0.2,0.8c-0.5,0-1,0.3-1.2,0.7L88.2,61c0.2-0.6,0.3-1.2,0.5-1.8L91.2,59.9z M74.5,85.2
	c0,0.2-0.2,0.5-0.4,0.6c-0.2,0.1-0.5,0.2-0.7,0.1c-0.2,0-0.3-0.1-0.4-0.3l0,0c-0.2-0.3-0.1-0.8,0.3-1.1c0.2-0.1,0.3-0.2,0.5-0.2
	c0.2,0,0.5,0.1,0.6,0.3C74.5,84.8,74.6,85,74.5,85.2z M72.5,85.6c-0.1,0-0.1,0.1-0.2,0.1c-0.2,0.1-0.4,0.3-0.6,0.4l-1.3-2.2
	c0.5-0.3,1.1-0.6,1.6-1l0.9,1.4C72.5,84.7,72.4,85.2,72.5,85.6z M72.6,86.1c0.1,0,0.1-0.1,0.2-0.1c0.1,0.2,0.3,0.3,0.6,0.3
	c0.1,0,0.2,0,0.3,0c0.2,0,0.4,0,0.6-0.1l0.9,1.4c-0.6,0.4-1.2,0.8-1.8,1.2l-1.3-2.2C72.2,86.4,72.4,86.3,72.6,86.1z M74.5,86
	c0.2-0.2,0.4-0.5,0.4-0.7c0-0.2,0-0.4-0.1-0.6l0.4-0.3c0.1-0.1,0.3-0.2,0.4-0.3l1.6,2.1c-0.6,0.4-1.2,0.9-1.8,1.3L74.5,86z M75,84
	l-0.4,0.3c-0.4-0.3-0.9-0.4-1.4-0.2l-0.9-1.4c0.5-0.3,1-0.7,1.5-1.1l1.6,2.1C75.3,83.8,75.2,83.9,75,84z M60.5,91.8
	c-0.3,0.1-0.5,0-0.7-0.1c-0.2-0.1-0.3-0.3-0.3-0.4c-0.1-0.4,0.2-0.8,0.7-0.9c0.5-0.1,0.9,0.1,1,0.5c0,0.2,0,0.4-0.1,0.5
	C61,91.6,60.8,91.7,60.5,91.8z M59.1,91.1L59.1,91.1c-0.3,0.1-0.6,0.1-0.9,0.2l-0.5-2.5c0.6-0.1,1.2-0.2,1.8-0.4l0.4,1.6
	C59.4,90.2,59.1,90.6,59.1,91.1z M59.1,91.5L59.1,91.5c0.1,0.2,0.3,0.4,0.4,0.5c0.2,0.1,0.5,0.2,0.7,0.2c0,0,0.1,0,0.1,0l0.4,1.6
	c-0.7,0.2-1.4,0.3-2.1,0.5l-0.5-2.5C58.5,91.7,58.8,91.6,59.1,91.5z M60.8,92.1c0.3-0.1,0.5-0.3,0.6-0.5c0.1-0.2,0.2-0.4,0.2-0.7
	c0.1,0,0.2-0.1,0.3-0.1c0.2-0.1,0.4-0.1,0.7-0.2l0.8,2.5c-0.7,0.2-1.4,0.4-2.1,0.6L60.8,92.1z M61.8,90.5c-0.1,0-0.2,0.1-0.3,0.1
	c-0.2-0.4-0.7-0.7-1.2-0.6l-0.4-1.6c0.6-0.2,1.2-0.3,1.8-0.5l0.8,2.5C62.2,90.3,62,90.4,61.8,90.5z M42.2,94.4L42.2,94.4
	C39,93.9,36,93,33,91.8l2.1-5.2c1.2,0.5,2.4,0.9,3.6,1.3l-0.3,1c-0.4-0.1-0.8-0.2-1.2-0.4L35.7,88l-1.3,3.5l0.2,0.1
	c0.3,0.1,0.7,0.2,1,0.4l0.5,0.2c0.5,0.2,1,0.3,1.5,0.5l0.3,0.1l0.7-2.3l-0.5-0.1c-0.4-0.1-0.8-0.2-1.1-0.3l-0.2-0.1l-0.3,1l0.4,0.1
	l0.2-0.6c0.3,0.1,0.6,0.2,0.9,0.3l0.1,0L37.6,92c-0.4-0.1-0.9-0.3-1.3-0.4l-0.5-0.2c-0.3-0.1-0.6-0.2-0.8-0.3l1-2.7l1.2,0.4
	c0.4,0.2,0.9,0.3,1.3,0.4l0.3,0.1l0.4-1.4c0.3,0.1,0.6,0.2,0.9,0.2l-0.3,1.4l1.7,0.4c0.3,0.1,0.6,0.1,1,0.2c0.1,0,0.2,0,0.3,0.1
	l-0.5,2.8c-0.1,0-0.2,0-0.3-0.1c-0.3-0.1-0.7-0.1-1-0.2l-1.4-0.3l0.4-1.5l1,0.2l-0.1,0.6l0.4,0.1l0.2-1l-1.8-0.4l-0.6,2.3l1.8,0.4
	c0.3,0.1,0.7,0.1,1,0.2c0.2,0,0.4,0.1,0.5,0.1l0.2,0l0.6-3.6l-0.2,0c-0.2,0-0.4-0.1-0.5-0.1c-0.3-0.1-0.6-0.1-0.9-0.2l-1.3-0.3
	l0.2-1c1,0.3,2.1,0.5,3.1,0.6l-0.9,5.5C42.5,94.5,42.3,94.4,42.2,94.4z M33.8,88.9c-0.3-0.1-0.6-0.2-0.9-0.4c0.1-0.5-0.1-1-0.5-1.3
	l0.7-1.5c0.6,0.3,1.1,0.5,1.7,0.8L33.8,88.9z M32,87.5c0.4,0.2,0.6,0.7,0.5,1c-0.1,0.2-0.2,0.3-0.4,0.4c-0.2,0.1-0.5,0.1-0.7,0
	c-0.2-0.1-0.4-0.3-0.5-0.5c-0.1-0.2-0.1-0.4,0-0.5c0.1-0.2,0.4-0.4,0.7-0.4C31.7,87.4,31.9,87.4,32,87.5z M31.4,89.3
	c0.1,0,0.3,0.1,0.4,0.1c0.2,0,0.3,0,0.5-0.1c0.2-0.1,0.4-0.2,0.5-0.4c0.3,0.1,0.6,0.3,0.9,0.4l-1,2.4c-0.7-0.3-1.3-0.6-2-0.9
	L31.4,89.3z M45.7,92.8c-0.3,0-0.5-0.1-0.6-0.3c-0.1-0.2-0.2-0.3-0.2-0.5c0-0.4,0.4-0.6,0.8-0.6c0,0,0.1,0,0.1,0
	c0.5,0,0.8,0.4,0.8,0.8c0,0.2-0.1,0.3-0.2,0.5C46.2,92.8,46,92.9,45.7,92.8z M45.7,90.9c-0.5,0-1,0.3-1.1,0.8l-1-0.1l0.4-2.6
	c0.6,0.1,1.2,0.2,1.8,0.2L45.7,90.9z M43.5,92l1,0.1c0,0.2,0.1,0.4,0.2,0.6c0.2,0.2,0.4,0.4,0.7,0.4l-0.2,1.6
	c-0.7-0.1-1.4-0.2-2.2-0.3L43.5,92z M45.9,93.3c0.3,0,0.6-0.1,0.8-0.3c0.2-0.1,0.3-0.3,0.3-0.5c0.1,0,0.1,0,0.2,0c0.3,0,0.5,0,0.8,0
	L47.9,95c-0.7,0-1.4-0.1-2.2-0.2L45.9,93.3z M48,92.1c-0.3,0-0.5,0-0.8,0c-0.1,0-0.1,0-0.2,0c-0.1-0.5-0.4-0.9-0.9-1l0.2-1.6
	c0.6,0.1,1.2,0.1,1.9,0.1L48,92.1z M32.7,85.6L32,87.1c-0.5-0.2-1,0-1.3,0.4l-0.2-0.1c-0.2-0.1-0.4-0.2-0.6-0.3l1.3-2.3
	C31.6,85,32.2,85.3,32.7,85.6z M29.6,87.3c0.2,0.1,0.4,0.2,0.6,0.3l0.2,0.1c-0.1,0.2-0.1,0.4,0,0.7c0.1,0.3,0.3,0.5,0.5,0.7
	l-0.7,1.5c-0.7-0.3-1.3-0.6-1.9-1L29.6,87.3z M48.3,95.1l0.2-5.6c0.5,0,1,0,1.5,0c0.8,0,1.5,0,2.3-0.1l0.1,1c-0.4,0-0.7,0-1.1,0
	l-1,0c-0.2,0-0.5,0-0.7,0l-0.2,0l0,3.7l0.2,0c0.1,0,0.2,0,0.3,0c0.2,0,0.3,0,0.5,0l1,0c0.5,0,1,0,1.5-0.1l0.2,0l-0.2-2.4l-0.2,0
	c-0.1,0-0.2,0-0.3,0c-0.2,0-0.3,0-0.5,0l-0.9,0l0,1.1l0.4,0l0-0.6l0.5,0c0.2,0,0.3,0,0.5,0c0,0,0,0,0,0l0.1,1.6c-0.4,0-0.8,0-1.2,0
	l-1,0c-0.2,0-0.4,0-0.5,0l0-2.9c0.2,0,0.3,0,0.5,0l1,0c0.4,0,0.9,0,1.3-0.1l0.2,0l-0.1-1.4c0.3,0,0.6,0,0.9-0.1l0.1,1.4l0.2,0
	c0.3,0,0.7-0.1,1-0.1c0.2,0,0.3,0,0.5-0.1l0.3,0c0.2,0,0.3,0,0.5-0.1l0.5-0.1l0.5,2.8l-0.6,0.1c-0.2,0-0.3,0-0.5,0.1l-0.3,0
	c-0.2,0-0.3,0-0.5,0.1c-0.3,0-0.6,0.1-0.9,0.1L54.4,92c0.2,0,0.5-0.1,0.7-0.1c0.1,0,0.2,0,0.3,0l0.1,0.6l0.4-0.1l-0.1-1l-0.2,0
	c-0.2,0-0.3,0-0.5,0.1c-0.3,0-0.6,0.1-0.9,0.1l-0.2,0l0.2,2.4l0.2,0c0.4,0,0.7-0.1,1.1-0.1c0.2,0,0.3,0,0.5-0.1l0.3,0
	c0.2,0,0.4,0,0.5-0.1l1-0.2l-0.6-3.6l-0.9,0.2c-0.2,0-0.3,0-0.5,0.1l-0.3,0c-0.2,0-0.3,0-0.5,0.1c-0.2,0-0.5,0.1-0.8,0.1l-0.1-1
	c1.1-0.1,2.1-0.3,3.2-0.5l1,5.5c-0.2,0-0.4,0.1-0.6,0.1l0,0C54.6,95,51.5,95.2,48.3,95.1z M65.7,92.3c-0.6,0.2-1.3,0.5-2,0.7
	l-1.7-5.3c0.6-0.2,1.1-0.4,1.7-0.6c0.6-0.2,1.3-0.5,1.9-0.8l0.4,0.9c-0.3,0.1-0.5,0.2-0.8,0.3c-0.1,0.1-0.3,0.1-0.4,0.2l-0.3,0.1
	c-0.4,0.1-0.7,0.3-1.1,0.4l-0.2,0.1l1.2,3.5l0.2-0.1c0.4-0.1,0.8-0.3,1.2-0.4l0.3-0.1c0.1-0.1,0.3-0.1,0.4-0.2
	c0.4-0.1,0.7-0.3,1.1-0.4l0.2-0.1l-1-2.2l-0.2,0.1c-0.3,0.1-0.6,0.3-1,0.4c-0.1,0-0.2,0.1-0.4,0.1L65.2,89l0.4,1l0.4-0.2l-0.2-0.6
	c0.1,0,0.1,0,0.2-0.1c0.3-0.1,0.5-0.2,0.8-0.3l0.6,1.5c-0.3,0.1-0.6,0.2-0.9,0.3c-0.1,0.1-0.3,0.1-0.4,0.2l-0.3,0.1
	c-0.3,0.1-0.7,0.3-1,0.4l-1-2.7c0.3-0.1,0.6-0.2,0.9-0.3l0.3-0.1c0.1-0.1,0.3-0.1,0.4-0.2c0.3-0.1,0.7-0.3,1-0.4l0.2-0.1L66,86.2
	c0.3-0.1,0.6-0.2,0.8-0.4l0.6,1.3l0.2-0.1c0.3-0.1,0.6-0.3,0.9-0.4c0.2-0.1,0.3-0.2,0.5-0.2c0.1,0,0.2-0.1,0.2-0.1
	c0.1-0.1,0.3-0.1,0.4-0.2l0.5-0.3l1.4,2.5l-0.5,0.3c-0.1,0.1-0.3,0.2-0.5,0.2c-0.1,0-0.2,0.1-0.2,0.1c-0.2,0.1-0.3,0.2-0.5,0.2
	c-0.3,0.1-0.5,0.3-0.8,0.4l-0.7-1.4c0.2-0.1,0.4-0.2,0.7-0.3c0.1,0,0.2-0.1,0.3-0.1l0.3,0.6L70,88L69.6,87l-0.2,0.1
	c-0.2,0.1-0.3,0.2-0.5,0.2c-0.3,0.1-0.6,0.3-0.8,0.4l-0.2,0.1l1,2.2l0.2-0.1c0.3-0.2,0.6-0.3,1-0.5c0.2-0.1,0.3-0.2,0.5-0.2
	c0.1,0,0.2-0.1,0.2-0.1c0.2-0.1,0.3-0.2,0.5-0.2l0.9-0.5l-1.8-3.2l-0.8,0.5c-0.1,0.1-0.3,0.1-0.4,0.2c-0.1,0-0.2,0.1-0.2,0.1
	c-0.2,0.1-0.3,0.2-0.5,0.2c-0.2,0.1-0.4,0.2-0.7,0.3l-0.4-0.9c0.9-0.5,1.9-1,2.8-1.5l2.8,4.8c-0.2,0.1-0.3,0.2-0.5,0.3l0,0
	C70.2,90.5,68,91.5,65.7,92.3z M77.5,85.8l-3.4-4.4c1-0.8,2-1.6,2.9-2.5l0.7,0.7L77.4,80l-0.6,0.5c-0.1,0.1-0.3,0.2-0.4,0.3
	c-0.2,0.2-0.5,0.4-0.7,0.6l-0.2,0.1l2.3,2.9l0.2-0.1c0.3-0.2,0.5-0.5,0.8-0.7c0.1-0.1,0.3-0.2,0.4-0.4l0.6-0.5l0.7-0.7L79,80.3
	l-0.7,0.6c-0.1,0.1-0.2,0.2-0.4,0.3l-0.3,0.3l0.7,0.8l0.3-0.3l-0.4-0.5l0,0c0.1-0.1,0.2-0.2,0.4-0.3l0.4-0.4L80,82l-0.4,0.4L79,83
	c-0.1,0.1-0.3,0.2-0.4,0.4c-0.2,0.2-0.4,0.4-0.6,0.5l-1.8-2.2c0.2-0.2,0.4-0.3,0.6-0.5c0.1-0.1,0.3-0.2,0.4-0.3l0.6-0.5l0.7-0.7
	l-1-1c0.2-0.2,0.4-0.4,0.7-0.6l1,1l1.2-1.2c0.2-0.2,0.4-0.5,0.7-0.7c0.1-0.1,0.1-0.2,0.2-0.2l2.2,1.9c-0.1,0.1-0.2,0.2-0.2,0.3
	c-0.2,0.3-0.5,0.5-0.7,0.8l-1,1l-1.1-1.1l0.7-0.8l0.5,0.4l0.3-0.3L81,78.3l-1.3,1.3l1.7,1.7l1.3-1.3c0.2-0.3,0.5-0.5,0.7-0.8
	c0.1-0.1,0.2-0.3,0.4-0.4l0.1-0.2l-2.8-2.4L81,76.4c-0.1,0.1-0.2,0.3-0.4,0.4c-0.2,0.2-0.4,0.5-0.6,0.7l-0.9,0.9l-0.7-0.7
	c0.7-0.8,1.5-1.5,2.1-2.4l4.3,3.6c-0.1,0.1-0.2,0.3-0.4,0.4l0,0C82.4,81.8,80.1,83.9,77.5,85.8z M88.1,50l0.4,0l0-0.2
	c0-2.9-0.4-5.8-1-8.6l0,0l-0.1-0.3c0,0,0,0,0-0.1h0l-0.1-0.4l-0.5-1.6c-0.1-0.2-0.1-0.5-0.2-0.7c0-0.1-0.1-0.3-0.1-0.4
	c0-0.1-0.1-0.3-0.1-0.4c-0.1-0.2-0.2-0.5-0.2-0.7c-0.5-1.2-1.1-2.7-1.8-4.1l0,0c-1.3-2.6-2.9-5-4.7-7.1l0,0l-0.1-0.2
	c0,0,0-0.1-0.1-0.1c0,0,0,0,0,0l0,0c-1.9-2.2-4-4.2-6.2-5.9l0,0L73,19.2c-2.3-1.7-4.9-3.2-7.5-4.3l0,0l-0.1-0.1
	c-0.1,0-0.1,0-0.2-0.1l0,0c-2.5-1.1-5.3-1.9-8.2-2.5l0,0l-0.2,0c0,0,0,0,0,0c0,0-0.1,0-0.1,0l0,0c-2.9-0.5-5.8-0.7-8.5-0.5l0,0
	l-0.2,0c-2.9,0.2-5.8,0.7-8.5,1.4l0,0l-0.2,0.1c0,0,0,0,0,0c0,0-0.1,0-0.1,0l0,0c-2.8,0.8-5.5,2-8.1,3.5l0.2,0.3l-0.2-0.3l-0.2,0.1
	C28.3,18.3,26,20,23.8,22l0,0l-0.1,0.1c-0.1,0.1-0.2,0.2-0.3,0.3c-0.2,0.2-0.4,0.3-0.5,0.5l-1.2,1.2l-1.1,1.3
	c-0.2,0.2-0.3,0.4-0.4,0.6c-0.1,0.1-0.2,0.2-0.3,0.3c-0.1,0.1-0.2,0.2-0.2,0.3c-0.2,0.2-0.3,0.4-0.4,0.6c-0.1,0.2-0.3,0.4-0.4,0.6
	c-0.3,0.4-0.6,0.8-0.9,1.3l-0.6,0.9c-0.1,0.2-0.3,0.4-0.4,0.6c-0.1,0.1-0.1,0.2-0.2,0.4c-0.1,0.1-0.1,0.2-0.2,0.3
	c-0.1,0.2-0.2,0.4-0.4,0.6l-0.5,1c0,0.1-0.1,0.1-0.1,0.2c-0.1,0.1-0.1,0.2-0.2,0.3l-0.7,1.5c-0.1,0.2-0.2,0.4-0.3,0.7
	c-0.1,0.1-0.1,0.3-0.2,0.4c0,0.1-0.1,0.2-0.1,0.4c-0.1,0.1-0.1,0.3-0.2,0.4l0,0.1c-1,2.7-1.7,5.5-2,8.4l0,0l0,0.2l0,0
	c0,0,0,0.1,0,0.1l0,0c-0.3,2.8-0.3,5.7,0,8.5l0,0l0,0.2c0,0,0,0.1,0,0.1c0,0,0,0,0,0l0,0c0.3,2.8,1,5.6,1.9,8.3l0,0l0.1,0.2
	c0,0,0,0,0,0c0,0,0,0.1,0,0.1l0,0c1,2.6,2.3,5.2,3.8,7.6l0,0l0.1,0.2c0,0,0,0,0,0c0,0,0,0.1,0.1,0.1l0,0c1.5,2.3,3.3,4.5,5.5,6.5
	l0,0l0.1,0.1c0,0,0,0,0,0c0,0,0,0,0,0l0,0c1.1,1,2.2,2,3.3,2.8c1.2,0.8,2.4,1.7,3.8,2.5l0,0l0.2,0.1c1.3,0.8,2.7,1.4,4,2l1,0.4
	c0.1,0,0.2,0.1,0.3,0.1c0.2,0.1,0.5,0.2,0.7,0.3c0.2,0.1,0.4,0.1,0.6,0.2c0.5,0.2,1,0.3,1.5,0.5l0,0c2.7,0.8,5.6,1.3,8.4,1.5l0,0
	l0.1,0c0.1,0,0.1,0,0.2,0l0,0c0.6,0,1.3,0.1,1.9,0.1c2.2,0,4.4-0.2,6.6-0.6l0,0l0.2,0c0,0,0,0,0,0c0,0,0.1,0,0.1,0l0,0
	c2.9-0.5,5.7-1.3,8.2-2.4l0,0l0.2-0.1c0,0,0.1,0,0.1,0c0,0,0,0,0,0l0,0c2.6-1.2,5.1-2.6,7.4-4.2l0,0l0.2-0.1c0,0,0.1,0,0.1-0.1
	c0,0,0,0,0,0l0,0c2.4-1.8,4.5-3.8,6.4-6.1l0,0c0.1-0.2,0.3-0.3,0.4-0.5c0.1-0.1,0.1-0.2,0.2-0.3l0.7-0.9l1-1.4
	c0.1-0.1,0.1-0.2,0.2-0.3c0-0.1,0.1-0.1,0.1-0.2l0.6-0.9c0.1-0.2,0.3-0.4,0.4-0.6c0.1-0.1,0.1-0.2,0.2-0.4c0.1-0.1,0.1-0.2,0.2-0.3
	c0.1-0.2,0.2-0.4,0.4-0.6l0.5-1l0,0c0.2-0.4,0.4-0.9,0.6-1.3c0.1-0.2,0.2-0.4,0.3-0.6c0.1-0.2,0.2-0.5,0.3-0.7
	c0-0.1,0.1-0.2,0.1-0.3c0.1-0.1,0.1-0.3,0.2-0.4c0.1-0.2,0.2-0.4,0.3-0.7c0.4-1.2,0.9-2.6,1.2-4h0l0-0.2c0,0,0,0,0,0
	c0,0,0-0.1,0-0.1l0,0c0.7-2.9,1-5.8,1-8.8L88.1,50z M88,51.4l-0.8,0c0-0.5,0-1,0-1.4l0.8,0C88,50.5,88,51,88,51.4z M85.8,58.5
	c-0.3,1.4-0.8,2.9-1.2,4c-0.1,0.2-0.2,0.4-0.2,0.6c-0.1,0.1-0.1,0.3-0.2,0.4c0,0.1-0.1,0.2-0.1,0.3c-0.1,0.2-0.2,0.4-0.3,0.7
	c-0.1,0.2-0.2,0.4-0.3,0.6c-0.2,0.4-0.4,0.9-0.6,1.3l-0.1,0.2l0,0l-0.3,0.7c-0.1,0.2-0.2,0.4-0.3,0.6c-0.1,0.1-0.1,0.2-0.2,0.3
	c-0.1,0.1-0.1,0.2-0.2,0.3c-0.1,0.2-0.2,0.4-0.4,0.6l-0.6,0.9c0,0.1-0.1,0.1-0.1,0.2c-0.1,0.1-0.1,0.2-0.2,0.3l-0.9,1.3l-0.7,0.8
	c-0.1,0.1-0.1,0.2-0.2,0.3c-0.2,0.2-0.3,0.4-0.5,0.6L78,73.7l0,0c-1.8,2.1-3.8,4-6,5.6c-2.2,1.7-4.7,3.1-7.3,4.2
	c-2.5,1.1-5.3,1.9-8.2,2.5c-2.9,0.5-5.7,0.7-8.5,0.5l-0.1,0c-2.8-0.2-5.6-0.7-8.3-1.4L39.4,85l0,0c-0.4-0.1-0.8-0.2-1.1-0.4
	c-0.2-0.1-0.4-0.1-0.6-0.2c-0.2-0.1-0.5-0.2-0.7-0.3c-0.1,0-0.2-0.1-0.3-0.1l-1-0.4c-1.3-0.6-2.6-1.2-3.9-1.9l-0.2-0.1l0,0
	c-1.3-0.7-2.5-1.6-3.6-2.4c-1.1-0.8-2.2-1.7-3.3-2.8c-2.2-2.1-4-4.2-5.5-6.5c-1.6-2.4-2.8-4.9-3.8-7.5c-0.9-2.6-1.6-5.4-1.9-8.2
	c-0.3-2.9-0.3-5.8,0-8.6l0,0c0.3-2.8,1-5.5,1.9-8.1l0,0c0-0.1,0-0.1,0.1-0.2l0-0.1l0,0c0-0.1,0.1-0.2,0.1-0.3c0-0.1,0.1-0.2,0.1-0.4
	c0.1-0.1,0.1-0.3,0.2-0.4c0.1-0.2,0.2-0.4,0.2-0.6l0.7-1.5c0-0.1,0.1-0.2,0.2-0.3c0-0.1,0.1-0.1,0.1-0.2l0.5-1
	c0.1-0.2,0.2-0.4,0.3-0.6c0.1-0.1,0.1-0.2,0.2-0.3c0.1-0.1,0.1-0.2,0.2-0.3c0.1-0.2,0.2-0.4,0.3-0.6l0.7-1.1l0,0
	c0.2-0.3,0.4-0.6,0.7-1c0.1-0.2,0.3-0.4,0.4-0.6c0.1-0.2,0.3-0.4,0.4-0.5c0.1-0.1,0.2-0.2,0.2-0.3c0.1-0.1,0.2-0.2,0.3-0.3
	c0.1-0.2,0.3-0.4,0.4-0.5l1.1-1.2l1.1-1.2c0.2-0.2,0.3-0.3,0.5-0.5c0.1-0.1,0.1-0.1,0.2-0.2l0,0c2.1-2,4.5-3.8,6.9-5.2l0.2-0.1l0,0
	c2.6-1.5,5.2-2.6,7.9-3.4c2.7-0.8,5.5-1.3,8.3-1.4l0,0c2.8-0.2,5.7,0,8.6,0.5c2.9,0.5,5.7,1.3,8.2,2.4l0,0c2.5,1.1,5,2.5,7.2,4.2
	l0,0c2.2,1.6,4.3,3.6,6.2,5.8c1.8,2.1,3.4,4.5,4.7,7.1c0,0,0,0,0,0l0.1,0.2l0,0c0.6,1.2,1.1,2.5,1.6,3.6c0.1,0.2,0.1,0.4,0.2,0.6
	c0,0.1,0.1,0.3,0.1,0.4c0,0.1,0.1,0.3,0.1,0.4c0.1,0.2,0.1,0.4,0.2,0.6l0.4,1.6l0.1,0.4h0c0.7,2.8,1,5.7,1,8.5l0,0.2h0
	C86.8,52.8,86.4,55.7,85.8,58.5z M78.9,74.4c-0.2,0.3-0.5,0.6-0.8,0.9l-0.6-0.5c0.2-0.3,0.5-0.5,0.7-0.8L78.9,74.4z M70.8,80.6
	l0.5,0.7c-1.9,1.3-3.9,2.4-6,3.3l-0.3-0.7C67,82.9,68.9,81.9,70.8,80.6z M38.2,85c0.3,0.1,0.7,0.2,1.1,0.3L39,86.1
	c-0.4-0.1-0.7-0.2-1.1-0.4L38.2,85z M12.3,45.7l0.8,0.1c-0.3,2.2-0.3,4.4-0.1,6.6l-0.8,0.1C12,50.2,12.1,47.9,12.3,45.7z M15,37.5
	c-0.7,2.1-1.3,4.2-1.7,6.4l-0.8-0.1c0.4-2.2,0.9-4.4,1.7-6.6L15,37.5z M33.1,16.9l-0.4-0.7c2.1-1.1,4.2-1.9,6.3-2.5l0.2,0.8
	C37.2,15.1,35.2,15.9,33.1,16.9z M83.3,33.4l0.7-0.4c0.2,0.3,0.3,0.7,0.5,1l-0.7,0.3C83.6,34.1,83.5,33.8,83.3,33.4z M87.1,51.8
	l0.8,0c-0.1,2.3-0.4,4.5-1,6.7l-0.8-0.2C86.7,56.2,87,54,87.1,51.8z M87.2,49.6c0-2.2-0.2-4.4-0.7-6.6l0.8-0.2
	c0.4,2.2,0.7,4.5,0.7,6.8L87.2,49.6z M87.2,42.4l-0.8,0.2c-0.1-0.4-0.2-0.7-0.2-1.1l0.8-0.2C87.1,41.7,87.2,42,87.2,42.4z
	 M85.9,37.5c0,0.1,0.1,0.3,0.1,0.4c0,0.1,0.1,0.3,0.1,0.4c0.1,0.2,0.2,0.4,0.2,0.7l0.5,1.6l0.1,0.3l-0.8,0.2L86,40.7l-0.4-1.6
	c-0.1-0.2-0.1-0.5-0.2-0.7c0-0.1-0.1-0.2-0.1-0.4c0-0.1-0.1-0.3-0.1-0.4c-0.1-0.2-0.1-0.4-0.2-0.7c-0.3-0.7-0.6-1.5-1-2.3l0.7-0.3
	c0.4,0.8,0.7,1.6,1,2.4C85.8,37.1,85.8,37.3,85.9,37.5z M83.1,33.1c-1-2-2.2-3.9-3.6-5.6l0.6-0.5c1.4,1.8,2.6,3.7,3.6,5.7L83.1,33.1
	z M80,26.6l-0.6,0.5c-0.2-0.3-0.5-0.6-0.7-0.9l0.6-0.5C79.5,26,79.7,26.3,80,26.6z M79,25.4l-0.6,0.5c-1.5-1.7-3.1-3.3-4.8-4.7
	l0.5-0.6C75.8,22.1,77.5,23.7,79,25.4z M73.8,20.4L73.3,21c-0.3-0.2-0.6-0.5-0.9-0.7l0.5-0.7C73.2,19.9,73.5,20.2,73.8,20.4z
	 M72.1,20.1c-1.8-1.3-3.7-2.5-5.7-3.4l0.4-0.7c2,1,4,2.2,5.8,3.5L72.1,20.1z M66.3,15.7L66,16.5c-0.3-0.2-0.7-0.3-1-0.5l0.3-0.7
	C65.7,15.4,66,15.6,66.3,15.7z M64.6,15.8c-2-0.9-4.1-1.5-6.3-2l0.2-0.8c2.3,0.5,4.5,1.2,6.5,2.1L64.6,15.8z M58,12.9l-0.2,0.8
	c-0.4-0.1-0.7-0.1-1.1-0.2l0.1-0.8C57.3,12.8,57.7,12.9,58,12.9z M56.5,12.6l-0.1,0.8c-2.2-0.4-4.5-0.6-6.6-0.5l0-0.8
	C51.9,12.1,54.2,12.2,56.5,12.6z M49.3,12.1l0,0.8c-0.4,0-0.7,0-1.1,0l0-0.8C48.5,12.1,48.9,12.1,49.3,12.1z M47.8,13
	c-2.2,0.1-4.4,0.5-6.6,1L41,13.2c2.2-0.5,4.5-0.9,6.7-1L47.8,13z M40.6,13.3l0.2,0.8c-0.4,0.1-0.7,0.2-1.1,0.3l-0.2-0.8
	C39.9,13.5,40.2,13.4,40.6,13.3z M32.4,16.4l0.4,0.7c-0.4,0.2-0.8,0.4-1.3,0.7l-0.4-0.7C31.5,16.9,32,16.6,32.4,16.4z M30.8,17.3
	l0.4,0.7c-1.9,1.1-3.7,2.4-5.4,3.9l-0.5-0.6C27,19.8,28.8,18.4,30.8,17.3z M24.9,21.6l0.5,0.6c-0.3,0.2-0.6,0.5-0.8,0.7l-0.6-0.6
	C24.3,22.1,24.6,21.8,24.9,21.6z M19.9,26.9c0.1-0.1,0.2-0.2,0.2-0.3c0.1-0.1,0.2-0.2,0.3-0.3c0.1-0.2,0.3-0.4,0.4-0.5l1.1-1.3
	l1.2-1.2c0.2-0.2,0.3-0.3,0.5-0.5c0,0,0.1-0.1,0.1-0.1l0.6,0.6c0,0-0.1,0.1-0.1,0.1c-0.2,0.2-0.3,0.3-0.5,0.5L22.6,25l-1.1,1.2
	c-0.1,0.2-0.3,0.4-0.4,0.5c-0.1,0.1-0.2,0.2-0.3,0.3c-0.1,0.1-0.2,0.2-0.2,0.3c-0.1,0.2-0.3,0.4-0.4,0.6c-0.1,0.1-0.1,0.2-0.2,0.3
	l-0.7-0.5c0.1-0.1,0.1-0.2,0.2-0.3C19.6,27.2,19.8,27.1,19.9,26.9z M19,28.1l0.7,0.5c-0.2,0.3-0.4,0.6-0.6,0.9L18.4,29
	C18.6,28.7,18.8,28.4,19,28.1z M15.8,33.5c0-0.1,0.1-0.2,0.2-0.3c0-0.1,0.1-0.1,0.1-0.2l0.5-1c0.1-0.2,0.2-0.4,0.3-0.6
	c0.1-0.1,0.1-0.2,0.2-0.3c0.1-0.1,0.1-0.2,0.2-0.4c0.1-0.2,0.2-0.4,0.4-0.6l0.5-0.8l0.7,0.4l-0.5,0.7c-0.1,0.2-0.2,0.4-0.4,0.6
	c-0.1,0.1-0.1,0.2-0.2,0.3c-0.1,0.1-0.1,0.2-0.2,0.3c-0.1,0.2-0.2,0.4-0.3,0.6l-0.5,1c0,0.1-0.1,0.1-0.1,0.2
	c-0.1,0.1-0.1,0.2-0.2,0.3l-0.7,1.5c0,0.1-0.1,0.2-0.1,0.3L15,35.4c0-0.1,0.1-0.2,0.1-0.3L15.8,33.5z M14.6,36.4
	c0.1-0.1,0.1-0.2,0.1-0.4c0-0.1,0.1-0.2,0.1-0.3l0.8,0.3c0,0.1-0.1,0.2-0.1,0.3c0,0.1-0.1,0.2-0.1,0.4c0,0.1-0.1,0.2-0.1,0.4
	l-0.8-0.3C14.5,36.7,14.5,36.6,14.6,36.4z M12.5,44.2l0.8,0.1c-0.1,0.4-0.1,0.7-0.2,1.1l-0.8-0.1C12.4,44.9,12.5,44.5,12.5,44.2z
	 M12.2,52.9l0.8-0.1c0,0.4,0.1,0.7,0.1,1.1l-0.8,0.1C12.3,53.7,12.2,53.3,12.2,52.9z M13.2,54.4c0.3,2.2,0.7,4.4,1.4,6.5l-0.8,0.2
	c-0.7-2.2-1.1-4.4-1.4-6.6L13.2,54.4z M13.9,61.5l0.8-0.2c0.1,0.4,0.2,0.7,0.4,1l-0.8,0.3C14.1,62.2,14,61.9,13.9,61.5z M15.2,62.7
	c0.8,2.1,1.7,4.1,2.9,6l-0.7,0.4c-1.2-2-2.2-4-2.9-6.1L15.2,62.7z M17.5,69.5l0.7-0.4c0.2,0.3,0.4,0.6,0.6,0.9l-0.7,0.4
	C17.9,70.1,17.7,69.8,17.5,69.5z M19,70.3c1.2,1.8,2.6,3.5,4.2,5.2l-0.6,0.6c-1.6-1.7-3.1-3.5-4.3-5.3L19,70.3z M22.9,76.4l0.6-0.6
	c0.3,0.3,0.5,0.5,0.8,0.8l-0.6,0.6C23.5,76.9,23.2,76.6,22.9,76.4z M24,77.5l0.6-0.6c1,1,2.1,1.9,3.2,2.7c0.7,0.5,1.4,1,2.1,1.4
	l-0.4,0.7c-0.7-0.5-1.4-1-2.1-1.5C26.2,79.4,25.1,78.5,24,77.5z M30.8,82.9l0.2-0.3c-0.4-0.2-0.8-0.5-1.3-0.8l0.4-0.7
	c0.4,0.3,0.8,0.5,1.2,0.7L30.8,82.9z M36.5,85.3c-0.1,0-0.2-0.1-0.3-0.1l-1-0.4c-1.2-0.5-2.5-1.2-3.8-1.9l0.4-0.7
	c1.2,0.7,2.5,1.3,3.7,1.8l1,0.4c0.1,0,0.2,0.1,0.3,0.1c0.2,0.1,0.5,0.2,0.7,0.3c0.1,0,0.2,0.1,0.3,0.1l-0.3,0.8
	c-0.1,0-0.2-0.1-0.3-0.1C37,85.5,36.7,85.4,36.5,85.3z M39.7,85.5c2.1,0.6,4.3,1,6.5,1.3l-0.1,0.8c-2.3-0.2-4.5-0.7-6.7-1.3
	L39.7,85.5z M46.5,87.6l0.1-0.8c0.4,0,0.7,0.1,1.1,0.1l0,0.8C47.3,87.6,46.9,87.6,46.5,87.6z M48.1,87.7l0-0.8
	c2.2,0.1,4.4,0,6.7-0.3l0.1,0.8C52.6,87.7,50.3,87.8,48.1,87.7z M55.3,87.4l-0.1-0.8c0.4-0.1,0.7-0.1,1.1-0.2l0.1,0.8
	C56.1,87.3,55.7,87.3,55.3,87.4z M56.7,86.3c2.2-0.4,4.4-1,6.4-1.8l0.3,0.8c-2.1,0.8-4.3,1.4-6.6,1.8L56.7,86.3z M63.8,85.2
	l-0.3-0.8c0.3-0.1,0.7-0.3,1-0.4l0.3,0.7C64.5,84.9,64.2,85,63.8,85.2z M71.6,81.1l-0.5-0.7c0.3-0.2,0.6-0.4,0.9-0.6l0.5,0.7
	C72.2,80.6,71.9,80.9,71.6,81.1z M72.8,80.2l-0.5-0.7c1.8-1.3,3.4-2.8,4.9-4.5l0.6,0.5C76.3,77.3,74.6,78.8,72.8,80.2z M82.9,68.8
	c-0.1,0.1-0.1,0.2-0.2,0.4c-0.1,0.2-0.2,0.4-0.4,0.6l-0.6,0.9c0,0.1-0.1,0.1-0.1,0.2c-0.1,0.1-0.1,0.2-0.2,0.3l-1,1.4l-0.7,0.9
	c-0.1,0.1-0.1,0.2-0.2,0.3c-0.1,0.1-0.2,0.3-0.4,0.4l-0.6-0.5c0.1-0.1,0.2-0.3,0.4-0.4c0.1-0.1,0.1-0.2,0.2-0.3l0.7-0.9l0.9-1.3
	c0.1-0.1,0.1-0.2,0.2-0.3c0-0.1,0.1-0.1,0.1-0.2l0.6-0.9c0.1-0.2,0.3-0.4,0.4-0.6c0.1-0.1,0.1-0.2,0.2-0.3c0.1-0.1,0.1-0.2,0.2-0.3
	l0.7,0.4C83,68.6,83,68.7,82.9,68.8z M83.5,67.9c-0.1,0.1-0.1,0.2-0.2,0.3l-0.7-0.4c0.1-0.1,0.1-0.2,0.2-0.3l0.3-0.7l0.7,0.4
	L83.5,67.9z M85.7,62.9c-0.1,0.2-0.2,0.4-0.3,0.6c-0.1,0.1-0.1,0.3-0.2,0.4c0,0.1-0.1,0.2-0.1,0.4c-0.1,0.2-0.2,0.5-0.3,0.7
	c-0.1,0.2-0.2,0.4-0.3,0.6c-0.2,0.4-0.4,0.8-0.6,1.2l-0.7-0.4c0.2-0.4,0.4-0.8,0.6-1.2c0.1-0.2,0.2-0.4,0.3-0.6
	c0.1-0.2,0.2-0.5,0.3-0.7c0-0.1,0.1-0.2,0.1-0.3c0.1-0.1,0.1-0.3,0.2-0.4c0.1-0.2,0.2-0.4,0.2-0.6c0.3-0.7,0.5-1.5,0.8-2.4l0.8,0.2
	C86.2,61.4,86,62.2,85.7,62.9z M86.6,60.1l-0.8-0.2c0.1-0.4,0.2-0.7,0.3-1.1l0.8,0.2C86.8,59.4,86.7,59.7,86.6,60.1z M22.9,78.9
	c0.9,0.9,1.9,1.7,2.9,2.5l-0.6,0.8l-1-0.8c-0.2-0.2-0.5-0.4-0.7-0.6c-0.1-0.1-0.3-0.2-0.4-0.3l-0.2-0.1L20.5,83l0.2,0.1
	c0.1,0.1,0.3,0.2,0.4,0.4c0.3,0.2,0.5,0.5,0.8,0.7l1.4,1.1l1.5-1.9l-1.5-1.1l-0.7,0.8l0.3,0.3l0.4-0.5l0.8,0.6l-1,1.3l-1.1-0.9
	c-0.3-0.2-0.5-0.4-0.8-0.7c-0.1-0.1-0.2-0.2-0.3-0.2l1.9-2.2c0.1,0.1,0.2,0.1,0.2,0.2c0.2,0.2,0.5,0.4,0.7,0.6l1.3,1l0.9-1.1
	c0.2,0.2,0.5,0.4,0.7,0.5l-0.8,1.2l0.8,0.6c0.1,0.1,0.3,0.2,0.4,0.3c0.1,0,0.2,0.1,0.2,0.1c0.2,0.1,0.3,0.2,0.4,0.3
	c0.2,0.1,0.4,0.3,0.6,0.4l-1.5,2.5c-0.2-0.1-0.5-0.3-0.7-0.5c-0.2-0.1-0.3-0.2-0.5-0.3c-0.1-0.1-0.2-0.1-0.2-0.2
	c-0.1-0.1-0.3-0.2-0.4-0.3l-0.5-0.3l0.9-1.3l0.4,0.3c0.1,0.1,0.3,0.2,0.4,0.3c0,0,0,0,0,0l-0.4,0.5l0.3,0.2l0.6-0.9L27,84.9
	c-0.1,0-0.1-0.1-0.2-0.1c-0.1-0.1-0.3-0.2-0.4-0.3L25.6,84l-1.4,2l0.8,0.6c0.1,0.1,0.3,0.2,0.4,0.3c0.1,0,0.2,0.1,0.2,0.2
	c0.2,0.1,0.3,0.2,0.5,0.3c0.3,0.2,0.6,0.4,0.9,0.6l0.2,0.1l1.9-3.2L29,84.7c-0.3-0.2-0.5-0.3-0.8-0.5c-0.2-0.1-0.3-0.2-0.5-0.3
	c-0.1-0.1-0.2-0.1-0.2-0.1c-0.1-0.1-0.3-0.2-0.4-0.3l-0.4-0.3l0.6-0.8c0.9,0.6,1.9,1.3,2.9,1.8l0.2-0.4c-3.9-2.3-7.4-5.2-10.4-8.7
	l0,0c-3.1-3.7-5.5-7.8-7-12.3l0,0c-1.4-4-2.2-8.3-2.2-12.6h0c0-4.6,0.7-9,2.2-13.3l0,0c1.5-4.3,3.7-8.3,6.6-11.8
	c3-3.7,6.6-6.8,10.7-9.2L30,15.7c-0.1,0.1-0.3,0.2-0.4,0.2l-2.9-4.8c0.2-0.1,0.3-0.2,0.5-0.3L27,10.5c-4.6,2.7-8.6,6.1-12,10.1l0,0
	c-0.1,0.2-0.3,0.3-0.4,0.5c0,0,0,0.1-0.1,0.1l0,0c-3.2,3.9-5.7,8.2-7.4,12.9l0,0c-1.8,4.9-2.8,10.1-2.8,15.4h0
	c0,5.6,0.9,11,2.8,16.2l0,0c1.7,4.7,4.2,9,7.4,12.9l0,0c3.5,4.3,7.7,7.9,12.5,10.7l0.2-0.4c-3-1.7-5.7-3.8-8.2-6.1L22.9,78.9z
	 M22.6,78.6l-1.8,1.9l-0.7-0.7c0.3-0.4,0.3-1,0-1.4l1.2-1.1C21.7,77.7,22.2,78.1,22.6,78.6z M14.7,21.6l2,1.6L16.1,24
	c-0.2-0.1-0.5-0.1-0.7-0.1c-0.3,0.1-0.5,0.2-0.7,0.4l-1.3-1C13.8,22.8,14.2,22.2,14.7,21.6z M14.9,24.7c0.1-0.2,0.3-0.3,0.6-0.4
	c0.1,0,0.1,0,0.2,0c0.2,0,0.3,0,0.4,0.1c0.2,0.1,0.3,0.4,0.3,0.5c0,0.2,0,0.4-0.2,0.6c-0.3,0.4-0.8,0.5-1.1,0.3
	c-0.1-0.1-0.2-0.3-0.3-0.4C14.7,25.2,14.8,24.9,14.9,24.7z M15,26.3c0.1,0.1,0.3,0.1,0.4,0.1c0.3,0,0.7-0.1,0.9-0.4l1.3,1
	c-0.4,0.5-0.7,1-1,1.5l-2.2-1.4c0-0.1,0.1-0.2,0.1-0.2C14.7,26.7,14.8,26.5,15,26.3z M16.6,25.6c0.1-0.2,0.2-0.5,0.1-0.7
	c0-0.3-0.1-0.5-0.3-0.7l0.6-0.7l2,1.6c-0.4,0.5-0.8,1-1.1,1.5L16.6,25.6z M14.5,24.6c-0.1,0.3-0.2,0.6-0.1,0.8
	c0,0.2,0.1,0.4,0.3,0.6c-0.1,0.2-0.3,0.4-0.4,0.6c0,0.1-0.1,0.2-0.1,0.2l-2.2-1.4c0.4-0.6,0.8-1.2,1.2-1.8L14.5,24.6z M16.4,28.8
	c-0.7,1.1-1.3,2.2-1.9,3.3l-0.9-0.4l0.6-1.1c0.2-0.3,0.3-0.5,0.5-0.8c0.1-0.2,0.2-0.3,0.3-0.5l0.1-0.2l-3.2-1.9l-0.1,0.2
	c-0.1,0.2-0.2,0.3-0.3,0.5c-0.2,0.3-0.4,0.6-0.5,0.9l-0.8,1.6l2.2,1.1l0.9-1.6l-0.9-0.5L12,29.7l0.6,0.3l-0.5,0.9l-1.4-0.7l0.6-1.2
	c0.2-0.3,0.4-0.6,0.5-0.9c0.1-0.1,0.1-0.2,0.2-0.3l2.5,1.5c-0.1,0.1-0.1,0.2-0.2,0.3c-0.2,0.3-0.3,0.5-0.5,0.8L13,31.9l1.3,0.6
	c-0.1,0.3-0.3,0.6-0.4,0.8l-1.3-0.6l-0.1,0.2c-0.3,0.7-0.6,1.4-0.9,2.1c-0.1,0.2-0.1,0.3-0.2,0.5l-2.7-1C8.8,34.4,8.9,34.2,9,34
	c0.3-0.7,0.5-1.4,0.9-2.1l1.5,0.7c0,0.1-0.1,0.1-0.1,0.2c-0.1,0.2-0.2,0.5-0.3,0.7l-0.6-0.2l-0.2,0.4l1,0.4l0.1-0.2
	c0.1-0.3,0.3-0.6,0.4-0.9c0.1-0.1,0.1-0.3,0.2-0.4l0.1-0.2l-2.2-1l-0.1,0.2c-0.4,0.7-0.7,1.5-1,2.3c-0.1,0.2-0.2,0.5-0.3,0.7
	l-0.1,0.2l3.5,1.3l0.1-0.2c0.1-0.2,0.2-0.4,0.3-0.7c0.2-0.6,0.5-1.3,0.8-1.9l0.9,0.4c-0.4,0.8-0.7,1.7-1,2.5l0,0
	c-0.1,0.1-0.1,0.3-0.2,0.4l-5.3-1.8c1.1-3.2,2.6-6.2,4.4-9L16.4,28.8z M9.4,37.4c0.4,0.1,0.6,0.6,0.5,1c-0.1,0.4-0.6,0.7-1,0.6
	c-0.2,0-0.3-0.2-0.4-0.3c-0.1-0.2-0.1-0.5-0.1-0.7c0.1-0.3,0.2-0.5,0.4-0.6c0.1-0.1,0.2-0.1,0.3-0.1C9.2,37.4,9.3,37.4,9.4,37.4z
	 M9,39.5C9,39.5,9,39.5,9,39.5c0.5,0,1-0.3,1.2-0.7l1.6,0.4c-0.2,0.6-0.3,1.2-0.5,1.8l-2.5-0.6L9,39.5z M10.3,38.4
	c0.1-0.5-0.2-1-0.6-1.3l0.3-0.9l2.4,0.8c-0.2,0.6-0.4,1.2-0.6,1.8L10.3,38.4z M7.1,35.2l2.5,0.9L9.3,37c-0.2,0-0.4,0-0.6,0.1
	c-0.2,0.1-0.4,0.4-0.6,0.6l-1.6-0.5C6.7,36.6,6.9,35.9,7.1,35.2z M8,38.1c0,0.3,0,0.6,0.2,0.8c0.1,0.2,0.3,0.3,0.5,0.4l-0.2,0.9
	l-2.5-0.6c0.2-0.7,0.3-1.4,0.5-2.1L8,38.1z M11.2,41.4c-0.3,1.2-0.5,2.5-0.6,3.8l-1-0.1l0.2-1.3c0-0.3,0.1-0.6,0.2-0.9
	c0-0.2,0.1-0.3,0.1-0.5l0-0.2l-3.6-0.7l0,0.2c0,0.2-0.1,0.4-0.1,0.5c-0.1,0.3-0.1,0.7-0.2,1.1L5.8,45l2.4,0.3l0.2-1.8l-1-0.2
	l-0.1,0.4L8,43.8l-0.1,1l-1.6-0.2l0.2-1.4c0.1-0.3,0.1-0.7,0.2-1c0-0.1,0-0.2,0.1-0.3l2.8,0.5c0,0.1,0,0.2-0.1,0.3
	c-0.1,0.3-0.1,0.6-0.2,1l-0.2,1.7l1.4,0.2c0,0.3-0.1,0.6-0.1,0.9L9,46.4l-0.1,1.3l0,1.7l-2.9,0l0-1.8l0.1-1l1.6,0.1l0,0.5
	c0,0.2,0,0.3,0,0.5l-0.6,0l0,0.4l1.1,0L8,48c0-0.2,0-0.4,0-0.7l0.1-0.9l-2.4-0.2l-0.1,1.4l-0.1,2.2l3.7,0l0.1-2.1l0.1-0.9l1,0.1
	c-0.1,0.9-0.1,1.8-0.1,2.7h0c0,0.2,0,0.3,0,0.5l-5.6,0.1c0-3.4,0.3-6.7,1.1-10L11.2,41.4z M7.5,51.9C7.5,51.9,7.6,51.9,7.5,51.9
	c0.2,0,0.4,0.1,0.5,0.2c0.2,0.2,0.3,0.4,0.3,0.6c0,0.5-0.3,0.9-0.7,0.9c-0.2,0-0.3,0-0.5-0.2C7,53.3,6.9,53,6.8,52.8
	c0-0.2,0-0.5,0.2-0.6C7.2,52,7.3,51.9,7.5,51.9z M8,54.9c0-0.1,0-0.2,0-0.2c0-0.2-0.1-0.5-0.1-0.7c0.5-0.1,0.8-0.6,0.9-1.1l1.6-0.1
	c0,0.6,0.1,1.2,0.2,1.8L8,54.9z M10.4,52.3l-1.6,0.1c-0.1-0.2-0.2-0.5-0.4-0.6c-0.2-0.2-0.4-0.3-0.6-0.3l0-1l2.6,0
	C10.3,51.1,10.3,51.7,10.4,52.3z M7.3,50.5l0,1c-0.2,0.1-0.5,0.2-0.6,0.4c-0.2,0.2-0.2,0.4-0.3,0.7l-1.6,0.1c0-0.7-0.1-1.4-0.1-2.2
	L7.3,50.5z M6.5,53c0.1,0.3,0.2,0.6,0.4,0.7C7.1,53.9,7.3,54,7.5,54c0,0.2,0,0.5,0.1,0.7c0,0.1,0,0.2,0,0.2L5,55.3
	c-0.1-0.7-0.2-1.4-0.2-2.2L6.5,53z M10.6,55c0.2,1.3,0.4,2.5,0.7,3.8l-1,0.2c0-0.1,0-0.2-0.1-0.3c-0.1-0.3-0.1-0.6-0.2-0.9l-0.3-1.7
	l-3.7,0.6l0.3,1.8c0.1,0.4,0.1,0.7,0.2,1c0,0.2,0.1,0.4,0.1,0.5l0,0.2l2.4-0.6l0-0.2C9.1,59.3,9,59.2,9,59c-0.1-0.3-0.1-0.6-0.2-0.9
	l0-0.2l-1,0.2l0.1,0.4l0.6-0.1c0,0.2,0.1,0.5,0.2,0.7c0,0.1,0,0.2,0.1,0.3l-1.6,0.4c0-0.1-0.1-0.2-0.1-0.3c-0.1-0.3-0.2-0.7-0.2-1
	L6.6,57l2.8-0.4l0.2,1.3c0.1,0.3,0.1,0.6,0.2,0.9c0,0.2,0.1,0.3,0.1,0.5l0,0.2l1.4-0.3c0.1,0.3,0.1,0.6,0.2,0.9l-1.4,0.4l0.5,1.7
	l0.4,1.2l-2.7,1L8,62.9l-0.4-1.3l1.5-0.4l0.3,1l-0.6,0.2l0.1,0.4l1-0.3l-0.5-1.8l-2.3,0.6l0.5,1.8l0.6,1.7l3.5-1.2L11.1,62l-0.4-1.2
	l1-0.3c0.3,1,0.6,2,1,3l-5.2,1.9c-0.1-0.2-0.1-0.4-0.2-0.5l0,0c-1-3-1.8-6.1-2.2-9.2L10.6,55z M12.2,68.8c0-0.1-0.1-0.1-0.1-0.2
	c-0.1-0.2-0.2-0.4-0.3-0.7c0.4-0.3,0.6-0.8,0.4-1.3l1.5-0.7c0.3,0.6,0.5,1.1,0.8,1.7L12.2,68.8z M10.7,66.1c0.1,0,0.2,0,0.2,0
	c0.3,0,0.6,0.2,0.8,0.5c0.2,0.4,0,0.9-0.3,1.1c-0.2,0.1-0.3,0.1-0.5,0c-0.2-0.1-0.4-0.3-0.5-0.5c-0.1-0.2-0.1-0.5,0-0.7
	C10.4,66.3,10.5,66.2,10.7,66.1z M12,66.2c-0.3-0.4-0.8-0.7-1.3-0.6l-0.3-0.9l2.4-0.9c0.2,0.6,0.4,1.1,0.7,1.7L12,66.2z M10,64.9
	l0.4,0.9c-0.2,0.1-0.3,0.3-0.4,0.5c-0.1,0.3-0.1,0.5,0,0.8l-1.5,0.7c-0.3-0.7-0.6-1.3-0.8-2L10,64.9z M10.1,67.5
	c0.2,0.3,0.4,0.4,0.7,0.5c0.1,0,0.3,0.1,0.4,0.1c0.1,0,0.2,0,0.3,0c0.1,0.2,0.2,0.5,0.3,0.7c0,0.1,0.1,0.1,0.1,0.2l-2.3,1.2
	c-0.3-0.6-0.6-1.3-0.9-2L10.1,67.5z M14.7,68c0.6,1.1,1.2,2.2,1.9,3.3l-0.8,0.5c-0.1-0.1-0.1-0.2-0.2-0.3c-0.2-0.3-0.3-0.5-0.5-0.8
	l-0.8-1.5L11,71.1l0.9,1.6c0.2,0.3,0.4,0.6,0.6,0.9c0.1,0.2,0.2,0.3,0.3,0.5l0.1,0.2l2-1.3l-0.4-0.6c-0.2-0.3-0.3-0.5-0.5-0.8
	l-0.1-0.2L13,71.9l0.2,0.4l0.6-0.3c0.1,0.2,0.3,0.4,0.4,0.6l0.2,0.2L13,73.6c-0.1-0.1-0.1-0.2-0.2-0.3c-0.2-0.3-0.4-0.6-0.6-0.9
	l-0.7-1.2l2.5-1.4l0.6,1.1c0.2,0.3,0.3,0.5,0.5,0.8c0.1,0.1,0.2,0.3,0.3,0.4l0.1,0.2l1.2-0.8c0.2,0.3,0.3,0.5,0.5,0.8l-1.2,0.8
	l0.1,0.2c0.1,0.1,0.2,0.3,0.3,0.4c0.2,0.3,0.4,0.5,0.6,0.8l0.8,1l-2.2,1.8l-0.9-1.1c-0.2-0.3-0.4-0.6-0.6-0.8
	c-0.1-0.1-0.1-0.2-0.2-0.3l1.3-0.9c0.1,0.1,0.1,0.2,0.2,0.2c0.1,0.2,0.3,0.4,0.4,0.6l-0.5,0.4l0.2,0.3l0.8-0.6l-0.1-0.2
	c-0.2-0.2-0.4-0.5-0.5-0.8c-0.1-0.1-0.2-0.3-0.3-0.4l-0.1-0.2l-2,1.4l0.1,0.2c0.1,0.1,0.2,0.3,0.3,0.4c0.2,0.3,0.4,0.6,0.6,0.9
	l1.1,1.4l2.9-2.3l-1.1-1.3c-0.2-0.2-0.4-0.5-0.6-0.8c-0.1-0.1-0.1-0.2-0.2-0.3l0.8-0.6c0.5,0.7,1.1,1.5,1.6,2.2l0,0
	c0.1,0.1,0.2,0.2,0.3,0.4l-4.3,3.6c-2.2-2.6-4-5.4-5.6-8.3L14.7,68z M21,77l-1.2,1.1c-0.4-0.3-1-0.4-1.4-0.1l-0.6-0.7l2-1.7
	C20.2,76.1,20.6,76.5,21,77z M17.5,77.5l0.6,0.7c-0.1,0.2-0.2,0.4-0.2,0.6c0,0.3,0.1,0.6,0.3,0.8l-1.2,1.1c-0.5-0.5-1-1.1-1.4-1.6
	L17.5,77.5z M18.3,78.9c0-0.2,0.1-0.4,0.2-0.5c0.3-0.3,0.8-0.2,1.1,0.1c0.3,0.3,0.3,0.8,0,1.1c-0.1,0.1-0.3,0.2-0.5,0.2
	c-0.2,0-0.5-0.1-0.7-0.3C18.4,79.4,18.3,79.1,18.3,78.9z M26.8,15c0,0.1-0.1,0.2-0.1,0.3c-0.1,0.1-0.1,0.2-0.2,0.2
	c-0.4,0.3-0.9,0.2-1.1-0.1c-0.1-0.1-0.1-0.3-0.1-0.5c0-0.2,0.2-0.5,0.4-0.6c0.1-0.1,0.2-0.1,0.3-0.2c0.1,0,0.1,0,0.2,0
	c0,0,0.1,0,0.1,0c0.2,0,0.4,0.1,0.5,0.3C26.8,14.6,26.8,14.8,26.8,15z M24.7,14.9c0,0.2,0,0.4,0.1,0.6c-0.3,0.2-0.5,0.4-0.8,0.6
	l-1.6-2c0.6-0.4,1.2-0.9,1.8-1.3l0.9,1.4C24.9,14.3,24.8,14.6,24.7,14.9z M25.1,15.8c0.2,0.2,0.5,0.3,0.8,0.3c0.2,0,0.4,0,0.6-0.1
	l0.9,1.4c-0.5,0.4-1,0.7-1.5,1.1l-1.6-2C24.5,16.2,24.8,16,25.1,15.8z M27.7,17.1l-0.9-1.4c0.1-0.1,0.1-0.1,0.2-0.2
	c0.1-0.1,0.2-0.3,0.2-0.4c0.1-0.2,0-0.5,0-0.7l0.8-0.5l1.3,2.2C28.7,16.5,28.2,16.8,27.7,17.1z M27.7,13.6l-0.8,0.5
	c-0.2-0.2-0.4-0.3-0.7-0.3c-0.2,0-0.3,0-0.5,0c-0.1,0-0.2,0.1-0.3,0.1l-0.9-1.4c0.6-0.4,1.2-0.8,1.8-1.2L27.7,13.6z M22.1,14.3
	l3.4,4.4c-1,0.8-2,1.6-2.9,2.5l-0.7-0.7c0.1-0.1,0.2-0.1,0.2-0.2c0.2-0.2,0.5-0.4,0.7-0.6l1.3-1.1l-2.4-2.8l-1.4,1.2
	c-0.3,0.2-0.5,0.5-0.8,0.7c-0.1,0.1-0.3,0.3-0.4,0.4l-0.2,0.1l1.7,1.7l0.1-0.1c0.1-0.1,0.3-0.2,0.4-0.4c0.2-0.2,0.4-0.4,0.7-0.6
	l0.2-0.1l-0.7-0.8l-0.3,0.3l0.4,0.5c-0.2,0.2-0.4,0.3-0.5,0.5c-0.1,0.1-0.1,0.1-0.2,0.2l-1.1-1.1c0.1-0.1,0.2-0.2,0.2-0.2
	c0.2-0.2,0.5-0.5,0.8-0.7l1.1-0.9l1.8,2.2l-1,0.8c-0.2,0.2-0.5,0.4-0.7,0.7c-0.1,0.1-0.3,0.2-0.4,0.4l-0.2,0.1l1,1
	c-0.2,0.2-0.4,0.4-0.7,0.6l-1-1l-0.1,0.2c-0.1,0.1-0.2,0.3-0.4,0.4c-0.2,0.2-0.5,0.5-0.7,0.7l-0.9,1l-2.2-1.8l0.9-1
	c0.2-0.3,0.5-0.5,0.7-0.8c0.1-0.1,0.2-0.2,0.2-0.2l1.1,1.1c-0.1,0.1-0.1,0.1-0.2,0.2c-0.2,0.2-0.4,0.4-0.5,0.5l-0.5-0.4L18,21.2
	l0.8,0.7l0.1-0.2c0.2-0.2,0.4-0.5,0.7-0.7c0.1-0.1,0.2-0.2,0.3-0.4l0.1-0.1l-1.7-1.7L18.1,19c-0.1,0.1-0.3,0.3-0.4,0.4
	c-0.2,0.3-0.5,0.5-0.7,0.8l-1.2,1.4l2.8,2.4l1.1-1.3c0.2-0.2,0.4-0.5,0.7-0.7c0.1-0.1,0.2-0.2,0.2-0.2l0.7,0.7
	c-0.6,0.6-1.2,1.3-1.8,2l0,0c-0.1,0.1-0.2,0.2-0.3,0.4l-4.3-3.5C17.1,18.7,19.5,16.4,22.1,14.3z M17.2,81.1l1.2-1.1
	c0.2,0.2,0.5,0.3,0.8,0.3c0,0,0,0,0,0c0.2,0,0.4-0.1,0.6-0.2l0.7,0.7l-1.8,1.9C18.2,82.1,17.7,81.6,17.2,81.1z M36.8,6.7l1.6,5.3
	c-1.2,0.4-2.4,0.8-3.6,1.3l-0.4-0.9c0.2-0.1,0.3-0.1,0.5-0.2c0.7-0.3,1.4-0.5,2.1-0.8l0.2-0.1L36,7.8l-0.2,0.1
	c-0.8,0.2-1.6,0.6-2.3,0.9C33.3,8.9,33,8.9,32.8,9l-0.2,0.1l0.9,2.2l1.7-0.7l-0.4-1l-0.4,0.1l0.2,0.6l-1,0.4l-0.6-1.5
	c0.2-0.1,0.3-0.1,0.5-0.2c0.7-0.3,1.4-0.6,2.1-0.8l0.9,2.7c-0.6,0.2-1.3,0.5-1.9,0.7c-0.2,0.1-0.5,0.2-0.7,0.3l-0.2,0.1l0.6,1.3
	c-0.3,0.1-0.6,0.2-0.8,0.4L33,12.5l-0.2,0.1c-0.1,0-0.2,0.1-0.2,0.1c-0.1,0.1-0.3,0.1-0.4,0.2l-1.7,0.9l-0.1,0.1l-1.4-2.5l2-1
	c0.1-0.1,0.3-0.1,0.5-0.2c0,0,0,0,0.1,0l0.7,1.4c0,0,0,0,0,0c-0.1,0.1-0.3,0.1-0.4,0.2L31.1,12l-0.3-0.6l-0.4,0.2l0.5,0.9l0.8-0.4
	c0.1-0.1,0.3-0.1,0.4-0.2c0.1,0,0.2-0.1,0.2-0.1l0.2-0.1l-1-2.2l-0.2,0.1c-0.1,0-0.2,0.1-0.3,0.1C31,9.8,30.8,9.9,30.7,10l-1.8,0.9
	l-0.5,0.3l1.8,3.2l0.5-0.3l1.7-0.9c0.1-0.1,0.3-0.1,0.4-0.2c0,0,0,0,0.1,0l0.4,0.9c-1,0.5-2,1-3,1.6l0.2,0.4c4-2.3,8.3-3.8,12.7-4.6
	l0,0c2.3-0.4,4.7-0.6,7.1-0.6c2.3,0,4.7,0.2,7.1,0.7l0,0c2.2,0.4,4.2,1,6.2,1.7c2.1,0.8,4.2,1.8,6.2,2.9c3.9,2.2,7.2,5,10.1,8.3l0,0
	c3,3.4,5.3,7.3,7,11.6l0,0c1.7,4.5,2.6,9.1,2.6,13.9l0.4,0c0-0.2,0-0.3,0-0.5l5.6-0.1c0,0.2,0,0.4,0,0.6l0.4,0
	c0-5.3-0.9-10.5-2.8-15.4l0,0c-1.8-5-4.5-9.5-7.9-13.6l0,0c-3.4-4-7.4-7.5-12-10.1l0,0c-0.1-0.1-0.2-0.1-0.3-0.2
	c-0.1-0.1-0.2-0.1-0.4-0.2l0,0c-2.2-1.2-4.5-2.3-6.8-3.1c-2.3-0.8-4.7-1.5-7.2-2v0c0,0,0,0,0,0C58.2,5,58,5,57.7,5l0,0
	c-2.5-0.4-5-0.6-7.5-0.7c0,0,0,0,0,0c-2.5,0-5,0.2-7.5,0.6l0,0c-5.4,0.8-10.7,2.7-15.6,5.5l0.2,0.4C30.5,9,33.6,7.6,36.8,6.7z
	 M42.3,8l-0.8,0.1l-0.1,0C41.3,8,41.2,7.8,41,7.7c-0.2-0.2-0.5-0.2-0.8-0.2l-0.4-1.6c0.7-0.2,1.4-0.3,2.1-0.4L42.3,8z M40,7.9
	c0.1,0,0.2,0,0.2,0c0.2,0,0.3,0,0.5,0.1C40.9,8.1,41,8.3,41,8.5c0.1,0.4-0.2,0.8-0.7,0.9c-0.2,0.1-0.5,0-0.7-0.1
	c-0.2-0.1-0.3-0.3-0.4-0.4c-0.1-0.2,0-0.4,0.1-0.6C39.6,8.1,39.8,8,40,7.9z M41.5,8.6l0.1,0l0.8-0.1l0.5,2.5
	c-0.6,0.1-1.2,0.2-1.8,0.4l-0.4-1.6C41.1,9.5,41.5,9.1,41.5,8.6z M39.7,7.6c-0.3,0.1-0.5,0.3-0.6,0.5c-0.1,0.2-0.2,0.5-0.2,0.7L38,9
	l-0.7-2.5c0.7-0.2,1.4-0.4,2.1-0.6L39.7,7.6z M38.1,9.4L39,9.2c0.1,0.2,0.3,0.4,0.5,0.5c0.2,0.1,0.4,0.2,0.6,0.2c0,0,0.1,0,0.1,0
	l0.4,1.6c-0.6,0.1-1.2,0.3-1.8,0.5L38.1,9.4z M56.5,10.8c-0.6-0.1-1.2-0.2-1.8-0.3l0.2-1.6c0.5,0,1-0.3,1.1-0.8
	c0.3,0,0.6,0.1,0.9,0.1L56.5,10.8z M54.7,7c0,0,0.1,0,0.1,0c0.3,0,0.5,0.2,0.6,0.4c0.1,0.1,0.2,0.3,0.1,0.5
	c-0.1,0.4-0.5,0.7-0.9,0.6c-0.2,0-0.5-0.1-0.6-0.3c-0.1-0.2-0.2-0.3-0.2-0.5c0-0.2,0.1-0.4,0.3-0.5C54.4,7.1,54.6,7,54.7,7z M57,7.9
	c-0.3-0.1-0.6-0.1-1-0.1c0-0.2-0.1-0.4-0.2-0.6c-0.2-0.2-0.4-0.4-0.7-0.5L55.3,5c0.7,0.1,1.4,0.2,2.2,0.3L57,7.9z M54.7,6.6
	c-0.3,0-0.5,0.1-0.7,0.2c-0.2,0.2-0.4,0.4-0.4,0.6l-1-0.1l0.1-2.6c0.7,0,1.4,0.1,2.2,0.2L54.7,6.6z M52.6,7.8l1,0.1
	c0,0.2,0.1,0.5,0.3,0.6c0.2,0.2,0.4,0.3,0.6,0.4l-0.2,1.6c-0.6-0.1-1.2-0.1-1.8-0.2L52.6,7.8z M72.7,10.8c2.9,1.7,5.5,3.6,7.9,5.8
	l-3.8,4.1c-0.9-0.9-1.9-1.7-3-2.4l0.6-0.8c0.2,0.1,0.4,0.3,0.6,0.5c0.1,0.1,0.3,0.2,0.4,0.3l0.2,0.2c0.1,0.1,0.2,0.2,0.4,0.3
	l0.7,0.6l2.4-2.8l-0.8-0.7c-0.1-0.1-0.3-0.2-0.4-0.3l-0.2-0.2c-0.1-0.1-0.3-0.2-0.4-0.3c-0.3-0.2-0.6-0.4-0.8-0.6l-0.2-0.1l-1.4,1.9
	l0.2,0.1c0.3,0.2,0.5,0.4,0.7,0.6c0.1,0.1,0.3,0.2,0.4,0.3l0.2,0.1l0.7-0.8l-0.3-0.3l-0.4,0.5c-0.1-0.1-0.2-0.1-0.2-0.2
	c-0.2-0.2-0.4-0.3-0.6-0.5l1-1.3c0.2,0.2,0.4,0.3,0.7,0.5c0.1,0.1,0.3,0.2,0.4,0.3l0.2,0.2c0.1,0.1,0.3,0.2,0.4,0.3l0.5,0.4
	l-1.9,2.2l-0.4-0.4c-0.1-0.1-0.3-0.2-0.4-0.3l-0.2-0.2c-0.1-0.1-0.3-0.2-0.4-0.3c-0.2-0.2-0.5-0.4-0.8-0.6l-0.2-0.1L73.6,18
	c-0.2-0.2-0.5-0.4-0.7-0.5l0.8-1.2l-0.5-0.3l-1.6-1c-0.1-0.1-0.3-0.2-0.4-0.3c0,0,0,0,0,0l1.5-2.5c0,0,0,0,0.1,0
	c0.2,0.1,0.3,0.2,0.4,0.3l1.7,1.1l0.2,0.1L74,15l-0.9-0.6l0.3-0.5l-0.3-0.2l-0.6,0.9l1.1,0.7l0.5,0.3l1.4-2L75,13.2l-1.7-1.1
	c-0.2-0.1-0.3-0.2-0.5-0.3c-0.1,0-0.2-0.1-0.2-0.1l-0.2-0.1l-1.9,3.2l0.2,0.1c0.1,0,0.2,0.1,0.2,0.1c0.1,0.1,0.3,0.2,0.4,0.2l1.6,1
	l0.1,0.1l-0.6,0.8c-0.7-0.5-1.5-1-2.3-1.4l0,0c-0.1-0.1-0.2-0.1-0.3-0.2c0,0-0.1,0-0.1-0.1l2.8-4.8C72.6,10.7,72.6,10.7,72.7,10.8z
	 M69.1,11.2c0.2,0.1,0.4,0.3,0.5,0.5c0.1,0.2,0,0.4,0,0.5c-0.2,0.4-0.7,0.5-1.1,0.3c-0.4-0.2-0.6-0.7-0.5-1c0.1-0.2,0.2-0.3,0.4-0.4
	c0.1,0,0.2,0,0.3,0C68.9,11.1,69,11.1,69.1,11.2z M68.5,13c0.1,0,0.3,0.1,0.4,0.1c0.4,0,0.7-0.2,0.9-0.4l0.4,0.2
	c0.1,0.1,0.2,0.1,0.3,0.2c0,0,0.1,0,0.1,0.1l-1.3,2.2c-0.5-0.3-1.1-0.6-1.6-0.9L68.5,13z M70.9,12.7c0,0-0.1,0-0.1-0.1
	c-0.1-0.1-0.2-0.1-0.4-0.2L70,12.2c0.1-0.2,0.1-0.4,0-0.6c-0.1-0.3-0.3-0.5-0.5-0.7l0.7-1.5c0.6,0.3,1.3,0.7,1.9,1L70.9,12.7z
	 M69.1,10.7c-0.3-0.1-0.6-0.1-0.8,0c-0.2,0.1-0.4,0.2-0.5,0.4l-0.9-0.4l1-2.4c0.7,0.3,1.3,0.6,2,0.9L69.1,10.7z M66.7,11.1l0.9,0.4
	c-0.1,0.5,0.1,1,0.5,1.3l-0.7,1.5c-0.6-0.3-1.1-0.5-1.7-0.8L66.7,11.1z M77.2,20.9l1.8-1.9l0.7,0.7c-0.3,0.4-0.2,0.9,0.1,1.4
	l-1.2,1.1C78,21.8,77.6,21.4,77.2,20.9z M93.6,46.3c-0.1-0.3-0.2-0.6-0.4-0.7c-0.2-0.1-0.4-0.2-0.6-0.2l-0.1-1L95,44
	c0.1,0.7,0.2,1.4,0.2,2.2L93.6,46.3z M92.5,47.5c-0.4,0-0.8-0.3-0.8-0.8c0-0.5,0.3-0.9,0.7-0.9c0,0,0,0,0.1,0c0.2,0,0.3,0.1,0.4,0.2
	c0.2,0.1,0.3,0.4,0.3,0.6c0,0.3-0.1,0.5-0.2,0.7C92.9,47.4,92.7,47.5,92.5,47.5z M91.3,46.5l-1.6,0.1c-0.1-0.6-0.1-1.2-0.2-1.8
	l2.6-0.3l0.1,0.9C91.7,45.5,91.3,46,91.3,46.5z M89.4,44.4c-0.2-1.3-0.4-2.5-0.7-3.8l1-0.2l0.3,1.2c0.1,0.3,0.1,0.6,0.2,0.9
	c0,0.2,0.1,0.3,0.1,0.5l0,0.2l3.7-0.6l0-0.2c0-0.2-0.1-0.4-0.1-0.5c-0.1-0.3-0.1-0.7-0.2-1l-0.4-1.8l-2.4,0.6l0.4,1.8l1-0.2
	l-0.1-0.4L91.5,41l-0.2-1l1.6-0.4l0.3,1.4c0.1,0.3,0.1,0.7,0.2,1c0,0.1,0,0.2,0.1,0.3l-2.8,0.5c0-0.1,0-0.2-0.1-0.3
	c-0.1-0.3-0.1-0.6-0.2-1L90,39.9l-1.4,0.3c-0.1-0.3-0.2-0.6-0.2-0.9l1.4-0.4l-0.1-0.2c-0.2-0.7-0.4-1.5-0.7-2.2
	c-0.1-0.2-0.1-0.3-0.2-0.5l2.7-1c0.1,0.2,0.1,0.4,0.2,0.5c0.2,0.7,0.5,1.4,0.7,2.1l-1.5,0.4c0-0.1,0-0.1-0.1-0.2
	c-0.1-0.3-0.2-0.5-0.2-0.8l0.6-0.2L91,36.6l-1,0.3l0.1,0.2c0.1,0.3,0.2,0.7,0.3,1c0,0.1,0.1,0.3,0.1,0.4l0.1,0.2l2.3-0.7l-0.1-0.2
	c-0.2-0.8-0.5-1.6-0.7-2.3c-0.1-0.2-0.2-0.5-0.2-0.7l-0.1-0.2l-3.5,1.3l0.1,0.2c0.1,0.2,0.2,0.5,0.2,0.7c0.2,0.6,0.4,1.3,0.6,1.9
	l-1,0.3c-0.3-0.9-0.5-1.7-0.8-2.6l0,0c-0.1-0.1-0.1-0.3-0.2-0.4l5.2-2c1.2,3.2,2,6.4,2.5,9.7L89.4,44.4z M86.4,33.8l1.5-0.7
	c0.2,0.4,0.6,0.6,1.1,0.6c0.1,0,0.1,0,0.2,0l0.3,0.9l-2.4,0.9C86.9,35,86.6,34.4,86.4,33.8z M87.7,30.6l0.4,0.9
	c-0.4,0.3-0.6,0.8-0.4,1.3l-1.5,0.7c-0.3-0.6-0.5-1.1-0.8-1.7L87.7,30.6z M89.2,33.3c-0.4,0.2-0.9-0.1-1-0.5c-0.2-0.4,0-0.9,0.3-1.1
	c0.1,0,0.2-0.1,0.3-0.1c0.1,0,0.2,0,0.2,0c0.2,0.1,0.4,0.3,0.5,0.5c0.1,0.2,0.1,0.5,0,0.7C89.5,33.1,89.4,33.2,89.2,33.3z
	 M89.9,34.5l-0.4-0.9c0.2-0.1,0.3-0.3,0.4-0.5c0.1-0.3,0.1-0.6,0-0.8l1.5-0.7c0.3,0.7,0.6,1.3,0.8,2L89.9,34.5z M89.8,31.8
	c-0.2-0.3-0.4-0.4-0.7-0.5c-0.2-0.1-0.4-0.1-0.6,0l-0.4-0.9l2.3-1.2c0.3,0.6,0.6,1.3,1,1.9L89.8,31.8z M85.2,31.4
	c-0.6-1.1-1.3-2.2-2-3.3l0.8-0.6l0.7,1.1c0.1,0.2,0.3,0.4,0.4,0.6l0.5,0.8l3.2-1.8l-0.5-0.9c-0.1-0.2-0.3-0.5-0.4-0.7l-1-1.5l-2,1.3
	l1,1.6l0.9-0.6l-0.2-0.3l-0.6,0.3l-0.6-0.9l1.3-0.9l0.8,1.2c0.1,0.2,0.3,0.5,0.4,0.7l0.3,0.5l-2.5,1.4l-0.3-0.5
	c-0.1-0.2-0.2-0.4-0.4-0.6L84.2,27L83,27.8c-0.2-0.3-0.3-0.5-0.5-0.8l1.2-0.8l-0.6-0.8l-0.5-0.6c-0.1-0.1-0.2-0.3-0.3-0.4
	c-0.2-0.2-0.3-0.4-0.5-0.6L84,22c0.2,0.2,0.4,0.4,0.5,0.7c0.1,0.1,0.2,0.3,0.3,0.4l0.5,0.6l0.3,0.5l-1.3,0.9l-0.3-0.4l-0.3-0.4
	l0.5-0.4l-0.3-0.3l-0.8,0.6l0.6,0.7l0.5,0.8l2-1.4l-0.6-0.8l-0.5-0.6c-0.1-0.1-0.2-0.3-0.3-0.4c-0.2-0.3-0.4-0.6-0.7-0.8l-0.1-0.2
	l-2.8,2.4l0.1,0.2c0.2,0.2,0.4,0.5,0.6,0.7c0.1,0.1,0.2,0.3,0.3,0.4l0.5,0.6l0.3,0.4l-0.8,0.6c-0.5-0.7-1.1-1.4-1.7-2.1l0,0
	c-0.1-0.1-0.2-0.2-0.3-0.4l4.2-3.6c2.2,2.6,4.1,5.3,5.7,8.3L85.2,31.4z M78.8,22.5l1.2-1.1c0.2,0.2,0.5,0.3,0.8,0.3
	c0.2,0,0.4-0.1,0.6-0.2c0.1,0.2,0.3,0.3,0.4,0.5c0.1,0.1,0.1,0.2,0.2,0.2l-2,1.7C79.6,23.4,79.2,23,78.8,22.5z M82.3,21.9
	c-0.1-0.1-0.1-0.2-0.2-0.2c-0.1-0.2-0.3-0.3-0.4-0.5c0.1-0.2,0.2-0.4,0.2-0.6c0-0.3-0.1-0.6-0.3-0.8l1.2-1.1c0.5,0.5,1,1.1,1.5,1.6
	L82.3,21.9z M81.4,20.6c0,0.2-0.1,0.4-0.2,0.5h0c-0.3,0.3-0.8,0.2-1.1-0.1c-0.3-0.3-0.4-0.9-0.1-1.1c0.1-0.1,0.3-0.2,0.5-0.2
	c0,0,0,0,0,0c0.2,0,0.5,0.1,0.6,0.3C81.3,20.1,81.4,20.4,81.4,20.6z M89.7,47l1.6-0.1c0.1,0.5,0.5,0.9,1,1c0,0.2,0,0.4,0,0.6
	c0,0.1,0,0.2,0,0.3l-2.6,0.1C89.8,48.3,89.7,47.6,89.7,47z M92.8,48.8c0-0.1,0-0.2,0-0.3c0-0.2,0-0.4,0-0.6c0.2-0.1,0.4-0.2,0.5-0.3
	c0.2-0.2,0.3-0.5,0.3-0.8l1.7-0.1c0.1,0.7,0.1,1.4,0.1,2.2L92.8,48.8z M82.5,18.4l-1.2,1.1c-0.2-0.2-0.5-0.3-0.8-0.3c0,0,0,0,0,0
	c-0.2,0-0.5,0.1-0.6,0.2l-0.7-0.7l1.8-1.9C81.5,17.3,82,17.8,82.5,18.4z M67.5,8.2l-2.2,5.1c-0.5-0.2-1.1-0.4-1.7-0.6
	c-0.6-0.2-1.3-0.5-2-0.7l0.3-1c0.3,0.1,0.5,0.2,0.8,0.3c0.1,0.1,0.3,0.1,0.4,0.1l0.3,0.1c0.4,0.1,0.7,0.2,1.1,0.4l0.2,0.1l1.3-3.5
	l-0.2-0.1c-0.4-0.2-0.8-0.3-1.2-0.4L64.4,8c-0.2-0.1-0.3-0.1-0.5-0.2c-0.4-0.1-0.7-0.2-1.1-0.3l-0.2-0.1L62,9.7l0.2,0.1
	c0.3,0.1,0.7,0.2,1,0.3c0.1,0,0.3,0.1,0.4,0.1l0.2,0.1l0.3-1l-0.4-0.1l-0.2,0.6c-0.1,0-0.1,0-0.2-0.1c-0.3-0.1-0.5-0.2-0.8-0.3
	L63,7.9c0.3,0.1,0.6,0.2,0.9,0.3c0.2,0.1,0.3,0.1,0.5,0.2l0.3,0.1c0.3,0.1,0.7,0.2,1,0.4l-1,2.7c-0.3-0.1-0.6-0.2-0.9-0.3l-0.3-0.1
	c-0.1,0-0.3-0.1-0.4-0.1c-0.3-0.1-0.7-0.2-1-0.3l-0.2-0.1l-0.4,1.3c-0.3-0.1-0.6-0.2-0.9-0.2l0.4-1.4l-0.2-0.1
	c-0.3-0.1-0.6-0.2-1-0.2c-0.2,0-0.3-0.1-0.5-0.1l-0.7-0.2l-0.5-0.1l0.5-2.8L59,6.9l0.8,0.2c0.2,0,0.4,0.1,0.5,0.1
	c0.3,0.1,0.5,0.1,0.8,0.2l-0.4,1.5c-0.2-0.1-0.5-0.1-0.7-0.2c-0.1,0-0.2,0-0.3-0.1l0.1-0.6L59.4,8l-0.2,1l0.2,0
	c0.2,0,0.3,0.1,0.5,0.1c0.3,0.1,0.6,0.1,0.9,0.2L61,9.4l0.6-2.3l-0.2-0.1c-0.3-0.1-0.7-0.2-1-0.3c-0.2,0-0.4-0.1-0.5-0.1L59,6.5
	l-1-0.2L57.4,10l0.9,0.2l0.7,0.2c0.2,0,0.3,0.1,0.5,0.1c0.2,0.1,0.5,0.1,0.7,0.2l-0.3,1c-1-0.3-2.1-0.5-3.1-0.7l0.9-5.5
	c0.2,0,0.4,0.1,0.5,0.1c2.5,0.5,4.9,1.1,7.2,2C66.2,7.7,66.9,7.9,67.5,8.2z M50.3,4.7c0.7,0,1.4,0,2.1,0.1L52,10.3
	c-0.6,0-1.2,0-1.8,0c-0.7,0-1.4,0-2.1,0.1l-0.1-1c0.2,0,0.5,0,0.7,0c0.2,0,0.4,0,0.5,0l0.7,0l1,0l0.1-3.7l-1,0l-0.8,0
	c-0.2,0-0.4,0-0.5,0c-0.4,0-0.7,0-1.1,0l-0.2,0l0.1,2.4l0.2,0c0.3,0,0.6,0,0.9,0c0.2,0,0.3,0,0.5,0l0.2,0l0-1.1l-0.4,0l0,0.6
	c-0.1,0-0.2,0-0.3,0c-0.2,0-0.5,0-0.7,0l-0.1-1.6c0.3,0,0.6,0,0.9,0c0.2,0,0.4,0,0.5,0l0.8,0l0.6,0l-0.1,2.9l-0.5,0l-0.7,0
	c-0.2,0-0.4,0-0.5,0c-0.3,0-0.6,0-1,0l-0.2,0l0.1,1.4c-0.3,0-0.6,0-0.9,0.1L46.7,9l-0.2,0c-0.1,0-0.2,0-0.3,0c-0.2,0-0.3,0-0.5,0
	l-1.5,0.2c-0.2,0-0.3,0-0.6,0.1l-0.5-2.8c0.2,0,0.4-0.1,0.6-0.1l1-0.1c0.4,0,0.8-0.1,1.2-0.1l0.1,1.6c0,0,0,0,0,0
	c-0.2,0-0.3,0-0.5,0l-0.5,0.1L45,7.2l-0.4,0l0.1,1.1l0.9-0.1c0.2,0,0.3,0,0.5,0c0.1,0,0.2,0,0.3,0l0.2,0l-0.2-2.4l-0.2,0
	c-0.5,0-1,0.1-1.4,0.1l-1,0.1c-0.3,0-0.6,0.1-0.8,0.1l-0.2,0l0.6,3.6l0.2,0c0.3-0.1,0.5-0.1,0.7-0.1l1.5-0.2c0.2,0,0.3,0,0.5,0
	c0,0,0,0,0.1,0l0.1,1c-0.9,0.1-1.8,0.2-2.7,0.3l0,0c-0.2,0-0.3,0.1-0.5,0.1l-1-5.5C44.9,4.9,47.6,4.7,50.3,4.7
	C50.3,4.7,50.3,4.7,50.3,4.7z"/>
</svg>
