<?xml version="1.0" encoding="utf-8"?>
<!-- Generator: Adobe Illustrator 24.1.1, SVG Export Plug-In . SVG Version: 6.00 Build 0)  -->
<svg version="1.1" id="Calque_1" xmlns="http://www.w3.org/2000/svg" xmlns:xlink="http://www.w3.org/1999/xlink" x="0px" y="0px"
	 viewBox="0 0 100 53.3" style="enable-background:new 0 0 100 53.3;" xml:space="preserve">
<style type="text/css">
	.st0{fill:#D3312E;}
	.st1{fill:url(#SVGID_1_);}
</style>
<path class="st0" d="M1.6,37.7c-0.7,0.1-0.7,1.2,0,1.1c9-0.9,19.2,7.7,27.4,0.9c0.4-0.3,3.3,2.1,3.8,2.4c1.8,1,3.8,1.5,5.8,1.8
	c3.7,0.5,7.4-0.5,10.5-2.6c5.5,4.1,15.5,2.7,21.1,0.6c5.9-2.2,10.1-5.4,16.7-4.2c4.3,0.7,8.5,1.9,12.5-0.6c0.5-0.3,0.2-1.2-0.4-1
	c-7.9,2.1-13.3-6.7-21.1-6.6c-0.1,0-0.2,0-0.3,0.1c-2.1-3.7-6.4-5.8-11.1-5.8c-1,0-1.9,0.1-2.7,0.4c4-11.1-8.8-20.2-18.9-16.8
	c-4.2,1.4-6.9,5.3-6.4,9.7c0.4,3.9,3.8,5.8,7.2,5.5c0,0,0,0,0,0c0.1,0,0.3,0,0.4-0.1c0.4-0.1,0.8-0.1,1.3-0.3
	c0.7-0.2,0.4-1.3-0.3-1.1c-0.3,0.1-0.6,0.2-1,0.2c-0.1,0-0.2,0-0.3,0c-0.1,0-0.2,0-0.3,0c-3.1,0.2-4.7-3-4-6.2
	c1.3-6.3,10.3-1.8,10.4,3.1c0.1,2.8-2.3,5.3-4.5,6.6c-3.3,2-7,0.7-10.2-0.8c-3.7-1.7-8.8-4.1-12.4-0.9c-2.3,2.1-3.3,4.7-2.5,7.4
	C15,28.2,8.6,37.3,1.6,37.7z"/>
<linearGradient id="SVGID_1_" gradientUnits="userSpaceOnUse" x1="10783.4375" y1="61.4258" x2="10840.6523" y2="13.4165" gradientTransform="matrix(-1 0 0 1 10862.2646 0)">
	<stop  offset="0" style="stop-color:#9D4E23"/>
	<stop  offset="0.3368" style="stop-color:#B79236"/>
	<stop  offset="0.4469" style="stop-color:#C9AA51"/>
	<stop  offset="0.5976" style="stop-color:#DFC773"/>
	<stop  offset="0.7432" style="stop-color:#F0DD8D"/>
	<stop  offset="0.8803" style="stop-color:#FAEB9E"/>
	<stop  offset="1" style="stop-color:#FEF0A4"/>
</linearGradient>
<path class="st1" d="M66.3,23.7c-1,0-1.9,0.1-2.7,0.4c4-11.1-8.8-20.2-18.9-16.8c-4.2,1.4-6.9,5.3-6.4,9.7c0.4,3.9,3.8,5.8,7.2,5.5
	c0,0,0,0,0,0c0.1,0,0.3,0,0.4-0.1c0.4-0.1,0.8-0.1,1.3-0.3c0.7-0.2,0.4-1.3-0.3-1.1c-0.3,0.1-0.6,0.2-1,0.2c-0.1,0-0.2,0-0.3,0
	c-0.1,0-0.2,0-0.3,0c-3.1,0.2-4.7-3-4-6.2c1.3-6.3,10.3-1.8,10.4,3.1c0.1,2.8-2.3,5.3-4.5,6.6c-3.3,2-7,0.7-10.2-0.8
	c-3.7-1.7-8.8-4.1-12.4-0.9c-2.3,2.1-3.3,4.7-2.5,7.4c-7.2-2.6-13.6,6.5-20.6,6.9c-0.7,0.1-0.7,1.2,0,1.1c9-0.9,19.2,7.7,27.4,0.9
	c0.4-0.3,3.3,2.1,3.8,2.4c1.8,1,3.8,1.5,5.8,1.8c3.7,0.5,7.4-0.5,10.5-2.6c5.5,4.1,15.5,2.7,21.1,0.6c5.9-2.2,10.1-5.4,16.7-4.2
	c4.3,0.7,8.5,1.9,12.5-0.6c0.5-0.3,0.2-1.2-0.4-1c-7.9,2.1-13.3-6.7-21.1-6.6c-0.1,0-0.2,0-0.3,0.1C75.3,25.8,70.9,23.7,66.3,23.7z
	 M64.2,25.1c6.4-1.7,13.4,2.7,13.3,9.5c0,0.7,1.1,0.7,1.1,0c0-1.5-0.3-2.9-0.8-4.1c6.4,0,11.1,6,17.2,6.8c-3.8,0.5-7.9-1-11.8-1.3
	c-4.1-0.2-7.9,2.1-11.4,3.8c-5.6,2.7-11.6,3.4-17.7,2.2c-2.7-0.6-5.3-2-6.8-4.3c-1.8-2.6,0.1-5.8,2.7-6.9c2-0.8,4.7,0.6,5.1,2.8
	c0.1,0.9-0.2,1.9-0.8,2.6c-1.4,1.6-3.4,1.3-4.8,0c-0.5-0.5-1.3,0.3-0.8,0.8c4.6,4.2,10.4-3.3,5.7-6.4c-5.6-3.8-11,3.3-7.5,8.4
	c0.4,0.6,0.8,1,1.3,1.5c-5.9,3.8-13.7,2.8-18.5-2.4c-0.2-0.2-0.6-0.2-0.8,0c-6.1,6.7-15.6,0.9-23.6-0.3c5.8-2.5,11.7-8.7,17.5-5.6
	c0.1,0.2,0.2,0.4,0.3,0.5c1.9,3,6.1,3.8,9,1.9c6.1-4.1-2-12.8-6.9-6.6c-0.4,0.6,0.3,1.4,0.8,0.8c4-5.1,10.2,1.7,4.9,5.3
	c-2.3,1.6-5,0.1-6.6-1.8c0.1-0.2,0-0.5-0.2-0.6c-0.1-0.1-0.3-0.2-0.4-0.2c-0.2-0.3-0.3-0.6-0.4-0.8c-1.1-2.7,0.9-5.5,3-7
	c5.1-3.5,12,3.6,17.5,3.5c6.1-0.1,11.8-7.6,7.7-13c-3-3.9-9.6-4.5-11.1,0.8c-0.5,1.6-0.3,3.2,0.3,4.5c-1.3-1.7-1.6-4.3-0.6-6.7
	c1.5-3.5,5.8-4.9,9.2-5.1C57.8,7,65.6,16,62.3,24.2c-0.1,0.1,0,0.2,0,0.3c-4.1,1.9-5.7,6.7-2.7,11.1C62.4,40,69.1,39,70.3,34
	c1.2-4.9-5.2-6.9-7.9-3.3c-0.2,0.3-0.1,0.6,0.2,0.7c0.4,0.2,0.6,0,0.9-0.2c0.6-0.6,1.5-0.9,2.3-1c0.8-0.1,1.6,0.2,2.3,0.6
	c1.8,1.2,1.1,3.8,0,5.2c-1.8,2.4-5.3,1.2-7-0.3c-1.5-1.3-1.9-3.3-2-5.1C58.9,27.3,61.6,25.8,64.2,25.1z"/>
</svg>
