<?xml version="1.0" encoding="utf-8"?>
<!-- Generator: Adobe Illustrator 24.1.1, SVG Export Plug-In . SVG Version: 6.00 Build 0)  -->
<svg version="1.1" id="Calque_3" xmlns="http://www.w3.org/2000/svg" xmlns:xlink="http://www.w3.org/1999/xlink" x="0px" y="0px"
	 viewBox="0 0 37.3 50.3" style="enable-background:new 0 0 37.3 50.3;" xml:space="preserve">
<style type="text/css">
	.st0{display:none;fill:none;}
	.st1{fill:url(#SVGID_1_);}
	.st2{fill:#002B2F;}
</style>
<polygon class="st0" points="35.9,50.4 0.1,50.2 0.1,-0.2 35.9,0 "/>
<linearGradient id="SVGID_1_" gradientUnits="userSpaceOnUse" x1="-29.7427" y1="25.1489" x2="37.2945" y2="25.1489">
	<stop  offset="0.2123" style="stop-color:#023A3D"/>
	<stop  offset="1" style="stop-color:#012B2F"/>
</linearGradient>
<path class="st1" d="M35.6,40c-0.3-0.3-0.6-0.5-0.9-0.7c0.6-2.7-1.1-5.1-3.7-5.6c1.1-1.7,1.4-3.9,1-6c-0.8-3.7-5.1-7.1-8.7-5.7
	c3-11.2-7.4-24.6-19.4-21.3c-5.5,1.5-8,6.5-7.9,11.6c-3.8-4.6-11.7-1-10.6,4.9c-2.5-1.5-5.9-1.4-7.7,1.3c-1.4,2.1-1.7,4.6-1,6.7
	c-5.9-2.3-9.2,7.8-2.9,9.5c1.5,0.4,3.2,0.6,4.7-0.1c-0.3,0.2,2.5,3.4,2.7,3.6c2.1,1.8,4.9,1.4,7,0c2.6,4.6,7.7,6.3,12.5,4.1
	c1.9,2.3,5.4,2.8,7.4,0.3c2.5,5.9,9.3,8.1,14.9,4.5c2.1,2.3,5.6,3.4,8.7,3C36.5,49.5,39.3,43.7,35.6,40z"/>
<path class="st2" d="M-26.3,34.7c1.5,0.4,3.2,0.6,4.7-0.1c-0.3,0.2,2.5,3.4,2.7,3.6c2.1,1.8,4.9,1.4,7,0c2.6,4.6,7.7,6.3,12.5,4.1
	c1.9,2.3,5.4,2.8,7.4,0.3c2.5,5.9,9.3,8.1,14.9,4.5c2.1,2.3,5.6,3.4,8.7,3c4.8-0.6,7.5-6.4,3.8-10.1c-0.3-0.3-0.6-0.5-0.9-0.7
	c0.6-2.7-1.1-5.1-3.7-5.6c1.1-1.7,1.4-3.9,1-6c-0.8-3.7-5.1-7.1-8.7-5.7c3-11.2-7.4-24.6-19.4-21.3c-5.5,1.5-8,6.5-7.9,11.6
	c-3.8-4.6-11.7-1-10.6,4.9c-2.5-1.5-5.9-1.4-7.7,1.3c-1.4,2.1-1.7,4.6-1,6.7C-29.4,22.8-32.6,33-26.3,34.7z M17.7,29
	c-7.1,7.3-19.1,4.5-23.1-4.4c0-0.1-0.1-0.1-0.1-0.2c0.6-1.6-0.1-3.6-1.7-4.3c-0.7-0.3-1.3,0.7-0.6,1c1.9,0.9,1.5,3.2,0,4.2
	c-1.6,1.1-3.6,0.3-5-0.8c-1.3-3.3-5-4.1-7.6-1.6c-0.6,0.5,0.3,1.4,0.8,0.8c3.7-2.4,5.3-1,4.8,4.3c-3,3.8-6.7-0.9-7.6-3
	c-2-5,4.7-10.8,8.4-5.6c0.4,0.6,1.4,0.1,1-0.6c-3.5-6.3,6.3-11,8.8-4c0,0.1,0.1,0.2,0.2,0.3c1.1,5.6,5.1,10.6,11.2,10.8
	c5.4,0.2,8.8-5.1,8-10C14.6,11,8.3,9.5,4.8,12c-0.6,0.4,0,1.5,0.6,1c2.1-1.5,4.2-1.4,6.4-0.3c3.8,1.9,3,6.7,0.9,9.4
	C8,28.2-0.2,22.7-2.2,17.5c-0.3-0.9-0.6-1.8-0.7-2.7c0-0.1,0-0.2,0-0.3c0,0,0,0,0-0.1c-0.4-3.7,1-7.6,3.5-10.4
	c3.9-4.2,10.3-2.9,14.6-0.2C24,9.2,24.5,22,17.7,29z M-23,26.7c0.1,0.1,0.2,0.1,0.3,0.1c0.8,1.4,2,2.5,3.7,3.2
	c2.6,1.1,6.3-1.1,6.5-3.9c1.9,1.1,4.1,1.2,6-0.3c0.1-0.1,0.2-0.1,0.2-0.2c6,12.7,23.1,10.7,28.7-1.3c0.1-0.2,0.2-0.4,0.2-0.6
	c5.1-4.5,12,6.8,5.9,10.8c-2.3,1.5-5.1,0.6-6.4-1.7c-0.5-0.9-0.7-2.2-0.3-3.2c1-2.3,4.6-1,4.6,1.4c0,0.8,1.2,0.7,1.2,0
	c0-3.8-5.4-5.2-7-1.6c-1.3,3.1,1.7,7,4.9,7.1c2,0,3.5-0.7,4.6-1.8c0.1,0.1,0.2,0.1,0.3,0.1c2.1,0.2,3.4,2,3.1,3.9
	c-2.5-1.1-5.6-0.8-7,1.8c-1.9,3.4,3.1,6.9,5.8,4.4c0.6-0.5-0.3-1.3-0.8-0.8c-1.8,1.6-3.9-0.3-4.1-2.3c-0.1-1.6,2-2.3,3.1-2.5
	c3.8-0.5,6.4,3.7,5,7.1c-1.2,3-5.4,2.9-8,2.2c-2.5-0.7-4.8-2.7-5.3-5.3c-0.1-0.8-1.3-0.4-1.1,0.3c0.2,1,0.6,1.8,1.1,2.6
	c-5.3,3.3-11.6,1-13.4-5C8.7,40.7,8,40.5,7.8,41c-1.6,3.2-5.9,2.5-6.9-0.9c-0.2-0.7-1.4-0.4-1.1,0.3c0.1,0.3,0.2,0.6,0.4,0.9
	c-4.3,1.9-8.7,0.2-10.9-3.9c0.3-0.3,0.6-0.5,0.8-0.8c0.5-0.6-0.4-1.4-0.8-0.8c-3.1,3.9-8.5,2.6-9.4-2.3c-0.1-0.4-0.6-0.5-0.9-0.3
	c-2.5,1.3-4.8,0.9-6.8-1.3C-28.3,26.6-26.6,25-23,26.7z"/>
</svg>
