<?xml version="1.0" encoding="utf-8"?>
<!-- Generator: Adobe Illustrator 24.1.1, SVG Export Plug-In . SVG Version: 6.00 Build 0)  -->
<svg version="1.1" id="Calque_1" xmlns="http://www.w3.org/2000/svg" xmlns:xlink="http://www.w3.org/1999/xlink" x="0px" y="0px"
	 viewBox="0 0 100 53.3" style="enable-background:new 0 0 100 53.3;" xml:space="preserve">
<style type="text/css">
	.st0{fill:#D3312E;}
	.st1{fill:url(#SVGID_1_);}
</style>
<path class="st0" d="M18.8,34c3.6,0.7,5.3,4.6,9.1,5.4c2.2,0.5,4.4-0.3,6.2-1.5c1,0.4,2.1,0.7,3.3,0.5c1.9-0.4,3.4-1.3,4.6-2.7
	c3,4.7,9,5,12.5,1.4c2.9,3.3,7.8,3.4,10.8,0.1c0.8,0.5,1.7,1,2.6,1.2c4.5,1.1,9.9-1,13.9-2.7c0.4-0.2,0.3-0.9-0.1-1
	c-4.4-0.9-7.5-5.5-12.3-4c0,0,0,0,0,0c-1.5-3-5-4.6-8.4-3.5c0.5-1.1,0.9-2.3,1-3.6c0.6-6.8-7.9-13.7-13.8-8.5
	c-1.4,1.3-2.5,3.1-2.6,5c-1.9-2.2-5-3.1-8.1-2.2c-4.3,1.2-6.9,6.8-4.8,10.9c-5-0.7-8.3,5.7-13.3,4.1C18.4,32.8,18.1,33.8,18.8,34z"
	/>
<linearGradient id="SVGID_1_" gradientUnits="userSpaceOnUse" x1="10792.8623" y1="50.4041" x2="10831.2227" y2="18.2157" gradientTransform="matrix(-1 0 0 1 10862.2646 0)">
	<stop  offset="0" style="stop-color:#9D4E23"/>
	<stop  offset="0.3368" style="stop-color:#B79236"/>
	<stop  offset="0.4469" style="stop-color:#C9AA51"/>
	<stop  offset="0.5976" style="stop-color:#DFC773"/>
	<stop  offset="0.7432" style="stop-color:#F0DD8D"/>
	<stop  offset="0.8803" style="stop-color:#FAEB9E"/>
	<stop  offset="1" style="stop-color:#FEF0A4"/>
</linearGradient>
<path class="st1" d="M81.6,34.6c-4.4-0.9-7.5-5.5-12.3-4c0,0,0,0,0,0c-1.5-3-5-4.6-8.4-3.5c0.5-1.1,0.9-2.3,1-3.6
	c0.6-6.8-7.9-13.7-13.8-8.5c-1.4,1.3-2.5,3.1-2.6,5c-1.9-2.2-5-3.1-8.1-2.2c-4.3,1.2-6.9,6.8-4.8,10.9c-5-0.7-8.3,5.7-13.3,4.1
	c-0.7-0.1-1,0.9-0.3,1.1c3.6,0.7,5.3,4.6,9.1,5.4c2.2,0.5,4.4-0.3,6.2-1.5c1,0.4,2.1,0.7,3.3,0.5c1.9-0.4,3.4-1.3,4.6-2.7
	c3,4.7,9,5,12.5,1.4c2.9,3.3,7.8,3.4,10.8,0.1c0.8,0.5,1.7,1,2.6,1.2c4.5,1.1,9.9-1,13.9-2.7C82.2,35.4,82.1,34.7,81.6,34.6z
	 M79.8,35.2C77.9,36,76,36.6,73.9,37c-2.1,0.5-12.3,0.9-8.7-4.2c0.4-0.6-0.6-1.2-1-0.6c-1.1,1.6-0.8,3.1,0.1,4.2
	c-2.6,2.8-6.7,2.7-9.2-0.2c0.5-0.6,0.9-1.4,1.2-2.2c0.3-0.7-0.8-1-1.1-0.3c-2.3,6-9.9,6.1-12.8,0.6c-0.2-0.4-0.8-0.3-1,0
	c-3.5,5.5-8.8-0.2-13.7,1.3c-0.7,0.2-0.4,1.3,0.3,1.1c1.9-0.6,3.3,0,4.8,0.7c-3,1.8-6.4,1.1-8.9-1.3c-0.7-0.7-1.4-1.4-2.1-1.9
	c4-0.9,7.1-5.5,11.5-3.9c0.1,0,0.1,0,0.2,0c2.4,2.4,6.7,2.9,8.5-0.4c1.7-3.2-2.4-7.6-5.1-4.2c-0.5,0.6,0.3,1.4,0.8,0.8
	c1.8-2.3,3.5,0.3,3.5,2.1c0.1,2.4-2.7,2.8-4.4,2.5c-3.6-0.7-4.3-4.6-3.4-7.6c1.7-6.2,10.6-5.8,12.6-0.1c0,0,0,0.1,0.1,0.1
	c1.1,2.4,4,4.6,6.8,3.8c6-1.7,2.5-10.1-3.2-7.1c-0.6,0.3-0.1,1.3,0.6,1c4.5-2.4,6.7,4.6,1.8,5.1c-2.5,0.3-4.5-1.8-5.1-4
	c-0.8-2.5,0.3-5,2.5-6.4c2.4-1.5,5.1-1.4,7.5-0.2c5.7,2.9,4.8,11,0.4,14.6c-2.7,2.2-6.2,1.9-8.8-0.3c-0.5-0.5-1.3,0.3-0.8,0.8
	c4.6,3.9,9.9,2,12.7-2.2c0.1,0,0.3,0.1,0.4,0c3.8-1.7,7.9,0.7,8.3,4.8c0.1,0.7,1.2,0.7,1.1,0c-0.1-0.6-0.2-1.1-0.3-1.6
	C73.5,30.5,76.5,33.8,79.8,35.2z"/>
</svg>
