<?xml version="1.0" encoding="utf-8"?>
<!-- Generator: Adobe Illustrator 24.1.1, SVG Export Plug-In . SVG Version: 6.00 Build 0)  -->
<svg version="1.1" id="Calque_1" xmlns="http://www.w3.org/2000/svg" xmlns:xlink="http://www.w3.org/1999/xlink" x="0px" y="0px"
	 viewBox="0 0 100 53.3" style="enable-background:new 0 0 100 53.3;" xml:space="preserve">
<style type="text/css">
	.st0{fill:#D3312E;}
	.st1{fill:url(#SVGID_1_);}
</style>
<g>
	<g>
		<path class="st0" d="M23,38.3c2.1-0.8,4.4-0.8,6.7-0.8c0,0.1,0.1,0.2,0.2,0.3c4.9,3.5,10.7,2.2,16.1,0.7c4,1.2,8.3,1.5,11.5-0.8
			c2.4,0.7,4.7,0.7,7.1,0.3c4.2-0.6,8.4,0.4,12.6,0.5c4.9,0.1,12-0.1,15.1-4.6c0.3-0.4-0.2-0.9-0.6-0.8c-3.9,0.7-7.6,0.5-11.2-1.3
			c-2.3-1.1-4.1-2.5-6.6-3.1l0,0c-0.9-2.3-3.8-3.5-6.3-2.8c-0.7-3.2-3.6-5-6.9-4.2c0.6-5.5-3-10.8-8.9-12.5
			c-5.2-1.5-10.8,1.3-13.2,5.6c-9.3-2.4-15.5,7.5-11.4,14.6c-6.9-0.3-12.1,5.2-19.3,4.6c-0.5,0-0.7,0.6-0.4,1
			C11.1,38.9,18.1,40.2,23,38.3z"/>
	</g>
</g>
<linearGradient id="SVGID_1_" gradientUnits="userSpaceOnUse" x1="10787.7197" y1="99.083" x2="10837.3652" y2="57.4245" gradientTransform="matrix(-1 0 0 1 10862.2646 -44)">
	<stop  offset="0" style="stop-color:#9D4E23"/>
	<stop  offset="0.3368" style="stop-color:#B79236"/>
	<stop  offset="0.4469" style="stop-color:#C9AA51"/>
	<stop  offset="0.5976" style="stop-color:#DFC773"/>
	<stop  offset="0.7432" style="stop-color:#F0DD8D"/>
	<stop  offset="0.8803" style="stop-color:#FAEB9E"/>
	<stop  offset="1" style="stop-color:#FEF0A4"/>
</linearGradient>
<path class="st1" d="M92.2,34c0.3-0.4-0.2-0.9-0.6-0.8c-3.9,0.7-7.6,0.5-11.2-1.3c-2.3-1.1-4.1-2.5-6.6-3.1l0,0
	c-0.9-2.3-3.8-3.5-6.3-2.8c-0.7-3.2-3.6-5-6.9-4.2c0.6-5.5-3-10.8-8.9-12.5c-5.2-1.5-10.8,1.3-13.2,5.6c-9.3-2.4-15.5,7.5-11.4,14.6
	c-6.9-0.3-12.1,5.2-19.3,4.6c-0.5,0-0.7,0.6-0.4,1C11,39,18,40.2,22.9,38.4c2.1-0.8,4.4-0.8,6.7-0.8c0,0.1,0.1,0.2,0.2,0.3
	c4.9,3.5,10.7,2.2,16.1,0.7c4,1.2,8.3,1.5,11.5-0.8c2.4,0.7,4.7,0.7,7.1,0.3c4.2-0.6,8.4,0.4,12.6,0.5C82.1,38.6,89.1,38.4,92.2,34z
	 M31.7,37.6c1.5,0,3,0,4.5-0.2c1.4-0.2,2.7-0.7,3.8-1.4l0.1,0.1c1.2,0.6,2.5,1.2,3.9,1.7C39.9,39,35.5,39.7,31.7,37.6z M57.3,26.8
	c-0.1,0.1-0.1,0.2-0.1,0.2c-0.2-0.1-0.4-0.2-0.6-0.3c-3.4-1.3-8.6,3.1-6,6.5c2.1,2.8,6.1,2.2,7.2-1.2c0.1-0.5-0.4-0.8-0.8-0.6
	c-0.2,0.1-0.3,0.5-0.4,0.7c-0.1,0.3-0.3,0.6-0.5,0.8c-0.7,0.8-1.9,1.3-2.9,0.9c-0.8-0.3-1.5-0.8-1.7-1.7c-0.2-0.8-0.1-1.7,0.3-2.4
	c0.1-0.2,0.3-0.5,0.5-0.7c0.3-0.4,0.7-0.7,1.1-1c0.7-0.4,1.6-0.5,2.4-0.4c0.8,0.1,1.4,0.5,2.1,1c1,0.8,1.8,1.8,1.9,3.1
	c0.1,1-0.2,1.9-0.7,2.8c-0.4,0.8-1,1.4-1.8,1.9c-0.1,0-0.1,0.1-0.2,0.1c-0.8,0.5-1.8,0.9-2.7,1.1c-2.5,0.7-5.3,0.4-8-0.4
	c-0.1-0.1-0.2-0.1-0.3-0.1c-1.8-0.6-3.5-1.3-4.9-2c1.1-0.8,2.1-1.8,2.8-3c0.4-0.6-0.6-1.2-1-0.6c-4.4,6.8-11.6,3.6-18.1,4.9
	c-2.8,0.5-5.1,1.3-8,1.2c-2.8-0.1-5.3-0.9-7.4-2.6c2.3,0,4.5-0.4,6.7-1.2c4.2-1.6,7.1-4.1,11.9-3.5c0.7,0.8,1.5,1.6,2.5,2.3
	c0.6,0.4,1.2-0.6,0.6-1c-1-0.7-1.7-1.4-2.4-2.2l0,0c-4.7-6.2,0.8-15.9,9.4-13.8c-0.8,2-1,4.3-0.2,6.7c2.1,6.2,12.8,7.2,12.4-0.6
	c-0.2-4.8-8.2-5.4-7.6,0.1c0.1,0.7,1.2,0.7,1.1,0c-0.3-2.6,1.8-3.5,3.8-2.4c1.3,0.9,1.8,2.2,1.5,3.9c-0.4,2.6-3.7,3.2-5.6,2.8
	c-3.2-0.6-4.8-4.1-5.1-6.9c-0.3-3.1,2-5.9,4.3-7.7c4.2-3.2,10.3-2,14,1.3C60.7,16.6,60.3,22.9,57.3,26.8z M90.3,34.4
	c-3.8,3.6-11.2,3.1-15.9,2.9c-2.6-0.1-5.2-0.6-7.8-0.7c-2.9-0.1-5.4,0.8-8.2,0.2c2.9-2.9,2.9-7.1-0.4-9.3c0.1,0,0.2-0.1,0.2-0.2
	c1.1-1.4,1.8-3,2.2-4.6c0.1,0,0.2,0,0.3,0c2.8-0.9,5.5,0.7,5.8,3.8c0,0.5,0.4,0.7,0.8,0.5c2.7-1.1,5.4,0.5,5.6,3.4
	c0.2,3.8-4.6,4.8-6.9,2.4c-0.5-0.5-1.3,0.3-0.8,0.8c3,3.1,7.9,1.7,8.7-2.5c0.1-0.5,0.1-0.9,0.1-1.3c3.2,1,5.9,3.2,9.2,4.2
	C85.6,34.8,88,34.8,90.3,34.4z"/>
</svg>
