<?xml version="1.0" encoding="utf-8"?>
<!-- Generator: Adobe Illustrator 24.1.1, SVG Export Plug-In . SVG Version: 6.00 Build 0)  -->
<svg version="1.1" id="Calque_1" xmlns="http://www.w3.org/2000/svg" xmlns:xlink="http://www.w3.org/1999/xlink" x="0px" y="0px"
	 viewBox="0 0 100 53.3" style="enable-background:new 0 0 100 53.3;" xml:space="preserve">
<style type="text/css">
	.st0{fill:#D3312E;}
	.st1{fill:url(#SVGID_1_);}
</style>
<path class="st0" d="M98.9,33c-4.7,0.9-9.2-3-12.9-5.4c-0.3-0.2-0.5-0.1-0.7-0.1c-0.8-4.6-4.2-8.7-8.6-10.6c0.2-0.1,0.3-0.3,0.3-0.6
	c-0.2-3.8-3.8-6.5-7.5-5.2c-0.2,0.1-0.3,0.2-0.4,0.3c-1-3-3-5.6-6.2-7C61,3.6,58.9,3.9,57,4.3c-1.2,0.3-4.8,3.3-5,3
	C46.3,0.6,34.8,3,32.8,9.5c-4.3-1.5-8.9,1.8-8.2,6.6c0.1,0.6,0.7,0.9,1.1,0.7c-1.2,0.2-2.3,0.7-3.4,1.3c-3.7,2.1-5.2,6.7-4.5,10.8
	c-0.1,0.1-0.3,0.1-0.4,0.3C13.6,34.8,5.5,32,0.6,36.2c-0.6,0.5,0,1.6,0.8,1.4c6.8-2.2,13.5,7.8,19.7,2.2c2.2,4.5,7.3,6.3,11.8,3.9
	c0.5,2.3,2.1,4.3,4.5,5.6c4.4,2.5,10,0.5,13.4-2.7c5.4,5.2,14.9,3.3,17.5-4.6c4.8,1.4,9.9,0.1,13.5-3.7c0.1,0.1,0.2,0.1,0.3,0.1
	c6.3,2,12.9,0.4,17.7-4.2C100.3,33.7,99.7,32.8,98.9,33z"/>
<linearGradient id="SVGID_1_" gradientUnits="userSpaceOnUse" x1="10783.4268" y1="59.1781" x2="10840.666" y2="11.1488" gradientTransform="matrix(-1 0 0 1 10862.2646 0)">
	<stop  offset="0" style="stop-color:#9D4E23"/>
	<stop  offset="0.3368" style="stop-color:#B79236"/>
	<stop  offset="0.4469" style="stop-color:#C9AA51"/>
	<stop  offset="0.5976" style="stop-color:#DFC773"/>
	<stop  offset="0.7432" style="stop-color:#F0DD8D"/>
	<stop  offset="0.8803" style="stop-color:#FAEB9E"/>
	<stop  offset="1" style="stop-color:#FEF0A4"/>
</linearGradient>
<path class="st1" d="M0.6,36.2c-0.6,0.5,0,1.6,0.8,1.4c6.8-2.2,13.5,7.8,19.7,2.2c2.2,4.5,7.3,6.3,11.8,3.9c0.5,2.3,2.1,4.3,4.5,5.6
	c4.4,2.5,10,0.5,13.4-2.7c5.4,5.2,14.9,3.3,17.5-4.6c4.8,1.4,9.9,0.1,13.5-3.7c0.1,0.1,0.2,0.1,0.3,0.1c6.3,2,12.9,0.4,17.7-4.2
	c0.6-0.6,0-1.5-0.8-1.4c-4.7,0.9-9.2-3-12.9-5.4c-0.3-0.2-0.5-0.1-0.7-0.1c-0.8-4.6-4.2-8.7-8.6-10.6c0.2-0.1,0.3-0.3,0.3-0.6
	c-0.2-3.8-3.8-6.5-7.5-5.2c-0.2,0.1-0.3,0.2-0.4,0.3c-1-3-3-5.6-6.2-7C61,3.6,58.9,3.9,57,4.3c-1.2,0.3-4.8,3.3-5,3
	C46.3,0.6,34.8,3,32.8,9.5c-4.3-1.5-8.9,1.8-8.2,6.6c0.1,0.6,0.7,0.9,1.1,0.7c-1.2,0.2-2.3,0.7-3.4,1.3c-3.7,2.1-5.2,6.7-4.5,10.8
	c-0.1,0.1-0.3,0.1-0.4,0.3C13.6,34.8,5.5,32,0.6,36.2z M68.1,16.7c-3.1,1.2-5.5,3.8-6.2,7.1c-0.2-0.7-0.4-1.4-0.8-2.1
	c-5.4-10.4-18.4-8.9-25.4-1.2c-2.3-3.1-6.2-4.4-10-3.6c0.3-0.1,0.4-0.3,0.4-0.7c-0.5-3.7,2.9-6.4,6.3-5c-0.1,1.7,0.4,3.7,1.8,5.8
	c0.6,0.9,2,0.1,1.4-0.8c-3-4.6-0.6-9.5,4.4-11.2c4.6-1.6,9.1,1.6,11.9,4.9c0.3,0.4,1,0.3,1.3-0.2c2-3.9,6.2-4.9,10-3.2
	C67.1,8.1,68.2,12.9,68.1,16.7z M75.3,16.5c-0.1,0-0.1-0.1-0.2-0.1c-1.9-0.6-3.7-0.6-5.4-0.2c0-1.2-0.1-2.4-0.4-3.5
	c0.2,0.1,0.3,0.1,0.5,0c2.7-0.9,5.3,0.8,5.4,3.7C75.3,16.4,75.3,16.4,75.3,16.5z M82.8,37.1c0.2-0.3,0.4-0.5,0.6-0.8
	c1.5-2.3,2.1-4.7,2-7.1c3.5,2.2,7.2,5.1,11.3,5.4C92.8,37.6,87.7,38.4,82.8,37.1z M4.3,35.8c4.7-2,10.3-0.6,13.9-5
	c0.6,1.7,1.6,3.2,3.1,4.3c5.1,3.9,13.2,2.1,13.3-5.2c0.2-6.3-9-8.5-11.6-2.9c-0.4,0.9,1,1.8,1.4,0.8c3.2-6.8,13.1,2.1,5.7,7
	c-5.2,3.5-10.4-2.7-11-7.4C18,17.1,33.4,14.8,36,24.7c0.3,1,1.8,0.6,1.6-0.4c-0.2-0.9-0.6-1.7-1-2.4c4.2-4.8,10-7.3,16.3-5.4
	c7.4,2.1,9.2,10.4,5.7,16.5c-3.2,5.6-12.8,7-16.6,1.2c-1.2-1.9-1-4.5-0.4-6.5c2.2-8.3,12.8,0.4,7.1,3.6c-0.9,0.5-0.1,1.9,0.8,1.4
	c6.7-3.8-0.7-12.6-6.8-9.3c-2.9,1.6-3.5,5.8-3.1,8.7c0.5,4.2,4,6.4,7.9,7.4c6.9,1.7,13.3-4.2,14.5-10.7c1.9,6.5,11.5,5.8,13.2-0.4
	c0.3-1-1.3-1.4-1.6-0.4c-1.1,3.9-5.5,5-8.6,2.6c-2.6-2.1-2.2-6.1-0.8-8.6c3.5-6.6,12.7-4,16.7,0.2c4.3,4.5,3.3,11.2-0.3,15.6
	C76.4,42.5,68.7,41.9,64,38c-0.8-0.7-2,0.5-1.1,1.1c1.2,1,2.5,1.8,3.8,2.3c-2.7,8.2-13.6,8.7-17.1,0.6c-0.4-1-1.8-0.1-1.4,0.8
	c0.4,0.9,0.9,1.7,1.5,2.5c-3.8,3.6-9.7,4.7-13.8,0.8c-2.6-2.5-1.9-6.7,0.9-8.6c4.3-2.9,8.4,4.8,3.2,6.3c-1,0.3-0.6,1.9,0.4,1.6
	c3-0.9,5.3-4.9,2.9-7.7c-2.5-3-7.5-3.2-9.6,0.5c-0.7,1.2-1,2.4-1,3.5c-4.2,2.6-8.9,1-10.6-3.8c-0.2-0.5-0.9-0.8-1.4-0.4
	C16.2,43,10.1,36.8,4.3,35.8z"/>
</svg>
