<?xml version="1.0" encoding="utf-8"?>
<!-- Generator: Adobe Illustrator 24.1.1, SVG Export Plug-In . SVG Version: 6.00 Build 0)  -->
<svg version="1.1" id="Calque_1" xmlns="http://www.w3.org/2000/svg" xmlns:xlink="http://www.w3.org/1999/xlink" x="0px" y="0px"
	 viewBox="0 0 49.4 50.3" style="enable-background:new 0 0 49.4 50.3;" xml:space="preserve">
<style type="text/css">
	.st0{fill:url(#SVGID_1_);}
	.st1{fill:#002B2F;}
</style>
<linearGradient id="SVGID_1_" gradientUnits="userSpaceOnUse" x1="-0.3399" y1="25.1764" x2="34.833" y2="25.1764">
	<stop  offset="5.586586e-03" style="stop-color:#012B2F"/>
	<stop  offset="1" style="stop-color:#023A3D"/>
</linearGradient>
<path class="st0" d="M34.1,50.4H-0.3V0c6.1-0.2,12.4,2,17.2,6.5c0.7,0.6,1.3,1.3,1.9,2c0.2,0.2,0.3,0.4,0.5,0.6
	c0.2,0.2,0.3,0.4,0.5,0.6c5.7,7.7,7.2,17.8,1.4,25.9l-0.1,0.1c0.1,0,0.1,0,0.2,0c3.7-0.6,7.5,0.3,10.3,3c0.1,0.1,0.3,0.3,0.4,0.4
	c0.2,0.2,0.3,0.4,0.5,0.5c0.1,0.2,0.3,0.4,0.4,0.6C34.8,43.2,35.5,47.3,34.1,50.4z"/>
<path class="st1" d="M-0.3,13.6v2c2.2-0.3,4.5,1.3,4.9,6.8c0.3,4-1.9,6.5-4.9,7.9v2c3.5-1.5,6.4-4.3,6.6-8.3
	C6.5,19.1,4.2,13.4-0.3,13.6z M-0.3,13.6v2c2.2-0.3,4.5,1.3,4.9,6.8c0.3,4-1.9,6.5-4.9,7.9v2c3.5-1.5,6.4-4.3,6.6-8.3
	C6.5,19.1,4.2,13.4-0.3,13.6z M32.8,40.3c-0.2-0.2-0.3-0.5-0.5-0.7c-0.1-0.2-0.3-0.4-0.5-0.5c-0.1-0.2-0.3-0.3-0.4-0.4
	c-2.8-2.7-6.7-3.5-10.4-2.8l0.1-0.1c0,0,0,0,0,0c5.7-8.1,4.2-18.1-1.4-25.9c-0.2-0.2-0.4-0.5-0.6-0.7c-0.1-0.2-0.3-0.4-0.5-0.6
	c-0.6-0.7-1.2-1.4-1.9-2C12.1,2.1,5.7-0.1-0.3,0.1v1.1c10.3-0.1,19.9,8,22.9,17.9c2,6.8-0.5,13.7-5.2,17.9c-0.1,0.1-0.2,0.1-0.3,0.2
	c-4.2,3.7-9.8,5.2-15.6,2.9c-1-0.4-1.4,1.2-0.4,1.7c6,2.4,13,0.8,17.8-3.7c6.3-2.9,13.7,0.6,14.6,8c0.2,1.7-0.3,3.1-1.1,4.2h2
	C35.6,47.3,34.9,43.3,32.8,40.3z M25.2,44.3c-3.6-2.9-7.8,0.1-7.7,4.4c0,0.6,0.1,1.2,0.3,1.7h1.9c-1.4-2.9,1.1-7.4,4.4-4.8
	C24.8,46.2,26,45,25.2,44.3z M-0.3,13.6v2c2.2-0.3,4.5,1.3,4.9,6.8c0.3,4-1.9,6.5-4.9,7.9v2c3.5-1.5,6.4-4.3,6.6-8.3
	C6.5,19.1,4.2,13.4-0.3,13.6z M-0.3,13.6v2c2.2-0.3,4.5,1.3,4.9,6.8c0.3,4-1.9,6.5-4.9,7.9v2c3.5-1.5,6.4-4.3,6.6-8.3
	C6.5,19.1,4.2,13.4-0.3,13.6z"/>
</svg>
