<svg version="1.1" id="Calque_1" xmlns="http://www.w3.org/2000/svg" x="0" y="0" viewBox="0 0 47.7 100" xml:space="preserve" enable-background="new 0 0 47.7 100"><style>.st5{fill:#db0d15}</style><defs><filter id="Adobe_OpacityMaskFilter" filterUnits="userSpaceOnUse" x="10.1" y="58.4" width="34.9" height="34.9"><feFlood result="back" flood-color="#fff" flood-opacity="1"/><feBlend in="SourceGraphic" in2="back"/></filter></defs><mask maskUnits="userSpaceOnUse" x="10.1" y="58.4" width="34.9" height="34.9" id="SVGID_1_"><g filter="url(#Adobe_OpacityMaskFilter)"><defs><filter id="Adobe_OpacityMaskFilter_1_" filterUnits="userSpaceOnUse" x="10.1" y="58.4" width="34.9" height="34.9"><feFlood result="back" flood-color="#fff" flood-opacity="1"/><feBlend in="SourceGraphic" in2="back"/></filter></defs><radialGradient id="SVGID_2_" cx="24.569" cy="68.416" r="17.445" gradientTransform="translate(3.12 7.341)" gradientUnits="userSpaceOnUse"><stop offset="0" stop-color="#fff"/><stop offset=".132" stop-color="#d7d7d7"/><stop offset=".454" stop-color="#7c7c7c"/><stop offset=".715" stop-color="#393939"/><stop offset=".903" stop-color="#101010"/><stop offset="1"/></radialGradient><circle cx="27.6" cy="75.8" r="17.4" mask="url(#SVGID_1_)" fill="url(#SVGID_2_)"/></g></mask><radialGradient id="SVGID_3_" cx="24.569" cy="68.416" r="17.445" gradientTransform="translate(3.12 7.341)" gradientUnits="userSpaceOnUse"><stop offset="0" stop-color="#1e2145"/><stop offset=".036" stop-color="#282b4d"/><stop offset=".394" stop-color="#838498"/><stop offset=".684" stop-color="#c6c7d0"/><stop offset=".893" stop-color="#efeff2"/><stop offset="1" stop-color="#fff"/></radialGradient><circle cx="27.6" cy="75.8" r="17.4" fill="url(#SVGID_3_)"/><g><path d="M32.5 71.5c-.1-.7-.2-1.5-.5-2.1-.3-.8-.6-1.5-1.1-2.1-.5-.8-1.2-1.5-2-2.1-1.7-1.3-3.8-2.2-6-2.2h-4.4c-2.3 0-4.4.8-6.1 2.1-.8.6-1.4 1.3-2 2.1-.4.7-.8 1.4-1.1 2.1-.1.7-.3 1.4-.4 2.2 0 .4-.1.7-.1 1.1 0 .4 0 .7.1 1.1.1.7.2 1.5.5 2.1.3.8.6 1.5 1.1 2.1.5.8 1.2 1.5 2 2.1 1.7 1.3 3.8 2.2 6 2.2h4.4c2.3 0 4.4-.8 6.1-2.1.8-.6 1.4-1.3 2-2.1.4-.7.8-1.4 1.1-2.1.2-.7.4-1.4.5-2.1 0-.4.1-.7.1-1.1-.1-.5-.1-.9-.2-1.2z" fill="#60c2d1"/><path class="st5" d="M12.4 80c1.7 1.3 3.8 2.2 6 2.2h4.4c2.3 0 4.4-.8 6.1-2.1L12.4 80z"/><linearGradient id="SVGID_4_" gradientUnits="userSpaceOnUse" x1="17.719" y1="72.683" x2="17.719" y2="74.829" gradientTransform="translate(3.12 7.341)"><stop offset="0" stop-color="#020203"/><stop offset="1" stop-color="#fff"/></linearGradient><path d="M12.4 80c1.7 1.3 3.8 2.2 6 2.2h4.4c2.3 0 4.4-.8 6.1-2.1L12.4 80z" opacity=".33" fill="url(#SVGID_4_)"/><path class="st5" d="M12.3 80.3h16.8c.8-.6 1.4-1.4 2-2.2H10.3c.6.9 1.2 1.6 2 2.2z"/><linearGradient id="SVGID_5_" gradientUnits="userSpaceOnUse" x1="17.719" y1="70.774" x2="17.719" y2="72.954" gradientTransform="translate(3.12 7.341)"><stop offset="0" stop-color="#020203"/><stop offset="1" stop-color="#fff"/></linearGradient><path d="M12.3 80.3h16.8c.8-.6 1.4-1.4 2-2.2H10.3c.6.9 1.2 1.6 2 2.2z" opacity=".33" fill="url(#SVGID_5_)"/><path class="st5" d="M10.1 78.4h21.2c.5-.7.8-1.4 1.1-2.2H9c.3.8.6 1.5 1.1 2.2z"/><linearGradient id="SVGID_6_" gradientUnits="userSpaceOnUse" x1="17.718" y1="68.853" x2="17.718" y2="71.078" gradientTransform="translate(3.12 7.341)"><stop offset="0" stop-color="#020203"/><stop offset="1" stop-color="#fff"/></linearGradient><path d="M10.1 78.4h21.2c.5-.7.8-1.4 1.1-2.2H9c.3.8.6 1.5 1.1 2.2z" opacity=".33" fill="url(#SVGID_6_)"/><path class="st5" d="M8.8 76.5h23.9c.3-.7.4-1.5.5-2.3H8.3c0 .8.2 1.5.5 2.3z"/><linearGradient id="SVGID_7_" gradientUnits="userSpaceOnUse" x1="17.718" y1="66.837" x2="17.718" y2="69.102" gradientTransform="translate(3.12 7.341)"><stop offset="0" stop-color="#020203"/><stop offset="1" stop-color="#fff"/></linearGradient><path d="M8.8 76.5h23.9c.3-.7.4-1.5.5-2.3H8.3c0 .8.2 1.5.5 2.3z" opacity=".33" fill="url(#SVGID_7_)"/><path class="st5" d="M7.9 73.3c0 .4 0 .8.1 1.2h25.5c0-.4.1-.8.1-1.2 0-.4 0-.8-.1-1.2H8c-.1.4-.1.8-.1 1.2z"/><linearGradient id="SVGID_8_" gradientUnits="userSpaceOnUse" x1="17.718" y1="64.797" x2="17.718" y2="67.119" gradientTransform="translate(3.12 7.341)"><stop offset="0" stop-color="#020203"/><stop offset="1" stop-color="#fff"/></linearGradient><path d="M7.9 73.3c0 .4 0 .8.1 1.2h25.5c0-.4.1-.8.1-1.2 0-.4 0-.8-.1-1.2H8c-.1.4-.1.8-.1 1.2z" opacity=".33" fill="url(#SVGID_8_)"/><path class="st5" d="M7.6 72.4h26.2c-.1-.8-.3-1.6-.5-2.4H8.2c-.3.8-.5 1.5-.6 2.4z"/><linearGradient id="SVGID_9_" gradientUnits="userSpaceOnUse" x1="17.718" y1="62.645" x2="17.718" y2="65.023" gradientTransform="translate(3.12 7.341)"><stop offset="0" stop-color="#020203"/><stop offset="1" stop-color="#fff"/></linearGradient><path d="M7.6 72.4h26.2c-.1-.8-.3-1.6-.5-2.4H8.2c-.3.8-.5 1.5-.6 2.4z" opacity=".33" fill="url(#SVGID_9_)"/><path class="st5" d="M7.8 70.2h25.8c-.3-.9-.7-1.7-1.2-2.5H9.1c-.6.8-1 1.6-1.3 2.5z"/><linearGradient id="SVGID_10_" gradientUnits="userSpaceOnUse" x1="17.718" y1="60.409" x2="17.718" y2="62.858" gradientTransform="translate(3.12 7.341)"><stop offset="0" stop-color="#020203"/><stop offset="1" stop-color="#fff"/></linearGradient><path d="M7.8 70.2h25.8c-.3-.9-.7-1.7-1.2-2.5H9.1c-.6.8-1 1.6-1.3 2.5z" opacity=".33" fill="url(#SVGID_10_)"/><path class="st5" d="M8.6 67.9h24.3c-.6-1-1.4-1.8-2.3-2.6H11c-1 .7-1.8 1.6-2.4 2.6z"/><linearGradient id="SVGID_11_" gradientUnits="userSpaceOnUse" x1="17.718" y1="57.961" x2="17.718" y2="60.513" gradientTransform="translate(3.12 7.341)"><stop offset="0" stop-color="#020203"/><stop offset="1" stop-color="#fff"/></linearGradient><path d="M8.6 67.9h24.3c-.6-1-1.4-1.8-2.3-2.6H11c-1 .7-1.8 1.6-2.4 2.6z" opacity=".33" fill="url(#SVGID_11_)"/><path class="st5" d="M31.2 65.6c-2.1-1.7-4.8-2.7-7.7-2.7h-5.6c-2.9 0-5.6 1-7.7 2.7h21z"/><radialGradient id="SVGID_12_" cx="20.064" cy="59.768" r="17.264" gradientTransform="translate(3.12 7.341)" gradientUnits="userSpaceOnUse"><stop offset=".121" stop-color="#be9243"/><stop offset=".343" stop-color="#eddd8b"/><stop offset=".438" stop-color="#bc9c41"/><stop offset=".504" stop-color="#a1781d"/><stop offset=".543" stop-color="#8f6616"/><stop offset=".57" stop-color="#865e13"/><stop offset=".828" stop-color="#9a7127"/><stop offset="1" stop-color="#a37b31"/></radialGradient><path fill="url(#SVGID_12_)" d="M26.9 63.2H14.5v-1l12.4.1z"/><g><radialGradient id="SVGID_13_" cx="3.862" cy="75.137" r="46.194" gradientTransform="translate(3.12 7.341)" gradientUnits="userSpaceOnUse"><stop offset=".121" stop-color="#be9243"/><stop offset=".343" stop-color="#eddd8b"/><stop offset=".438" stop-color="#bc9c41"/><stop offset=".504" stop-color="#a1781d"/><stop offset=".543" stop-color="#8f6616"/><stop offset=".57" stop-color="#865e13"/><stop offset=".828" stop-color="#9a7127"/><stop offset="1" stop-color="#a37b31"/></radialGradient><path d="M20.9 93.3v-.8h-.4v.8c-.4.1-.7.4-.7.9 0 .2.1.4.2.5v4.5h1.4v-4.5c.1-.1.2-.3.2-.5 0-.5-.3-.8-.7-.9z" fill="url(#SVGID_13_)"/><radialGradient id="SVGID_14_" cx="3.862" cy="75.137" r="46.193" gradientTransform="translate(3.12 7.341)" gradientUnits="userSpaceOnUse"><stop offset=".121" stop-color="#be9243"/><stop offset=".343" stop-color="#eddd8b"/><stop offset=".438" stop-color="#bc9c41"/><stop offset=".504" stop-color="#a1781d"/><stop offset=".543" stop-color="#8f6616"/><stop offset=".57" stop-color="#865e13"/><stop offset=".828" stop-color="#9a7127"/><stop offset="1" stop-color="#a37b31"/></radialGradient><path fill="url(#SVGID_14_)" d="M14.5 81.4v.9h6v4.6h.4v-4.6h6v-.9z"/></g><radialGradient id="SVGID_15_" cx="17.874" cy="2.972" r="114.487" gradientTransform="translate(3.12 7.341)" gradientUnits="userSpaceOnUse"><stop offset=".121" stop-color="#be9243"/><stop offset=".343" stop-color="#eddd8b"/><stop offset=".438" stop-color="#bc9c41"/><stop offset=".504" stop-color="#a1781d"/><stop offset=".543" stop-color="#8f6616"/><stop offset=".57" stop-color="#865e13"/><stop offset=".828" stop-color="#9a7127"/><stop offset="1" stop-color="#a37b31"/></radialGradient><path fill="url(#SVGID_15_)" d="M20.7-1.9l-.2 64.2h.4L21-1.9z"/><path class="st5" d="M25.1 88.8c-.4-.4-.9-.4-1.4-.2 0-.1.1-.2 0-.4 0-.2-.1-.4-.3-.6-.2-.1-.4-.2-.6-.2-.3.1-.6.3-.7.7v.2l-1.3-1h-.2l-1.3 1v-.2c-.1-.4-.3-.6-.7-.7-.2 0-.5 0-.6.2-.2.1-.3.3-.3.6v.4c-.5-.2-1-.1-1.4.2-.2.2-.4.6-.4.9 0 .3.1.7.4.9.2.2.5.3.9.3.2 0 .4 0 .5-.1 0 .1-.1.2 0 .4 0 .2.1.4.3.6.1.1.3.2.5.2h.1c.3-.1.6-.3.7-.7v-.2l1.3 1h.2l1.3-1v.2c.1.4.3.6.7.7h.1c.2 0 .4-.1.5-.2.2-.1.3-.3.3-.6v-.4c.2.1.3.1.5.1.3 0 .6-.1.9-.3.2-.2.4-.6.4-.9 0-.3-.2-.7-.4-.9zm-2.8-.6c0-.2.2-.4.5-.5h.1c.1 0 .2 0 .3.1.1.1.2.2.2.4s-.1.5-.3.6l-.3.2-.5-.4v-.4zm-.3 2.2c-.2 0-.3-.1-.3-.3.1 0 .2-.1.3-.2.1.1.2.2.3.2 0 .2-.1.3-.3.3zm-1-.8c0 .2-.1.3-.3.3-.2 0-.3-.1-.3-.3.1 0 .2-.1.3-.2.1.1.2.1.3.2zm-.1-.6c.1 0 .2-.1.3-.2.1.1.2.2.3.2 0 .2-.1.3-.3.3-.2 0-.3-.1-.3-.3zm-.3 0c0 .2-.1.3-.3.3-.2 0-.3-.1-.3-.3.1 0 .2-.1.3-.2.1.1.2.2.3.2zm-.4.6c0 .2-.1.3-.3.3-.2 0-.3-.1-.3-.3.1 0 .2-.1.3-.2 0 .1.1.1.3.2zm.1.3c.1.1.2.2.3.2 0 .2-.1.3-.3.3-.2 0-.3-.1-.3-.3.1 0 .2-.1.3-.2zm.4.6c.1.1.2.2.3.2 0 .2-.1.3-.3.3-.2 0-.3-.1-.3-.3.1-.1.2-.1.3-.2zm.2-.4c.1 0 .2-.1.3-.2.1.1.2.2.3.2 0 .2-.1.3-.3.3-.2 0-.3-.1-.3-.3zm.4-.5c.1 0 .2-.1.3-.2.1.1.2.2.3.2 0 .2-.1.3-.3.3-.2 0-.3-.2-.3-.3zm1-.6c0 .2-.1.3-.3.3-.2 0-.3-.1-.3-.3.1 0 .2-.1.3-.2.1.1.2.2.3.2zm-.1.6c.1 0 .2-.1.3-.2.1.1.2.2.3.2 0 .2-.1.3-.3.3-.2 0-.3-.2-.3-.3zm.7.3s0 .1 0 0l-.3.3v-.1c.1 0 .2-.1.3-.2zm-1-1.3c0 .1-.2.2-.3.2-.2 0-.3-.1-.3-.3.1 0 .2-.1.3-.1l.3.2zm-.9-.7l.4.3s-.1.1-.2.1c-.2 0-.3-.1-.3-.3 0-.1 0-.1.1-.1zm-.3-.2zm0 .6c.1.1.2.2.3.2 0 .2-.1.3-.3.3s-.3-.1-.3-.3c.1 0 .2-.1.3-.2zm-.3-.4c.1 0 .1.1.2.1 0 .2-.1.3-.3.3-.1 0-.2 0-.2-.1l.3-.3zm-.5.4c.1.1.2.1.3.2 0 .2-.1.3-.3.3-.1 0-.3-.1-.3-.2l.3-.3zm-.2.7c0 .2-.1.3-.3.3-.2 0-.3-.1-.3-.3.1 0 .2-.1.3-.2.1.1.2.2.3.2zm-.9.1c0 .1-.1.1-.2.2l.2-.2zm-.5.7l-.1-.1.2-.2h.1c-.1.2-.1.3-.2.3zm.2.2c.1 0 .2.1.4.1v.1l-.4-.2zm.2-.4c.1 0 .2-.1.3-.2.1.1.2.2.3.2 0 .2-.1.3-.3.3-.2 0-.3-.2-.3-.3zm-.8-1.4c0-.2.1-.3.2-.4.1-.1.2-.1.3-.1h.1c.2 0 .4.2.5.5l.1.4-.5.4-.4-.2c-.2-.1-.3-.3-.3-.6zm-.3 2.4c-.4.2-.9.1-1.1-.2-.2-.2-.3-.4-.3-.7 0-.3.1-.5.3-.7.2-.2.4-.3.7-.3.2 0 .3 0 .5.1l.7.4-.5.4-.1.1s0 .1.1.1l.5.4-.8.4zm1.4.6c0 .2-.2.4-.5.5-.2 0-.3 0-.4-.1-.1-.1-.2-.2-.2-.4s.1-.5.3-.6l.4-.2.5.4-.1.4zm.1-1.1c.1 0 .2-.1.3-.2.1.1.2.2.3.2 0 .2-.1.3-.3.3-.2 0-.3-.1-.3-.3zm.4.6c.1 0 .2-.1.3-.2.1.1.2.2.3.2 0 .2-.1.3-.3.3-.1-.1-.3-.2-.3-.3zm1.1.5c0 .1-.1.2-.2.3l-.4-.3c.1 0 .2-.1.3-.2.1.1.2.2.3.2zm.1.5v-.2l.1.1-.1.1zm.3-.2c-.1 0-.2-.1-.2-.2.1 0 .2-.1.3-.2l.2.2-.3.2zm.9-.8v.1l-.2.1h-.1c-.2 0-.3-.1-.3-.3.1 0 .2-.1.3-.2.1.2.2.2.3.3zm1.6.5c0 .2-.1.3-.2.4-.1.1-.3.1-.4.1-.2 0-.4-.2-.5-.5l-.1-.4.5-.4.4.2c.2.1.3.3.3.6zm1.4-.8c-.3.3-.8.4-1.2.2l-.7-.4.5-.4.1-.1s0-.1-.1-.1l-.5-.4.7-.4c.4-.2.9-.1 1.1.2.2.2.3.4.3.7.1.3 0 .5-.2.7zm-1.9-.8s.1 0 0 0l.2.1-.1.1c0-.1-.1-.1-.1-.2z"/></g><path transform="rotate(45.106 20.524 72.548)" fill="#a71916" d="M16 68h9.1v9.1H16z"/><g><radialGradient id="SVGID_16_" cx="5.275" cy="55.761" r="38.773" gradientTransform="translate(3.12 7.341)" gradientUnits="userSpaceOnUse"><stop offset=".121" stop-color="#be9243"/><stop offset=".343" stop-color="#eddd8b"/><stop offset=".438" stop-color="#bc9c41"/><stop offset=".504" stop-color="#a1781d"/><stop offset=".543" stop-color="#8f6616"/><stop offset=".57" stop-color="#865e13"/><stop offset=".828" stop-color="#9a7127"/><stop offset="1" stop-color="#a37b31"/></radialGradient><path d="M20.5 79l-6.4-6.5 6.5-6.4 6.4 6.5-6.5 6.4zm-5.9-6.5l5.9 5.9 5.9-5.9-5.9-5.9-5.9 5.9z" fill="url(#SVGID_16_)"/></g></svg>