<?xml version="1.0" encoding="utf-8"?>
<!-- Generator: Adobe Illustrator 24.1.1, SVG Export Plug-In . SVG Version: 6.00 Build 0)  -->
<svg version="1.1" id="Calque_1" xmlns="http://www.w3.org/2000/svg" xmlns:xlink="http://www.w3.org/1999/xlink" x="0px" y="0px"
	 viewBox="0 0 47.7 100" style="enable-background:new 0 0 47.7 100;" xml:space="preserve">
<style type="text/css">
	.st0{filter:url(#Adobe_OpacityMaskFilter);}
	.st1{filter:url(#Adobe_OpacityMaskFilter_1_);}
	.st2{mask:url(#SVGID_1_);fill:url(#SVGID_2_);}
	.st3{fill:url(#SVGID_3_);}
	.st4{fill:#60C2D1;}
	.st5{fill:#DB0D15;}
	.st6{opacity:0.33;fill:url(#SVGID_4_);}
	.st7{opacity:0.33;fill:url(#SVGID_5_);}
	.st8{opacity:0.33;fill:url(#SVGID_6_);}
	.st9{opacity:0.33;fill:url(#SVGID_7_);}
	.st10{opacity:0.33;fill:url(#SVGID_8_);}
	.st11{opacity:0.33;fill:url(#SVGID_9_);}
	.st12{opacity:0.33;fill:url(#SVGID_10_);}
	.st13{opacity:0.33;fill:url(#SVGID_11_);}
	.st14{fill:url(#SVGID_12_);}
	.st15{fill:url(#SVGID_13_);}
	.st16{fill:url(#SVGID_14_);}
	.st17{fill:url(#SVGID_15_);}
	.st18{fill:#A71916;}
	.st19{fill:url(#SVGID_16_);}
</style>
<g>
	<g>
		<defs>
			<filter id="Adobe_OpacityMaskFilter" filterUnits="userSpaceOnUse" x="10.1" y="58.4" width="34.9" height="34.9">
				<feFlood  style="flood-color:white;flood-opacity:1" result="back"/>
				<feBlend  in="SourceGraphic" in2="back" mode="normal"/>
			</filter>
		</defs>
		<mask maskUnits="userSpaceOnUse" x="10.1" y="58.4" width="34.9" height="34.9" id="SVGID_1_">
			<g class="st0">
				<defs>
					<filter id="Adobe_OpacityMaskFilter_1_" filterUnits="userSpaceOnUse" x="10.1" y="58.4" width="34.9" height="34.9">
						<feFlood  style="flood-color:white;flood-opacity:1" result="back"/>
						<feBlend  in="SourceGraphic" in2="back" mode="normal"/>
					</filter>
				</defs>
				<mask maskUnits="userSpaceOnUse" x="10.1" y="58.4" width="34.9" height="34.9" id="SVGID_1_">
					<g class="st1">
					</g>
				</mask>
				
					<radialGradient id="SVGID_2_" cx="24.5693" cy="68.4157" r="17.4448" gradientTransform="matrix(1 1.900000e-03 -1.900000e-03 1 3.1204 7.341)" gradientUnits="userSpaceOnUse">
					<stop  offset="0" style="stop-color:#FFFFFF"/>
					<stop  offset="0.1324" style="stop-color:#D7D7D7"/>
					<stop  offset="0.4538" style="stop-color:#7C7C7C"/>
					<stop  offset="0.7152" style="stop-color:#393939"/>
					<stop  offset="0.9035" style="stop-color:#101010"/>
					<stop  offset="1" style="stop-color:#000000"/>
				</radialGradient>
				<circle class="st2" cx="27.6" cy="75.8" r="17.4"/>
			</g>
		</mask>
		
			<radialGradient id="SVGID_3_" cx="24.5693" cy="68.4157" r="17.4448" gradientTransform="matrix(1 1.900000e-03 -1.900000e-03 1 3.1204 7.341)" gradientUnits="userSpaceOnUse">
			<stop  offset="0" style="stop-color:#1E2145"/>
			<stop  offset="3.632885e-02" style="stop-color:#282B4D"/>
			<stop  offset="0.3935" style="stop-color:#838498"/>
			<stop  offset="0.6838" style="stop-color:#C6C7D0"/>
			<stop  offset="0.8928" style="stop-color:#EFEFF2"/>
			<stop  offset="1" style="stop-color:#FFFFFF"/>
		</radialGradient>
		<circle class="st3" cx="27.6" cy="75.8" r="17.4"/>
	</g>
	<g>
		<g>
			<path class="st4" d="M32.5,71.5c-0.1-0.7-0.2-1.5-0.5-2.1c-0.3-0.8-0.6-1.5-1.1-2.1c-0.5-0.8-1.2-1.5-2-2.1
				c-1.7-1.3-3.8-2.2-6-2.2l-4.4,0c-2.3,0-4.4,0.8-6.1,2.1c-0.8,0.6-1.4,1.3-2,2.1c-0.4,0.7-0.8,1.4-1.1,2.1C9.2,70,9,70.7,8.9,71.5
				c0,0.4-0.1,0.7-0.1,1.1v0c0,0.4,0,0.7,0.1,1.1c0.1,0.7,0.2,1.5,0.5,2.1c0.3,0.8,0.6,1.5,1.1,2.1c0.5,0.8,1.2,1.5,2,2.1
				c1.7,1.3,3.8,2.2,6,2.2l4.4,0c2.3,0,4.4-0.8,6.1-2.1c0.8-0.6,1.4-1.3,2-2.1c0.4-0.7,0.8-1.4,1.1-2.1c0.2-0.7,0.4-1.4,0.5-2.1
				c0-0.4,0.1-0.7,0.1-1.1l0,0C32.6,72.2,32.6,71.8,32.5,71.5z"/>
			<path class="st5" d="M12.4,80c1.7,1.3,3.8,2.2,6,2.2l4.4,0c2.3,0,4.4-0.8,6.1-2.1L12.4,80z"/>
			
				<linearGradient id="SVGID_4_" gradientUnits="userSpaceOnUse" x1="17.7186" y1="72.6829" x2="17.7186" y2="74.8295" gradientTransform="matrix(1 1.900000e-03 -1.900000e-03 1 3.1204 7.341)">
				<stop  offset="0" style="stop-color:#020203"/>
				<stop  offset="1" style="stop-color:#FFFFFF"/>
			</linearGradient>
			<path class="st6" d="M12.4,80c1.7,1.3,3.8,2.2,6,2.2l4.4,0c2.3,0,4.4-0.8,6.1-2.1L12.4,80z"/>
			<path class="st5" d="M12.3,80.3l16.8,0c0.8-0.6,1.4-1.4,2-2.2l-20.8,0C10.9,79,11.5,79.7,12.3,80.3z"/>
			
				<linearGradient id="SVGID_5_" gradientUnits="userSpaceOnUse" x1="17.7186" y1="70.7737" x2="17.7186" y2="72.9544" gradientTransform="matrix(1 1.900000e-03 -1.900000e-03 1 3.1204 7.341)">
				<stop  offset="0" style="stop-color:#020203"/>
				<stop  offset="1" style="stop-color:#FFFFFF"/>
			</linearGradient>
			<path class="st7" d="M12.3,80.3l16.8,0c0.8-0.6,1.4-1.4,2-2.2l-20.8,0C10.9,79,11.5,79.7,12.3,80.3z"/>
			<path class="st5" d="M10.1,78.4l21.2,0c0.5-0.7,0.8-1.4,1.1-2.2L9,76.2C9.3,77,9.6,77.7,10.1,78.4z"/>
			
				<linearGradient id="SVGID_6_" gradientUnits="userSpaceOnUse" x1="17.7185" y1="68.8533" x2="17.7185" y2="71.0775" gradientTransform="matrix(1 1.900000e-03 -1.900000e-03 1 3.1204 7.341)">
				<stop  offset="0" style="stop-color:#020203"/>
				<stop  offset="1" style="stop-color:#FFFFFF"/>
			</linearGradient>
			<path class="st8" d="M10.1,78.4l21.2,0c0.5-0.7,0.8-1.4,1.1-2.2L9,76.2C9.3,77,9.6,77.7,10.1,78.4z"/>
			<path class="st5" d="M8.8,76.5l23.9,0c0.3-0.7,0.4-1.5,0.5-2.3l-24.9,0C8.3,75,8.5,75.7,8.8,76.5z"/>
			
				<linearGradient id="SVGID_7_" gradientUnits="userSpaceOnUse" x1="17.7184" y1="66.8365" x2="17.7184" y2="69.1021" gradientTransform="matrix(1 1.900000e-03 -1.900000e-03 1 3.1204 7.341)">
				<stop  offset="0" style="stop-color:#020203"/>
				<stop  offset="1" style="stop-color:#FFFFFF"/>
			</linearGradient>
			<path class="st9" d="M8.8,76.5l23.9,0c0.3-0.7,0.4-1.5,0.5-2.3l-24.9,0C8.3,75,8.5,75.7,8.8,76.5z"/>
			<path class="st5" d="M7.9,73.3L7.9,73.3c0,0.4,0,0.8,0.1,1.2l25.5,0c0-0.4,0.1-0.8,0.1-1.2l0,0c0-0.4,0-0.8-0.1-1.2l-25.5,0
				C7.9,72.5,7.9,72.9,7.9,73.3z"/>
			
				<linearGradient id="SVGID_8_" gradientUnits="userSpaceOnUse" x1="17.7184" y1="64.7971" x2="17.7184" y2="67.119" gradientTransform="matrix(1 1.900000e-03 -1.900000e-03 1 3.1204 7.341)">
				<stop  offset="0" style="stop-color:#020203"/>
				<stop  offset="1" style="stop-color:#FFFFFF"/>
			</linearGradient>
			<path class="st10" d="M7.9,73.3L7.9,73.3c0,0.4,0,0.8,0.1,1.2l25.5,0c0-0.4,0.1-0.8,0.1-1.2l0,0c0-0.4,0-0.8-0.1-1.2l-25.5,0
				C7.9,72.5,7.9,72.9,7.9,73.3z"/>
			<path class="st5" d="M7.6,72.4l26.2,0c-0.1-0.8-0.3-1.6-0.5-2.4L8.2,70C7.9,70.8,7.7,71.5,7.6,72.4z"/>
			
				<linearGradient id="SVGID_9_" gradientUnits="userSpaceOnUse" x1="17.7184" y1="62.6446" x2="17.7184" y2="65.0227" gradientTransform="matrix(1 1.900000e-03 -1.900000e-03 1 3.1204 7.341)">
				<stop  offset="0" style="stop-color:#020203"/>
				<stop  offset="1" style="stop-color:#FFFFFF"/>
			</linearGradient>
			<path class="st11" d="M7.6,72.4l26.2,0c-0.1-0.8-0.3-1.6-0.5-2.4L8.2,70C7.9,70.8,7.7,71.5,7.6,72.4z"/>
			<path class="st5" d="M7.8,70.2l25.8,0c-0.3-0.9-0.7-1.7-1.2-2.5l-23.3,0C8.5,68.5,8.1,69.3,7.8,70.2z"/>
			
				<linearGradient id="SVGID_10_" gradientUnits="userSpaceOnUse" x1="17.7183" y1="60.4093" x2="17.7183" y2="62.8582" gradientTransform="matrix(1 1.900000e-03 -1.900000e-03 1 3.1204 7.341)">
				<stop  offset="0" style="stop-color:#020203"/>
				<stop  offset="1" style="stop-color:#FFFFFF"/>
			</linearGradient>
			<path class="st12" d="M7.8,70.2l25.8,0c-0.3-0.9-0.7-1.7-1.2-2.5l-23.3,0C8.5,68.5,8.1,69.3,7.8,70.2z"/>
			<path class="st5" d="M8.6,67.9l24.3,0c-0.6-1-1.4-1.8-2.3-2.6l-19.6,0C10,66,9.2,66.9,8.6,67.9z"/>
			
				<linearGradient id="SVGID_11_" gradientUnits="userSpaceOnUse" x1="17.7182" y1="57.9613" x2="17.7182" y2="60.5125" gradientTransform="matrix(1 1.900000e-03 -1.900000e-03 1 3.1204 7.341)">
				<stop  offset="0" style="stop-color:#020203"/>
				<stop  offset="1" style="stop-color:#FFFFFF"/>
			</linearGradient>
			<path class="st13" d="M8.6,67.9l24.3,0c-0.6-1-1.4-1.8-2.3-2.6l-19.6,0C10,66,9.2,66.9,8.6,67.9z"/>
			<path class="st5" d="M31.2,65.6c-2.1-1.7-4.8-2.7-7.7-2.7l-5.6,0c-2.9,0-5.6,1-7.7,2.7L31.2,65.6z"/>
		</g>
		
			<radialGradient id="SVGID_12_" cx="20.064" cy="59.7681" r="17.264" gradientTransform="matrix(1 1.900000e-03 -1.900000e-03 1 3.1204 7.341)" gradientUnits="userSpaceOnUse">
			<stop  offset="0.1211" style="stop-color:#BE9243"/>
			<stop  offset="0.3428" style="stop-color:#EDDD8B"/>
			<stop  offset="0.4379" style="stop-color:#BC9C41"/>
			<stop  offset="0.5042" style="stop-color:#A1781D"/>
			<stop  offset="0.5426" style="stop-color:#8F6616"/>
			<stop  offset="0.5696" style="stop-color:#865E13"/>
			<stop  offset="0.8284" style="stop-color:#9A7127"/>
			<stop  offset="1" style="stop-color:#A37B31"/>
		</radialGradient>
		<polygon class="st14" points="26.9,63.2 14.5,63.2 14.5,62.2 26.9,62.3 		"/>
		<g>
			
				<radialGradient id="SVGID_13_" cx="3.8624" cy="75.1367" r="46.1935" gradientTransform="matrix(1 1.900000e-03 -1.900000e-03 1 3.1204 7.341)" gradientUnits="userSpaceOnUse">
				<stop  offset="0.1211" style="stop-color:#BE9243"/>
				<stop  offset="0.3428" style="stop-color:#EDDD8B"/>
				<stop  offset="0.4379" style="stop-color:#BC9C41"/>
				<stop  offset="0.5042" style="stop-color:#A1781D"/>
				<stop  offset="0.5426" style="stop-color:#8F6616"/>
				<stop  offset="0.5696" style="stop-color:#865E13"/>
				<stop  offset="0.8284" style="stop-color:#9A7127"/>
				<stop  offset="1" style="stop-color:#A37B31"/>
			</radialGradient>
			<path class="st15" d="M20.9,93.3l0-0.8l-0.4,0l0,0.8c-0.4,0.1-0.7,0.4-0.7,0.9c0,0.2,0.1,0.4,0.2,0.5l0,4.5l1.4,0l0-4.5
				c0.1-0.1,0.2-0.3,0.2-0.5C21.6,93.7,21.3,93.4,20.9,93.3z"/>
			
				<radialGradient id="SVGID_14_" cx="3.8619" cy="75.1366" r="46.1934" gradientTransform="matrix(1 1.900000e-03 -1.900000e-03 1 3.1204 7.341)" gradientUnits="userSpaceOnUse">
				<stop  offset="0.1211" style="stop-color:#BE9243"/>
				<stop  offset="0.3428" style="stop-color:#EDDD8B"/>
				<stop  offset="0.4379" style="stop-color:#BC9C41"/>
				<stop  offset="0.5042" style="stop-color:#A1781D"/>
				<stop  offset="0.5426" style="stop-color:#8F6616"/>
				<stop  offset="0.5696" style="stop-color:#865E13"/>
				<stop  offset="0.8284" style="stop-color:#9A7127"/>
				<stop  offset="1" style="stop-color:#A37B31"/>
			</radialGradient>
			<polygon class="st16" points="14.5,81.4 14.5,82.3 20.5,82.3 20.5,86.9 20.9,86.9 20.9,82.3 26.9,82.3 26.9,81.4 			"/>
		</g>
		
			<radialGradient id="SVGID_15_" cx="17.8736" cy="2.9723" r="114.487" gradientTransform="matrix(1 1.900000e-03 -1.900000e-03 1 3.1204 7.341)" gradientUnits="userSpaceOnUse">
			<stop  offset="0.1211" style="stop-color:#BE9243"/>
			<stop  offset="0.3428" style="stop-color:#EDDD8B"/>
			<stop  offset="0.4379" style="stop-color:#BC9C41"/>
			<stop  offset="0.5042" style="stop-color:#A1781D"/>
			<stop  offset="0.5426" style="stop-color:#8F6616"/>
			<stop  offset="0.5696" style="stop-color:#865E13"/>
			<stop  offset="0.8284" style="stop-color:#9A7127"/>
			<stop  offset="1" style="stop-color:#A37B31"/>
		</radialGradient>
		<polygon class="st17" points="20.7,-1.9 20.5,62.3 20.9,62.3 21,-1.9 		"/>
		<path class="st5" d="M25.1,88.8c-0.4-0.4-0.9-0.4-1.4-0.2c0-0.1,0.1-0.2,0-0.4c0-0.2-0.1-0.4-0.3-0.6c-0.2-0.1-0.4-0.2-0.6-0.2
			c-0.3,0.1-0.6,0.3-0.7,0.7l0,0.2l-1.3-1c0,0-0.1,0-0.2,0l-1.3,1l0-0.2c-0.1-0.4-0.3-0.6-0.7-0.7c-0.2,0-0.5,0-0.6,0.2
			c-0.2,0.1-0.3,0.3-0.3,0.6c0,0.1,0,0.2,0,0.4c-0.5-0.2-1-0.1-1.4,0.2c-0.2,0.2-0.4,0.6-0.4,0.9c0,0.3,0.1,0.7,0.4,0.9
			c0.2,0.2,0.5,0.3,0.9,0.3c0.2,0,0.4,0,0.5-0.1c0,0.1-0.1,0.2,0,0.4c0,0.2,0.1,0.4,0.3,0.6c0.1,0.1,0.3,0.2,0.5,0.2
			c0,0,0.1,0,0.1,0c0.3-0.1,0.6-0.3,0.7-0.7l0-0.2l1.3,1c0,0,0.1,0,0.1,0c0,0,0.1,0,0.1,0l1.3-1l0,0.2c0.1,0.4,0.3,0.6,0.7,0.7
			c0,0,0.1,0,0.1,0c0.2,0,0.4-0.1,0.5-0.2h0c0.2-0.1,0.3-0.3,0.3-0.6c0-0.1,0-0.2,0-0.4c0.2,0.1,0.3,0.1,0.5,0.1
			c0.3,0,0.6-0.1,0.9-0.3c0.2-0.2,0.4-0.6,0.4-0.9C25.5,89.4,25.3,89,25.1,88.8z M22.3,88.2c0-0.2,0.2-0.4,0.5-0.5c0,0,0.1,0,0.1,0
			c0.1,0,0.2,0,0.3,0.1c0.1,0.1,0.2,0.2,0.2,0.4c0,0.2-0.1,0.5-0.3,0.6L22.8,89l-0.5-0.4L22.3,88.2z M22,90.4
			c-0.2,0-0.3-0.1-0.3-0.3c0,0,0,0,0,0c0.1,0,0.2-0.1,0.3-0.2c0.1,0.1,0.2,0.2,0.3,0.2c0,0,0,0,0,0C22.3,90.3,22.2,90.4,22,90.4z
			 M21,89.6C21,89.6,21,89.6,21,89.6c0,0.2-0.1,0.3-0.3,0.3c-0.2,0-0.3-0.1-0.3-0.3c0,0,0,0,0,0c0.1,0,0.2-0.1,0.3-0.2
			C20.8,89.5,20.9,89.5,21,89.6z M20.9,89c0.1,0,0.2-0.1,0.3-0.2c0.1,0.1,0.2,0.2,0.3,0.2c0,0,0,0,0,0c0,0.2-0.1,0.3-0.3,0.3
			C21,89.3,20.9,89.2,20.9,89C20.9,89,20.9,89,20.9,89z M20.6,89c0,0.2-0.1,0.3-0.3,0.3c-0.2,0-0.3-0.1-0.3-0.3c0,0,0,0,0,0
			c0.1,0,0.2-0.1,0.3-0.2C20.4,88.9,20.5,89,20.6,89C20.6,89,20.6,89,20.6,89z M20.2,89.6C20.2,89.6,20.2,89.6,20.2,89.6
			c0,0.2-0.1,0.3-0.3,0.3c-0.2,0-0.3-0.1-0.3-0.3c0,0,0,0,0,0c0.1,0,0.2-0.1,0.3-0.2C19.9,89.5,20,89.5,20.2,89.6z M20.3,89.9
			c0.1,0.1,0.2,0.2,0.3,0.2c0,0,0,0,0,0c0,0.2-0.1,0.3-0.3,0.3c-0.2,0-0.3-0.1-0.3-0.3c0,0,0,0,0,0C20.1,90.1,20.2,90,20.3,89.9z
			 M20.7,90.5c0.1,0.1,0.2,0.2,0.3,0.2c0,0,0,0,0,0c0,0.2-0.1,0.3-0.3,0.3c-0.2,0-0.3-0.1-0.3-0.3c0,0,0,0,0,0
			C20.5,90.6,20.6,90.6,20.7,90.5z M20.9,90.1C20.9,90.1,20.9,90.1,20.9,90.1c0.1,0,0.2-0.1,0.3-0.2c0.1,0.1,0.2,0.2,0.3,0.2
			c0,0,0,0,0,0c0,0.2-0.1,0.3-0.3,0.3C21,90.4,20.9,90.3,20.9,90.1z M21.3,89.6C21.3,89.6,21.3,89.6,21.3,89.6
			c0.1,0,0.2-0.1,0.3-0.2c0.1,0.1,0.2,0.2,0.3,0.2c0,0,0,0,0,0c0,0.2-0.1,0.3-0.3,0.3C21.4,89.9,21.3,89.7,21.3,89.6z M22.3,89
			C22.3,89,22.3,89,22.3,89c0,0.2-0.1,0.3-0.3,0.3c-0.2,0-0.3-0.1-0.3-0.3c0,0,0,0,0,0c0.1,0,0.2-0.1,0.3-0.2
			C22.1,88.9,22.2,89,22.3,89z M22.2,89.6C22.2,89.6,22.2,89.6,22.2,89.6c0.1,0,0.2-0.1,0.3-0.2c0.1,0.1,0.2,0.2,0.3,0.2
			c0,0,0,0,0,0c0,0.2-0.1,0.3-0.3,0.3C22.3,89.9,22.2,89.7,22.2,89.6z M22.9,89.9C22.9,89.9,22.9,90,22.9,89.9l-0.3,0.3
			c0,0,0,0,0-0.1c0,0,0,0,0,0C22.7,90.1,22.8,90,22.9,89.9z M21.9,88.6c0,0.1-0.2,0.2-0.3,0.2c-0.2,0-0.3-0.1-0.3-0.3c0,0,0,0,0,0
			c0.1,0,0.2-0.1,0.3-0.1L21.9,88.6z M21,87.9l0.4,0.3c0,0-0.1,0.1-0.2,0.1c-0.2,0-0.3-0.1-0.3-0.3c0,0,0,0,0,0
			C20.9,87.9,20.9,87.9,21,87.9z M20.7,87.7L20.7,87.7C20.7,87.7,20.7,87.7,20.7,87.7L20.7,87.7z M20.7,88.3
			c0.1,0.1,0.2,0.2,0.3,0.2c0,0,0,0,0,0c0,0.2-0.1,0.3-0.3,0.3s-0.3-0.1-0.3-0.3c0,0,0,0,0,0C20.5,88.5,20.6,88.4,20.7,88.3z
			 M20.4,87.9c0.1,0,0.1,0.1,0.2,0.1c0,0,0,0,0,0c0,0.2-0.1,0.3-0.3,0.3c-0.1,0-0.2,0-0.2-0.1L20.4,87.9z M19.9,88.3
			c0.1,0.1,0.2,0.1,0.3,0.2c0,0,0,0,0,0c0,0.2-0.1,0.3-0.3,0.3c-0.1,0-0.3-0.1-0.3-0.2L19.9,88.3z M19.7,89C19.7,89,19.7,89,19.7,89
			c0,0.2-0.1,0.3-0.3,0.3c-0.2,0-0.3-0.1-0.3-0.3c0,0,0,0,0,0c0.1,0,0.2-0.1,0.3-0.2C19.5,88.9,19.6,89,19.7,89z M18.8,89.1
			c0,0.1-0.1,0.1-0.2,0.2L18.8,89.1z M18.3,89.8l-0.1-0.1l0.2-0.2c0,0,0.1,0,0.1,0c0,0,0,0,0,0C18.4,89.7,18.4,89.8,18.3,89.8z
			 M18.5,90C18.5,90,18.5,90,18.5,90c0.1,0,0.2,0.1,0.4,0.1c0,0,0,0,0,0c0,0,0,0.1,0,0.1L18.5,90z M18.7,89.6
			C18.7,89.6,18.7,89.6,18.7,89.6c0.1,0,0.2-0.1,0.3-0.2c0.1,0.1,0.2,0.2,0.3,0.2c0,0,0,0,0,0c0,0.2-0.1,0.3-0.3,0.3
			C18.8,89.9,18.7,89.7,18.7,89.6z M17.9,88.2c0-0.2,0.1-0.3,0.2-0.4c0.1-0.1,0.2-0.1,0.3-0.1c0,0,0.1,0,0.1,0
			c0.2,0,0.4,0.2,0.5,0.5l0.1,0.4L18.6,89l-0.4-0.2C18,88.7,17.9,88.5,17.9,88.2z M17.6,90.6c-0.4,0.2-0.9,0.1-1.1-0.2
			c-0.2-0.2-0.3-0.4-0.3-0.7c0-0.3,0.1-0.5,0.3-0.7c0.2-0.2,0.4-0.3,0.7-0.3c0.2,0,0.3,0,0.5,0.1l0.7,0.4l-0.5,0.4
			c0,0-0.1,0.1-0.1,0.1c0,0,0,0.1,0.1,0.1l0.5,0.4L17.6,90.6z M19,91.2c0,0.2-0.2,0.4-0.5,0.5c-0.2,0-0.3,0-0.4-0.1
			c-0.1-0.1-0.2-0.2-0.2-0.4c0-0.2,0.1-0.5,0.3-0.6l0.4-0.2l0.5,0.4L19,91.2z M19.1,90.1C19.1,90.1,19.1,90.1,19.1,90.1
			c0.1,0,0.2-0.1,0.3-0.2c0.1,0.1,0.2,0.2,0.3,0.2c0,0,0,0,0,0c0,0.2-0.1,0.3-0.3,0.3C19.2,90.4,19.1,90.3,19.1,90.1z M19.5,90.7
			C19.5,90.7,19.5,90.7,19.5,90.7c0.1,0,0.2-0.1,0.3-0.2c0.1,0.1,0.2,0.2,0.3,0.2c0,0,0,0,0,0c0,0.2-0.1,0.3-0.3,0.3
			C19.7,90.9,19.5,90.8,19.5,90.7z M20.6,91.2c0,0.1-0.1,0.2-0.2,0.3L20,91.2c0.1,0,0.2-0.1,0.3-0.2C20.4,91.1,20.5,91.2,20.6,91.2
			C20.6,91.2,20.6,91.2,20.6,91.2z M20.7,91.7L20.7,91.7c0-0.1,0-0.1,0-0.2c0,0,0.1,0.1,0.1,0.1L20.7,91.7z M21,91.5
			c-0.1,0-0.2-0.1-0.2-0.2c0,0,0,0,0,0c0.1,0,0.2-0.1,0.3-0.2c0.1,0.1,0.1,0.1,0.2,0.2L21,91.5z M21.9,90.7c0,0,0,0.1,0,0.1
			l-0.2,0.1c0,0-0.1,0-0.1,0c-0.2,0-0.3-0.1-0.3-0.3c0,0,0,0,0,0c0.1,0,0.2-0.1,0.3-0.2C21.7,90.6,21.8,90.6,21.9,90.7
			C21.9,90.7,21.9,90.7,21.9,90.7z M23.5,91.2c0,0.2-0.1,0.3-0.2,0.4c-0.1,0.1-0.3,0.1-0.4,0.1c-0.2,0-0.4-0.2-0.5-0.5l-0.1-0.4
			l0.5-0.4l0.4,0.2C23.4,90.7,23.5,90.9,23.5,91.2z M24.9,90.4c-0.3,0.3-0.8,0.4-1.2,0.2L23,90.2l0.5-0.4c0,0,0.1-0.1,0.1-0.1
			c0,0,0-0.1-0.1-0.1L23,89.2l0.7-0.4c0.4-0.2,0.9-0.1,1.1,0.2c0.2,0.2,0.3,0.4,0.3,0.7v0C25.2,90,25.1,90.2,24.9,90.4z M23,89.6
			C23,89.6,23.1,89.6,23,89.6l0.2,0.1l-0.1,0.1C23.1,89.7,23,89.7,23,89.6C23,89.6,23,89.6,23,89.6z"/>
	</g>
	<rect x="16" y="68" transform="matrix(0.7058 0.7084 -0.7084 0.7058 57.4312 6.8047)" class="st18" width="9.1" height="9.1"/>
	<g>
		
			<radialGradient id="SVGID_16_" cx="5.2748" cy="55.7605" r="38.7729" gradientTransform="matrix(1 1.900000e-03 -1.900000e-03 1 3.1204 7.341)" gradientUnits="userSpaceOnUse">
			<stop  offset="0.1211" style="stop-color:#BE9243"/>
			<stop  offset="0.3428" style="stop-color:#EDDD8B"/>
			<stop  offset="0.4379" style="stop-color:#BC9C41"/>
			<stop  offset="0.5042" style="stop-color:#A1781D"/>
			<stop  offset="0.5426" style="stop-color:#8F6616"/>
			<stop  offset="0.5696" style="stop-color:#865E13"/>
			<stop  offset="0.8284" style="stop-color:#9A7127"/>
			<stop  offset="1" style="stop-color:#A37B31"/>
		</radialGradient>
		<path class="st19" d="M20.5,79l-6.4-6.5l6.5-6.4l6.4,6.5L20.5,79z M14.6,72.5l5.9,5.9l5.9-5.9l-5.9-5.9L14.6,72.5z"/>
	</g>
</g>
</svg>
