<?xml version="1.0" encoding="utf-8"?>
<!-- Generator: Adobe Illustrator 24.1.1, SVG Export Plug-In . SVG Version: 6.00 Build 0)  -->
<svg version="1.1" id="Calque_3" xmlns="http://www.w3.org/2000/svg" xmlns:xlink="http://www.w3.org/1999/xlink" x="0px" y="0px"
	 viewBox="0 0 65 65" style="enable-background:new 0 0 65 65;" xml:space="preserve">
<style type="text/css">
	.st0{fill:url(#SVGID_1_);}
	.st1{fill:#608D3C;}
</style>
<radialGradient id="SVGID_1_" cx="32.0115" cy="31.703" r="29.7668" gradientTransform="matrix(6.123234e-17 -1 0.7 4.286264e-17 9.8194 63.7145)" gradientUnits="userSpaceOnUse">
	<stop  offset="0.5056" style="stop-color:#3C5730"/>
	<stop  offset="1" style="stop-color:#4C712F"/>
</radialGradient>
<path class="st0" d="M22.5,22.2c-1.2-1-10.8-9.4-3.4-14.3c0,0,3.5-1.9,4.2-2.5s1.3-1.1,0.7-2.8c0,0,1.1,0.8,5.2,0.7
	c4.1-0.1,9.7,0,3.5,13.8c0,0-0.8,3.5,1.2,0.5s3.4-8.1,2.3-13.2c0,0,13.1,3.1,6.3,12.2c0,0-3.7,5.7-6.9,8.9c0,0-0.7,0.8-0.3,1.3
	c0.3,0.5,0.6,0.8,1.6-0.3c1-1.1,9.4-10.1,9-16c0,0,10.8,7.5,4.6,13.2s-9.7,8.2-10.7,8.8c-1.1,0.6-0.6,1.4-0.6,1.4s0.1,0.5,1.4-0.2
	S49.9,28,54.3,20c0,0,3.7,10.3,2.8,12.2s-1.9,3.5-5.2,5.1c-3.3,1.6-5.1,2.6-10,4.5c0,0-1.7,0.6-1.6,1.6c0.1,1,11.9-0.3,17.7-8.3
	c0,0-1.2,25.5-16.3,25.7c-3.3,0-9.1-1.8-9.1-9.5c0,0,0.1-4.3-0.9-4.3s-2.3,11.6-9.9,11.6c-8.5,0-16.5-4.3-15.7-26.2
	c0,0,6.6,6.9,14.6,8c0,0,2.4,0.6,2.5-0.5c0.1-1.1-1.1-2-5.3-2.3c0,0-13.8-3.5-11.4-11.2s3.4-8.1,3.4-8.1s1.5,5.1,5.4,8.2
	s6.7,5.1,6.7,5.1s1.1,0.8,1.3,0.6c0.2-0.3,0.3-0.4-3.9-3.9s-13.3-9.9-4.9-16.6c0,0,1.1,7.5,8.3,12.2c0,0,1.7,1.3,1.8,1
	C24.8,24.5,25,24.2,22.5,22.2z"/>
<path class="st1" d="M31.1,44.9c-0.7,0.2-5,4.7-9.5,6.3c0,0,4.8-2.4,8-5.9c0.1-0.1,0-0.2-0.1-0.2c-2,0.3-12.3,1.4-17.6-2.9
	c0,0,5.2,4.2,18.2,2.1c0.4-0.1,0.7-0.4,0.7-0.8c0-1.2-0.1-3.6-1.9-4.4c0,0-13.7-7.5-15-8.9s-3.1-2.6-3.8-5c0,0,0.9,2.5,4.4,5.1
	c0,0,0,0,0,0c0.1,0.1,10.5,6.3,14.4,8c0.7,0.3,1.4-0.2,1.3-0.9c-0.1-1.3-0.4-3.2-1.3-4.6c-1.5-2.2-10.7-6.6-13.3-11
	c0,0,2.3,3.4,13.8,10.4c0.1,0.1,0.2,0,0.2-0.1c-0.1-1.3-0.6-7.7-1.5-9.4c-1-1.9-6.7-4.7-7.8-8.1c0,0,2,3.2,7,6
	c0.4,0.2,0.8-0.1,0.8-0.5c0-1.4-0.2-4.9-1.6-11.9c0,0,2.8,17.1,3.6,17.4s7.1-5.5,9.4-10.1c0,0-2.4,3.6-8.7,10.6
	c-0.4,0.5-0.6,1.1-0.6,1.7c0.1,2,0.4,6.5,1,6.9c0.8,0.5,12.1-8.9,14.1-13.1c0,0-2.1,5.4-13.2,13.5c-0.6,0.4-1,1.2-0.9,1.9
	c0.1,2.2,0.5,6.5,1.2,5.9c1-0.8,8.6-5.8,11.1-6.9s5.6-4.4,5.6-4.4s-1.1,2.6-5.8,5.2c-4.7,2.5-7.8,4.5-10.9,7.4
	c-0.1,0.1-0.1,0.1,0,0.2c1.3,0.9,12.5,7.9,22-2.1c0,0-4.8,6.1-11.9,5.8c-0.1,0-0.2,0.1-0.1,0.2c0.5,0.5,2.4,1.7,9.5,2.7
	c0,0-4.9,0.1-10.8-2.7c0,0,0,0,0,0c0,0-4.9-1.5-9.3-3.3L31.1,44.9z"/>
</svg>
