<?xml version="1.0" encoding="utf-8"?>
<!-- Generator: Adobe Illustrator 24.1.1, SVG Export Plug-In . SVG Version: 6.00 Build 0)  -->
<svg version="1.1" id="Calque_1" xmlns="http://www.w3.org/2000/svg" xmlns:xlink="http://www.w3.org/1999/xlink" x="0px" y="0px"
	 viewBox="0 0 64 64" style="enable-background:new 0 0 64 64;" xml:space="preserve">
<style type="text/css">
	.st0{opacity:0.2;}
	.st1{fill:#231F20;}
	.st2{fill:#AAA999;}
	.st3{fill:#4F5D73;}
</style>
<g id="Layer_1">
	<g class="st0">
		<g>
			<path class="st1" d="M17.5,22.4c7.2,2.8,8.3,7.1,8.3,7.1L39.5,63c8.6-22.3-12-36.9-9.2-44.1c0.9-2.2,1-4.3,0.9-5.9
				c-0.1-4-2.5-7.8-6.4-9.3c-5.1-2-11,0.6-12.9,5.8S12.4,20.4,17.5,22.4z M22.9,8.4c2.6,1,3.9,3.9,2.9,6.5s-3.9,3.9-6.5,2.9
				c-2.6-1-3.9-3.9-2.9-6.5C17.4,8.7,20.3,7.4,22.9,8.4z"/>
		</g>
	</g>
	<g>
		<g>
			<path class="st2" d="M19,22.4c7.2,2.8,8.3,7.1,8.3,7.1L41,63c8.6-22.3-12-36.9-9.2-44.1c0.9-2.2,1-4.3,0.9-5.9
				c-0.1-4-2.5-7.8-6.4-9.3c-5.1-2-11,0.6-12.9,5.8S13.9,20.4,19,22.4z M24.4,8.3c2.6,1,3.9,3.9,2.9,6.5s-3.9,3.9-6.5,2.9
				S17,13.8,18,11.2S21.8,7.3,24.4,8.3z"/>
		</g>
	</g>
	<g class="st0">
		<path class="st1" d="M37.1,34.2c0,0,3.6-2.5,10.9,0.3c5.1,2,11-0.6,12.9-5.8s-0.6-11-5.8-12.9c-4-1.5-8.3-0.4-10.9,2.6
			c-1.2,1.1-2.4,2.8-3.3,5c-2.9,7.1-27.9,4.2-36.5,26.5L37.1,34.2z M53.4,20.5c2.6,1,3.9,3.9,2.9,6.5c-1,2.6-3.9,3.9-6.5,2.9
			s-3.9-3.9-2.9-6.5C47.9,20.8,50.8,19.5,53.4,20.5z"/>
	</g>
	<g>
		<path class="st2" d="M36.3,32.5c0,0,3.6-2.5,10.9,0.3c5.1,2,11-0.6,12.9-5.8s-0.6-11-5.8-12.9c-4-1.5-8.3-0.4-10.9,2.6
			c-1.2,1.1-2.4,2.8-3.3,5C37.3,28.9,12.3,26,3.7,48.3L36.3,32.5z M52.6,18.8c2.6,1,3.9,3.9,2.9,6.5c-1,2.6-3.9,3.9-6.5,2.9
			c-2.6-1-3.9-3.9-2.9-6.5C47.1,19.1,50,17.8,52.6,18.8z"/>
	</g>
	<g>
		<circle class="st3" cx="31.7" cy="31.2" r="1.9"/>
	</g>
</g>
<g id="Layer_2">
</g>
</svg>
