<?xml version="1.0" encoding="utf-8"?>
<!-- Generator: Adobe Illustrator 24.1.1, SVG Export Plug-In . SVG Version: 6.00 Build 0)  -->
<svg version="1.1" id="Calque_1" xmlns="http://www.w3.org/2000/svg" xmlns:xlink="http://www.w3.org/1999/xlink" x="0px" y="0px"
	 viewBox="0 0 30 30" style="enable-background:new 0 0 30 30;" xml:space="preserve">
<style type="text/css">
	.st0{fill:#D3312E;}
	.st1{fill:url(#SVGID_1_);}
</style>
<path class="st0" d="M23.6,26.8c-11.2,3.9-20.5-0.4-22.8-5.8c-1.7-4-0.2-8.8,4.2-11.1c0.1-0.1,0.2-0.1,0.3-0.1
	c0.3-4.7,4-8.4,8.9-9.1h1.6c3.9,0.5,7.2,4.6,8.6,8.3C30,11.1,33.7,23.3,23.6,26.8z"/>
<linearGradient id="SVGID_1_" gradientUnits="userSpaceOnUse" x1="10765.9277" y1="25.9523" x2="10787.585" y2="7.7799" gradientTransform="matrix(-1 0 0 1 10792.2646 0)">
	<stop  offset="0" style="stop-color:#9D4E23"/>
	<stop  offset="0.3368" style="stop-color:#B79236"/>
	<stop  offset="0.4469" style="stop-color:#C9AA51"/>
	<stop  offset="0.5976" style="stop-color:#DFC773"/>
	<stop  offset="0.7432" style="stop-color:#F0DD8D"/>
	<stop  offset="0.8803" style="stop-color:#FAEB9E"/>
	<stop  offset="1" style="stop-color:#FEF0A4"/>
</linearGradient>
<path class="st1" d="M24.3,9.1c-1.4-3.6-4.7-7.8-8.6-8.3c-0.5-0.1-1.1-0.1-1.6,0C9.3,1.5,5.6,5.2,5.3,9.9c-0.1,0-0.2,0-0.3,0.1
	c-4.3,2.3-5.8,7.1-4.2,11.1c2.3,5.4,11.5,9.7,22.8,5.8C33.7,23.3,30,11.1,24.3,9.1z M24.3,24c-6.3,3.8-16.5,2.6-21.1-2.7
	C1.6,19.6,1,14.7,5.3,12c0.5,3.8,4.8,7.2,8.5,5.3c3.6-1.7,4.2-6.8,0.5-8.9c-1-0.6-2,1-0.9,1.6c2,1.2,2.2,3.9,0.2,5.4
	c-1.6,1.2-3.9,0.3-5.1-0.8c-2.8-2.4-1.4-6.9,0.5-9.3c4.3-5.2,11.5-1.9,13.8,5.6C26.6,11.9,31.7,19.5,24.3,24z"/>
</svg>
