<?xml version="1.0" encoding="utf-8"?>
<!-- Generator: Adobe Illustrator 24.1.1, SVG Export Plug-In . SVG Version: 6.00 Build 0)  -->
<svg version="1.1" id="Calque_1" xmlns="http://www.w3.org/2000/svg" xmlns:xlink="http://www.w3.org/1999/xlink" x="0px" y="0px"
	 viewBox="0 0 100 100" style="enable-background:new 0 0 100 100;" xml:space="preserve">
<style type="text/css">
	.st0{fill:url(#SVGID_1_);}
	.st1{opacity:0.5;fill:#9F0B14;}
</style>
<linearGradient id="SVGID_1_" gradientUnits="userSpaceOnUse" x1="74.0756" y1="69.6275" x2="28.3074" y2="31.2235">
	<stop  offset="0" style="stop-color:#B79236"/>
	<stop  offset="0.3016" style="stop-color:#C9AA51"/>
	<stop  offset="0.5976" style="stop-color:#DFC773"/>
	<stop  offset="0.7953" style="stop-color:#F0DD8D"/>
	<stop  offset="1" style="stop-color:#FEF0A4"/>
</linearGradient>
<circle class="st0" cx="51.2" cy="50.4" r="29.9"/>
<path class="st1" d="M54,35.8c-0.2,0.1-0.4,0.3-0.4,0.6c-0.1,0.2,0,0.5,0.1,0.7l0.2,0.2l-2.5,9.9c-0.3,0-0.6,0-0.9,0l-1.9-6.8
	c0.2-0.2,0.2-0.4,0.1-0.7c-0.1-0.4-0.5-0.6-0.9-0.5c-0.4,0.1-0.6,0.5-0.5,0.9c0.1,0.2,0.3,0.4,0.5,0.5l1.9,6.8
	c-0.3,0.1-0.5,0.3-0.8,0.5l-7.3-7.1l0-0.3l0-0.2c0-0.2-0.1-0.3-0.2-0.4c-0.4-0.4-0.9-0.3-1.3,0c-0.4,0.4-0.4,0.9,0,1.3
	c0.3,0.2,0.6,0.3,0.9,0.2l7.3,7.1c-0.2,0.2-0.3,0.5-0.4,0.8L41,47.5l-0.1-0.1c-0.1-0.2-0.3-0.3-0.5-0.3c-0.4-0.1-0.8,0.1-0.9,0.5
	c0,0.2,0,0.4,0.1,0.6c0.1,0.2,0.3,0.3,0.5,0.3c0.2,0,0.4,0,0.6-0.1l0.1-0.1l6.9,1.8c0,0.3,0,0.6,0,0.9l-9.8,2.7
	c-0.2-0.2-0.6-0.4-0.9-0.3c-0.5,0.1-0.8,0.6-0.6,1.1c0.1,0.5,0.6,0.8,1.1,0.6c0.3-0.1,0.6-0.4,0.7-0.7l9.8-2.7
	c0.1,0.3,0.3,0.5,0.5,0.8l-5,5.1l-0.1,0c-0.2,0-0.4,0.1-0.5,0.2c-0.1,0.1-0.2,0.3-0.2,0.5c0,0.2,0.1,0.4,0.2,0.5
	c0.3,0.3,0.8,0.3,1,0c0.1-0.1,0.2-0.3,0.2-0.5l0-0.1l5-5.1c0.2,0.2,0.5,0.3,0.8,0.4l-2.5,9.9c-0.3,0.1-0.6,0.3-0.7,0.7
	c-0.1,0.5,0.2,1,0.7,1.1c0.5,0.1,1-0.2,1.1-0.7c0-0.2,0-0.3,0-0.5l-0.1-0.2L48,63.6l2.5-9.9c0.3,0,0.6,0,0.9,0l1.9,6.8
	c-0.2,0.2-0.2,0.4-0.1,0.7c0.1,0.4,0.5,0.6,0.9,0.5c0.4-0.1,0.6-0.5,0.5-0.9c-0.1-0.2-0.3-0.4-0.5-0.5l-1.9-6.8
	c0.3-0.1,0.5-0.3,0.8-0.5l7.3,7.1l0,0.3c0,0.2,0.1,0.5,0.3,0.6c0.2,0.2,0.4,0.3,0.7,0.3c0.2,0,0.5-0.1,0.6-0.3
	c0.2-0.2,0.3-0.6,0.2-0.9c0-0.2-0.1-0.3-0.2-0.4c-0.3-0.2-0.6-0.3-0.9-0.2l-7.3-7.1c0.2-0.2,0.3-0.5,0.4-0.8l6.9,1.8l0.1,0.1
	c0.1,0.2,0.3,0.3,0.5,0.3c0.2,0,0.4,0,0.6-0.1c0.2-0.1,0.3-0.3,0.3-0.5l0-0.4l-0.1-0.2c-0.1-0.2-0.3-0.3-0.5-0.3
	c-0.2,0-0.4,0-0.6,0.1l-0.1,0.1l-6.9-1.8c0-0.3,0-0.6,0-0.9l9.8-2.7c0.2,0.2,0.6,0.4,0.9,0.3c0.5-0.1,0.8-0.6,0.6-1.1
	c-0.1-0.5-0.6-0.8-1.1-0.6c-0.3,0.1-0.6,0.4-0.7,0.7L54,49.2c-0.1-0.3-0.3-0.5-0.5-0.8l5-5.1l0.1,0c0.2,0,0.4-0.1,0.5-0.2
	c0.1-0.1,0.2-0.3,0.2-0.5l0-0.2l-0.2-0.3c-0.1-0.1-0.3-0.2-0.5-0.2c-0.2,0-0.4,0.1-0.5,0.2c-0.1,0.1-0.2,0.3-0.2,0.5l0,0.1l-5,5.1
	c-0.2-0.2-0.5-0.3-0.8-0.4l2.5-9.9c0.3-0.1,0.6-0.3,0.7-0.7c0-0.2,0-0.3,0-0.5c-0.1-0.3-0.3-0.6-0.7-0.6
	C54.5,35.7,54.2,35.7,54,35.8z"/>
</svg>
